<svg width="24" height="24" viewBox="0 0 24 24" fill="none" xmlns="http://www.w3.org/2000/svg">
<g clip-path="url(#clip0_1017_6093)">
<path d="M21.4184 17.1491C21.4184 17.1491 21.4138 6.86235 21.4127 2.85663C21.4138 2.52197 21.2779 2.21928 21.0586 1.99998C20.8393 1.78067 20.5366 1.64475 20.2019 1.64589C16.1973 1.64361 5.91407 1.64018 5.91407 1.64018C5.58283 1.64018 5.28243 1.7761 5.06427 1.99426C4.84725 2.21357 4.71133 2.51625 4.71133 2.85206C4.71133 3.5214 5.25045 4.0628 5.91407 4.06394L17.2813 4.06394L0.500017 20.8452C0.0271424 21.3181 0.027143 22.0857 0.500016 22.5585C0.972889 23.0314 1.74045 23.0314 2.21332 22.5585L18.9946 5.77725L18.9958 17.1502C18.9958 17.8104 19.5372 18.3472 20.2065 18.3472C20.5423 18.3472 20.8461 18.2124 21.0643 17.9943C21.2836 17.7773 21.4172 17.4792 21.4184 17.1491Z" fill="#111112"/>
</g>
<defs>
<clipPath id="clip0_1017_6093">
<rect width="24" height="24" fill="white" transform="translate(24) rotate(90)"/>
</clipPath>
</defs>
</svg>
