<svg width="25" height="24" viewBox="0 0 25 24" fill="none" xmlns="http://www.w3.org/2000/svg">
<path fill-rule="evenodd" clip-rule="evenodd" d="M22.5 22C22.5 23.1046 21.6046 24 20.5 24H5.5C3.843 24 2.5 22.657 2.5 21V3C2.5 1.343 3.843 0 5.5 0H20.5C21.6046 0 22.5 0.895431 22.5 2V22ZM20.5 21C20.5 20.4477 20.0523 20 19.5 20H5.5C4.125 20 4.125 22 5.5 22H19.5C20.0523 22 20.5 21.5523 20.5 21ZM20.5 3C20.5 2.44772 20.0523 2 19.5 2H6C5.44772 2 5 2.44772 5 3V17C5 17.5523 5.44772 18 6 18H19.5C20.0523 18 20.5 17.5523 20.5 17V3ZM16.5 5C17.0523 5 17.5 5.44772 17.5 6C17.5 6.55228 17.0523 7 16.5 7H9C8.44772 7 8 6.55228 8 6C8 5.44772 8.44772 5 9 5H16.5Z" fill="#111112"/>
<rect x="8.5" y="8" width="8" height="2" rx="1" fill="#111112"/>
</svg>
