<svg width="40" height="40" viewBox="0 0 40 40" fill="none" xmlns="http://www.w3.org/2000/svg">
<path d="M10.468 3.33301C5.164 3.33301 0 6.8894 0 13.3994C0 20.6425 8.69 28.4241 18.606 37.7827C18.994 38.1502 19.498 38.333 20 38.333C20.502 38.333 21.006 38.1502 21.394 37.7827C31.348 28.3891 40 20.6444 40 13.3994C40 6.87967 34.84 3.35051 29.542 3.35051C25.87 3.35051 22.25 5.0344 20 8.31662C17.74 5.01884 14.13 3.33301 10.468 3.33301ZM10.468 6.24967C14.448 6.25162 16.872 8.88051 18.778 11.4997C19.058 11.8847 19.514 12.1141 20 12.1161C20.486 12.1161 20.942 11.8886 21.224 11.5055C23.134 8.9019 25.604 6.26717 29.542 6.26717C33.134 6.26717 37 8.4994 37 13.3994C37 18.593 31.238 24.4302 20 35.0352C9.092 24.7588 3 18.7233 3 13.3994C3 11.2119 3.778 9.37634 5.248 8.0969C6.594 6.92245 8.498 6.24967 10.468 6.24967Z" fill="#111112"/>
</svg>
