<svg width="17" height="16" viewBox="0 0 17 16" fill="none" xmlns="http://www.w3.org/2000/svg">
<path fill-rule="evenodd" clip-rule="evenodd" d="M8.83333 6.66667C8.09733 6.66667 7.5 6.06933 7.5 5.33333C7.5 4.59733 8.09733 4 8.83333 4C9.56933 4 10.1667 4.59733 10.1667 5.33333C10.1667 6.06933 9.56933 6.66667 8.83333 6.66667ZM8.83333 3.07528C7.72867 3.07528 6.5 4 6.54267 5.33333C6.54267 6.66667 7.72859 7.5 8.83325 7.5C10.1667 7.5 11.1465 6.438 11.1465 5.33333C11.1465 4.05815 9.938 3.07528 8.83333 3.07528ZM4.83325 5.068C4.83325 2.72333 6.34725 1 8.83325 1C11.3193 1 12.8333 2.65533 12.8333 5C12.8333 7.30333 11.7913 9.344 8.83325 14C5.84059 9.28467 4.83325 7.37133 4.83325 5.068ZM8.83333 0C6.03467 0 3.5 2.26867 3.5 5.068C3.5 7.86667 5.81267 11.208 8.83333 16C11.854 11.208 14.1667 7.86667 14.1667 5.068C14.1667 2.26867 11.6327 0 8.83333 0Z" fill="#111112"/>
</svg>
