<svg width="17" height="16" viewBox="0 0 17 16" fill="none" xmlns="http://www.w3.org/2000/svg">
<g clip-path="url(#clip0_1289_2376)">
<path fill-rule="evenodd" clip-rule="evenodd" d="M15.1667 8.66699C15.1487 5.00233 12.1687 2.00033 8.5 2.00033C4.83133 2.00033 1.85133 5.00233 1.83333 8.66699H3.5C4.052 8.66699 4.5 9.11499 4.5 9.66699V14.3337C4.5 14.8857 4.052 15.3337 3.5 15.3337H1.5C0.948 15.3337 0.5 14.8857 0.5 14.3337V8.66699C0.518 4.26633 4.096 0.666992 8.5 0.666992C12.904 0.666992 16.482 4.26633 16.5 8.66699V14.3337C16.5 14.8857 16.052 15.3337 15.5 15.3337H13.5C12.948 15.3337 12.5 14.8857 12.5 14.3337V9.66699C12.5 9.11499 12.948 8.66699 13.5 8.66699H15.1667Z" fill="#111112"/>
</g>
<defs>
<clipPath id="clip0_1289_2376">
<rect width="16" height="16" fill="white" transform="translate(0.5)"/>
</clipPath>
</defs>
</svg>
