<svg width="1361" height="72" viewBox="0 0 1361 72" fill="none" xmlns="http://www.w3.org/2000/svg">
<path d="M108.347 54.5248L108.347 57.8511L112.168 57.8511L112.168 64.7412L108.491 64.7412L108.491 66.3396L110.078 66.3396L110.078 71.3506L104.647 71.3506L104.647 69.9596L102.991 69.9596L102.991 71.3506L99.1327 71.3506L99.1327 69.9596L97.4759 69.9596L97.4759 71.3506L92.0078 71.3506L92.0078 66.3223L93.6366 66.3223L93.6366 64.7887L90.1183 64.7887L90.1183 57.7863L93.6459 57.7863L93.6459 54.3823L106.537 54.3823L106.537 50.9869L108.375 50.9869L108.375 49.1942L104.666 49.1942L104.666 47.4144L102.814 47.4144L102.814 46.0796L102.8 46.0796L102.8 45.7253L86.2836 45.7253L86.2836 44.0925L82.6118 44.0925L82.6118 42.3905L80.8201 42.3905L80.8201 30.472L80.8108 30.472L80.8108 28.8046L82.6351 28.8046L82.6351 27.0853L84.6734 27.0853L84.6734 25.3962L86.293 25.3962L86.293 18.6271L84.4594 18.6271L84.4594 17.1367L80.9039 17.1367L80.9039 18.6573L75.5428 18.6573L75.5428 20.4198L77.0599 20.4198L77.0599 22.1305L78.8423 22.1305L78.8423 30.4764L77.4228 30.4764L77.4228 32.1827L75.2635 32.1827L75.2635 37.4399L73.6626 37.4399L73.6626 40.6971L71.8709 40.6971L71.8709 45.9543L75.1984 45.9543L75.1984 47.6261L79.2704 47.6261L79.2704 49.2806L84.5524 49.2806L84.5524 52.6371L82.5653 52.6371L82.5653 54.6112L80.727 54.6112L80.727 56.3219L79.2937 56.3219L79.2937 57.7604L73.416 57.7604L73.416 56.3219L71.6056 56.3219L71.6056 54.6026L68.0176 54.6026L68.0176 52.8358L64.2247 52.8358L64.2247 54.581L62.7495 54.581L62.7495 57.8597L64.2247 57.8597L64.2247 59.4711L64.5924 59.4711L64.5924 59.484L66.0025 59.484L66.0025 61.2206L68.1944 61.2206L68.1944 62.9528L70.0606 62.9528L70.0606 64.6894L71.5266 64.6894L71.5266 66.5513L70.1024 66.5513L70.1024 67.9638L66.3609 67.9638L66.3609 69.6572L62.596 69.6572L62.596 67.9897L51.7341 67.9897L51.7341 69.6572L47.9691 69.6572L47.9691 67.9595L44.2275 67.9595L44.2275 66.5469L42.8035 66.5469L42.8035 64.6851L44.2694 64.6851L44.2694 62.9485L46.1355 62.9485L46.1355 61.2163L48.3275 61.2163L48.3275 59.4797L49.7376 59.4797L49.7376 59.4667L50.1052 59.4667L50.1052 57.8554L51.5804 57.8554L51.5804 54.5767L50.1052 54.5767L50.1052 52.8314L46.3124 52.8314L46.3124 54.5983L42.7243 54.5983L42.7243 56.3176L40.914 56.3176L40.914 57.7604L35.0363 57.7604L35.0363 56.3219L33.603 56.3219L33.603 54.6112L31.7647 54.6112L31.7647 52.6371L29.7775 52.6371L29.7775 49.2806L35.0596 49.2806L35.0596 47.6261L39.1316 47.6261L39.1316 45.9543L42.4591 45.9543L42.4591 40.6971L40.6674 40.6971L40.6674 37.4399L39.0664 37.4399L39.0664 32.1827L36.9071 32.1827L36.9071 30.4764L35.4877 30.4763L35.4877 22.1305L37.2701 22.1305L37.2701 20.4198L38.7873 20.4198L38.7873 18.653L33.4261 18.653L33.4261 17.1367L29.8707 17.1367L29.8707 18.6271L28.037 18.6271L28.037 25.3962L29.6565 25.3962L29.6565 27.0853L31.6949 27.0853L31.6949 28.8046L33.5192 28.8046L33.5192 30.472L33.5098 30.472L33.5098 42.3904L31.7182 42.3904L31.7182 44.0924L28.0464 44.0924L28.0464 45.7253L11.5348 45.7253L11.5348 46.0796L11.5208 46.0796L11.5208 47.4144L9.66859 47.4144L9.66859 49.1942L5.95956 49.1942L5.95956 50.9869L7.79775 50.9869L7.79775 54.3823L20.6887 54.3823L20.6887 57.7863L24.2163 57.7863L24.2163 64.7887L20.698 64.7887L20.698 66.3223L22.3269 66.3223L22.3269 71.3506L16.8587 71.3506L16.8587 69.9596L15.2019 69.9596L15.2019 71.3506L11.3439 71.3506L11.3439 69.9596L9.6872 69.9596L9.6872 71.3506L4.25628 71.3506L4.25628 66.3395L5.84317 66.3395L5.84317 64.7455L2.17137 64.7455L2.17137 57.8554L5.98745 57.8554L5.98745 54.5292L0.500644 54.5292L0.500644 50.9523L2.15737 50.9523L2.15737 50.9437L2.16671 50.9437L2.16671 44.1443L7.62557 44.1443L7.62557 40.7273L9.45453 40.7273L9.45453 39.2629L9.44058 39.2629L9.44058 39.0771L20.47 39.0771L20.47 39.0123L20.4793 39.0123L20.4793 37.5565L20.47 37.5565L20.47 37.5479L18.6643 37.5479L18.6643 33.9365L26.0312 33.9365L26.0312 29.0897L24.3792 29.0897L24.3792 30.485L16.8028 30.485L16.8028 28.8175L18.9389 28.8175L18.9389 27.1112L20.5119 27.1112L20.5119 23.9318L18.9389 23.9318L18.9389 18.7048L20.5119 18.7048L20.5119 15.4088L18.9389 15.4088L18.9389 11.9054L27.8649 11.9054L27.8649 8.48413L29.7357 8.48413L29.7357 6.76484L35.1155 6.76484L35.1155 3.58112L39.0572 3.58112L39.0572 11.9054L42.5382 11.9054L42.5382 13.6247L44.274 13.6247L44.274 8.60077L42.7755 8.60077L42.7755 5.04986L44.2322 5.04986L44.2322 3.58112L46.3822 3.58112L46.3822 -5.70026e-06L67.9524 -3.87739e-06L67.9524 3.58113L70.1025 3.58113L70.1025 5.04986L71.5591 5.04986L71.5591 8.60078L70.0606 8.60078L70.0606 13.6247L71.7965 13.6247L71.7965 11.9054L75.2775 11.9054L75.2775 3.58113L79.2192 3.58113L79.2192 6.76485L84.599 6.76485L84.599 8.48414L86.4698 8.48414L86.4698 11.9054L95.3958 11.9054L95.3958 15.4088L93.8228 15.4088L93.8228 18.7048L95.3958 18.7048L95.3958 23.9318L93.8228 23.9318L93.8228 27.1112L95.3958 27.1112L95.3958 28.8176L97.5318 28.8176L97.5318 30.485L89.9554 30.485L89.9554 29.0897L88.3034 29.0897L88.3034 33.9365L95.6703 33.9365L95.6703 37.5479L93.8646 37.5479L93.8646 37.5566L93.8553 37.5566L93.8553 39.0123L93.8646 39.0123L93.8646 39.0771L104.894 39.0771L104.894 39.2586L104.88 39.2586L104.88 40.7187L106.709 40.7187L106.709 44.14L112.168 44.14L112.168 50.9394L112.177 50.9394L112.177 50.948L113.834 50.948L113.834 54.5248L108.347 54.5248ZM55.2988 35.591L51.6782 35.591L51.6782 33.8847L48.3554 33.8847L48.3554 32.1827L46.4706 32.1827L46.4706 25.366L48.0018 25.366L48.0018 22.1607L53.4513 22.1607L53.4513 20.5364L46.3915 20.5364L46.3915 22.1521L44.5812 22.1521L44.5812 23.7763L40.8582 23.7763L40.8582 32.2302L42.743 32.2302L42.743 33.8977L46.0657 33.8977L46.0657 35.5997L48.253 35.5997L48.253 44.14L51.6084 44.14L51.6084 42.641L49.7702 42.641L49.7702 39.103L51.6596 39.103L51.6596 37.3535L55.2988 37.3535L55.2988 35.591ZM73.4811 23.772L69.7581 23.772L69.7581 22.1477L67.9478 22.1477L67.9478 20.5321L60.888 20.5321L60.888 22.1564L66.3376 22.1564L66.3376 25.3574L67.8687 25.3574L67.8686 32.1784L65.9839 32.1784L65.9839 33.8804L62.6611 33.8804L62.6611 35.5867L59.0405 35.5867L59.0405 37.3449L62.6797 37.3449L62.6797 39.0944L64.5691 39.0944L64.5691 42.6324L62.7309 42.6324L62.7309 44.1313L66.0863 44.1313L66.0863 35.591L68.2735 35.591L68.2735 33.889L71.5963 33.889L71.5963 32.2216L73.4811 32.2216L73.4811 23.7677L73.4811 23.772Z" fill="#0C2D57"/>
<path d="M221.679 54.5248L221.679 57.8511L225.5 57.8511L225.5 64.7412L221.823 64.7412L221.823 66.3396L223.41 66.3396L223.41 71.3506L217.979 71.3506L217.979 69.9596L216.323 69.9596L216.323 71.3506L212.465 71.3506L212.465 69.9596L210.808 69.9596L210.808 71.3506L205.34 71.3506L205.34 66.3223L206.969 66.3223L206.969 64.7887L203.45 64.7887L203.45 57.7863L206.978 57.7863L206.978 54.3823L219.869 54.3823L219.869 50.9869L221.707 50.9869L221.707 49.1942L217.998 49.1942L217.998 47.4144L216.146 47.4144L216.146 46.0796L216.132 46.0796L216.132 45.7253L199.616 45.7253L199.616 44.0925L195.944 44.0925L195.944 42.3905L194.152 42.3905L194.152 30.472L194.143 30.472L194.143 28.8046L195.967 28.8046L195.967 27.0853L198.005 27.0853L198.005 25.3962L199.625 25.3962L199.625 18.6271L197.791 18.6271L197.791 17.1367L194.236 17.1367L194.236 18.6573L188.875 18.6573L188.875 20.4198L190.392 20.4198L190.392 22.1305L192.174 22.1305L192.174 30.4764L190.755 30.4764L190.755 32.1827L188.596 32.1827L188.596 37.4399L186.995 37.4399L186.995 40.6971L185.203 40.6971L185.203 45.9543L188.53 45.9543L188.53 47.6261L192.602 47.6261L192.602 49.2806L197.884 49.2806L197.884 52.6371L195.897 52.6371L195.897 54.6112L194.059 54.6112L194.059 56.3219L192.626 56.3219L192.626 57.7604L186.748 57.7604L186.748 56.3219L184.938 56.3219L184.938 54.6026L181.35 54.6026L181.35 52.8358L177.557 52.8358L177.557 54.581L176.082 54.581L176.082 57.8597L177.557 57.8597L177.557 59.4711L177.924 59.4711L177.924 59.484L179.335 59.484L179.335 61.2206L181.526 61.2206L181.526 62.9528L183.393 62.9528L183.393 64.6894L184.859 64.6894L184.859 66.5513L183.434 66.5513L183.434 67.9638L179.693 67.9638L179.693 69.6572L175.928 69.6572L175.928 67.9897L165.066 67.9897L165.066 69.6572L161.301 69.6572L161.301 67.9595L157.56 67.9595L157.56 66.5469L156.135 66.5469L156.135 64.6851L157.601 64.6851L157.601 62.9485L159.468 62.9485L159.468 61.2163L161.66 61.2163L161.66 59.4797L163.07 59.4797L163.07 59.4667L163.437 59.4667L163.437 57.8554L164.912 57.8554L164.912 54.5767L163.437 54.5767L163.437 52.8314L159.644 52.8314L159.644 54.5983L156.056 54.5983L156.056 56.3176L154.246 56.3176L154.246 57.7604L148.368 57.7604L148.368 56.3219L146.935 56.3219L146.935 54.6112L145.097 54.6112L145.097 52.6371L143.11 52.6371L143.11 49.2806L148.392 49.2806L148.392 47.6261L152.464 47.6261L152.464 45.9543L155.791 45.9543L155.791 40.6971L153.999 40.6971L153.999 37.4399L152.398 37.4399L152.398 32.1827L150.239 32.1827L150.239 30.4764L148.82 30.4763L148.82 22.1305L150.602 22.1305L150.602 20.4198L152.119 20.4198L152.119 18.653L146.758 18.653L146.758 17.1367L143.203 17.1367L143.203 18.6271L141.369 18.6271L141.369 25.3962L142.989 25.3962L142.989 27.0853L145.027 27.0853L145.027 28.8046L146.851 28.8046L146.851 30.472L146.842 30.472L146.842 42.3904L145.05 42.3904L145.05 44.0924L141.378 44.0924L141.378 45.7253L124.867 45.7253L124.867 46.0796L124.853 46.0796L124.853 47.4144L123.001 47.4144L123.001 49.1942L119.292 49.1942L119.292 50.9869L121.13 50.9869L121.13 54.3823L134.021 54.3823L134.021 57.7863L137.548 57.7863L137.548 64.7887L134.03 64.7887L134.03 66.3223L135.659 66.3223L135.659 71.3506L130.191 71.3506L130.191 69.9596L128.534 69.9596L128.534 71.3506L124.676 71.3506L124.676 69.9596L123.019 69.9596L123.019 71.3506L117.588 71.3506L117.588 66.3395L119.175 66.3395L119.175 64.7455L115.503 64.7455L115.503 57.8554L119.319 57.8554L119.319 54.5292L113.833 54.5292L113.833 50.9523L115.489 50.9523L115.489 50.9437L115.499 50.9437L115.499 44.1443L120.958 44.1443L120.958 40.7273L122.787 40.7273L122.787 39.2629L122.773 39.2629L122.773 39.0771L133.802 39.0771L133.802 39.0123L133.811 39.0123L133.811 37.5565L133.802 37.5565L133.802 37.5479L131.996 37.5479L131.996 33.9365L139.363 33.9365L139.363 29.0897L137.711 29.0897L137.711 30.485L130.135 30.485L130.135 28.8175L132.271 28.8175L132.271 27.1112L133.844 27.1112L133.844 23.9318L132.271 23.9318L132.271 18.7048L133.844 18.7048L133.844 15.4088L132.271 15.4088L132.271 11.9054L141.197 11.9054L141.197 8.48413L143.068 8.48413L143.068 6.76484L148.447 6.76484L148.447 3.58112L152.389 3.58112L152.389 11.9054L155.87 11.9054L155.87 13.6247L157.606 13.6247L157.606 8.60077L156.108 8.60077L156.108 5.04986L157.564 5.04986L157.564 3.58112L159.714 3.58112L159.714 -5.70026e-06L181.284 -3.87739e-06L181.284 3.58113L183.435 3.58113L183.435 5.04986L184.891 5.04986L184.891 8.60078L183.393 8.60078L183.393 13.6247L185.128 13.6247L185.128 11.9054L188.61 11.9054L188.61 3.58113L192.551 3.58113L192.551 6.76485L197.931 6.76485L197.931 8.48414L199.802 8.48414L199.802 11.9054L208.728 11.9054L208.728 15.4088L207.155 15.4088L207.155 18.7048L208.728 18.7048L208.728 23.9318L207.155 23.9318L207.155 27.1112L208.728 27.1112L208.728 28.8176L210.864 28.8176L210.864 30.485L203.287 30.485L203.287 29.0897L201.635 29.0897L201.635 33.9365L209.002 33.9365L209.002 37.5479L207.197 37.5479L207.197 37.5566L207.187 37.5566L207.187 39.0123L207.197 39.0123L207.197 39.0771L218.226 39.0771L218.226 39.2586L218.212 39.2586L218.212 40.7187L220.041 40.7187L220.041 44.14L225.5 44.14L225.5 50.9394L225.509 50.9394L225.509 50.948L227.166 50.948L227.166 54.5248L221.679 54.5248ZM168.631 35.591L165.01 35.591L165.01 33.8847L161.687 33.8847L161.687 32.1827L159.803 32.1827L159.803 25.366L161.334 25.366L161.334 22.1607L166.783 22.1607L166.783 20.5364L159.724 20.5364L159.724 22.1521L157.913 22.1521L157.913 23.7763L154.19 23.7763L154.19 32.2302L156.075 32.2302L156.075 33.8977L159.398 33.8977L159.398 35.5997L161.585 35.5997L161.585 44.14L164.94 44.14L164.94 42.641L163.102 42.641L163.102 39.103L164.992 39.103L164.992 37.3535L168.631 37.3535L168.631 35.591ZM186.813 23.772L183.09 23.772L183.09 22.1477L181.28 22.1477L181.28 20.5321L174.22 20.5321L174.22 22.1564L179.67 22.1564L179.67 25.3574L181.201 25.3574L181.201 32.1784L179.316 32.1784L179.316 33.8804L175.993 33.8804L175.993 35.5867L172.373 35.5867L172.373 37.3449L176.012 37.3449L176.012 39.0944L177.901 39.0944L177.901 42.6324L176.063 42.6324L176.063 44.1313L179.418 44.1313L179.418 35.591L181.606 35.591L181.606 33.889L184.928 33.889L184.928 32.2216L186.813 32.2216L186.813 23.7677L186.813 23.772Z" fill="#0C2D57"/>
<path d="M335.011 54.5248L335.011 57.8511L338.832 57.8511L338.832 64.7412L335.156 64.7412L335.156 66.3396L336.742 66.3396L336.742 71.3506L331.311 71.3506L331.311 69.9596L329.655 69.9596L329.655 71.3506L325.797 71.3506L325.797 69.9596L324.14 69.9596L324.14 71.3506L318.672 71.3506L318.672 66.3223L320.301 66.3223L320.301 64.7887L316.782 64.7887L316.782 57.7863L320.31 57.7863L320.31 54.3823L333.201 54.3823L333.201 50.9869L335.039 50.9869L335.039 49.1942L331.33 49.1942L331.33 47.4144L329.478 47.4144L329.478 46.0796L329.464 46.0796L329.464 45.7253L312.948 45.7253L312.948 44.0925L309.276 44.0925L309.276 42.3905L307.484 42.3905L307.484 30.472L307.475 30.472L307.475 28.8046L309.299 28.8046L309.299 27.0853L311.337 27.0853L311.337 25.3962L312.957 25.3962L312.957 18.6271L311.123 18.6271L311.123 17.1367L307.568 17.1367L307.568 18.6573L302.207 18.6573L302.207 20.4198L303.724 20.4198L303.724 22.1305L305.506 22.1305L305.506 30.4764L304.087 30.4764L304.087 32.1827L301.928 32.1827L301.928 37.4399L300.327 37.4399L300.327 40.6971L298.535 40.6971L298.535 45.9543L301.862 45.9543L301.862 47.6261L305.934 47.6261L305.934 49.2806L311.216 49.2806L311.216 52.6371L309.229 52.6371L309.229 54.6112L307.391 54.6112L307.391 56.3219L305.958 56.3219L305.958 57.7604L300.08 57.7604L300.08 56.3219L298.27 56.3219L298.27 54.6026L294.682 54.6026L294.682 52.8358L290.889 52.8358L290.889 54.581L289.414 54.581L289.414 57.8597L290.889 57.8597L290.889 59.4711L291.256 59.4711L291.256 59.484L292.667 59.484L292.667 61.2206L294.858 61.2206L294.858 62.9528L296.725 62.9528L296.725 64.6894L298.191 64.6894L298.191 66.5513L296.767 66.5513L296.767 67.9638L293.025 67.9638L293.025 69.6572L289.26 69.6572L289.26 67.9897L278.398 67.9897L278.398 69.6572L274.633 69.6572L274.633 67.9595L270.892 67.9595L270.892 66.5469L269.468 66.5469L269.468 64.6851L270.933 64.6851L270.933 62.9485L272.8 62.9485L272.8 61.2163L274.992 61.2163L274.992 59.4797L276.402 59.4797L276.402 59.4667L276.769 59.4667L276.769 57.8554L278.245 57.8554L278.245 54.5767L276.769 54.5767L276.769 52.8314L272.976 52.8314L272.976 54.5983L269.388 54.5983L269.388 56.3176L267.578 56.3176L267.578 57.7604L261.7 57.7604L261.7 56.3219L260.267 56.3219L260.267 54.6112L258.429 54.6112L258.429 52.6371L256.442 52.6371L256.442 49.2806L261.724 49.2806L261.724 47.6261L265.796 47.6261L265.796 45.9543L269.123 45.9543L269.123 40.6971L267.331 40.6971L267.331 37.4399L265.73 37.4399L265.73 32.1827L263.571 32.1827L263.571 30.4764L262.152 30.4763L262.152 22.1305L263.934 22.1305L263.934 20.4198L265.451 20.4198L265.451 18.653L260.09 18.653L260.09 17.1367L256.535 17.1367L256.535 18.6271L254.701 18.6271L254.701 25.3962L256.321 25.3962L256.321 27.0853L258.359 27.0853L258.359 28.8046L260.183 28.8046L260.183 30.472L260.174 30.472L260.174 42.3904L258.382 42.3904L258.382 44.0924L254.71 44.0924L254.71 45.7253L238.199 45.7253L238.199 46.0796L238.185 46.0796L238.185 47.4144L236.333 47.4144L236.333 49.1942L232.624 49.1942L232.624 50.9869L234.462 50.9869L234.462 54.3823L247.353 54.3823L247.353 57.7863L250.88 57.7863L250.88 64.7887L247.362 64.7887L247.362 66.3223L248.991 66.3223L248.991 71.3506L243.523 71.3506L243.523 69.9596L241.866 69.9596L241.866 71.3506L238.008 71.3506L238.008 69.9596L236.351 69.9596L236.351 71.3506L230.92 71.3506L230.92 66.3395L232.507 66.3395L232.507 64.7455L228.835 64.7455L228.835 57.8554L232.652 57.8554L232.652 54.5292L227.165 54.5292L227.165 50.9523L228.821 50.9523L228.821 50.9437L228.831 50.9437L228.831 44.1443L234.29 44.1443L234.29 40.7273L236.119 40.7273L236.119 39.2629L236.105 39.2629L236.105 39.0771L247.134 39.0771L247.134 39.0123L247.143 39.0123L247.143 37.5565L247.134 37.5565L247.134 37.5479L245.328 37.5479L245.328 33.9365L252.695 33.9365L252.695 29.0897L251.043 29.0897L251.043 30.485L243.467 30.485L243.467 28.8175L245.603 28.8175L245.603 27.1112L247.176 27.1112L247.176 23.9318L245.603 23.9318L245.603 18.7048L247.176 18.7048L247.176 15.4088L245.603 15.4088L245.603 11.9054L254.529 11.9054L254.529 8.48413L256.4 8.48413L256.4 6.76484L261.78 6.76484L261.78 3.58112L265.721 3.58112L265.721 11.9054L269.202 11.9054L269.202 13.6247L270.938 13.6247L270.938 8.60077L269.44 8.60077L269.44 5.04986L270.896 5.04986L270.896 3.58112L273.046 3.58112L273.046 -5.70026e-06L294.616 -3.87739e-06L294.616 3.58113L296.767 3.58113L296.767 5.04986L298.223 5.04986L298.223 8.60078L296.725 8.60078L296.725 13.6247L298.461 13.6247L298.461 11.9054L301.942 11.9054L301.942 3.58113L305.883 3.58113L305.883 6.76485L311.263 6.76485L311.263 8.48414L313.134 8.48414L313.134 11.9054L322.06 11.9054L322.06 15.4088L320.487 15.4088L320.487 18.7048L322.06 18.7048L322.06 23.9318L320.487 23.9318L320.487 27.1112L322.06 27.1112L322.06 28.8176L324.196 28.8176L324.196 30.485L316.62 30.485L316.62 29.0897L314.967 29.0897L314.967 33.9365L322.334 33.9365L322.334 37.5479L320.529 37.5479L320.529 37.5566L320.519 37.5566L320.519 39.0123L320.529 39.0123L320.529 39.0771L331.558 39.0771L331.558 39.2586L331.544 39.2586L331.544 40.7187L333.373 40.7187L333.373 44.14L338.832 44.14L338.832 50.9394L338.841 50.9394L338.841 50.948L340.498 50.948L340.498 54.5248L335.011 54.5248ZM281.963 35.591L278.342 35.591L278.342 33.8847L275.019 33.8847L275.019 32.1827L273.135 32.1827L273.135 25.366L274.666 25.366L274.666 22.1607L280.115 22.1607L280.115 20.5364L273.056 20.5364L273.056 22.1521L271.245 22.1521L271.245 23.7763L267.522 23.7763L267.522 32.2302L269.407 32.2302L269.407 33.8977L272.73 33.8977L272.73 35.5997L274.917 35.5997L274.917 44.14L278.272 44.14L278.272 42.641L276.434 42.641L276.434 39.103L278.324 39.103L278.324 37.3535L281.963 37.3535L281.963 35.591ZM300.145 23.772L296.422 23.772L296.422 22.1477L294.612 22.1477L294.612 20.5321L287.552 20.5321L287.552 22.1564L293.002 22.1564L293.002 25.3574L294.533 25.3574L294.533 32.1784L292.648 32.1784L292.648 33.8804L289.325 33.8804L289.325 35.5867L285.705 35.5867L285.705 37.3449L289.344 37.3449L289.344 39.0944L291.233 39.0944L291.233 42.6324L289.395 42.6324L289.395 44.1313L292.75 44.1313L292.75 35.591L294.938 35.591L294.938 33.889L298.26 33.889L298.26 32.2216L300.145 32.2216L300.145 23.7677L300.145 23.772Z" fill="#0C2D57"/>
<path d="M448.345 54.5248L448.345 57.8511L452.166 57.8511L452.166 64.7412L448.489 64.7412L448.489 66.3396L450.076 66.3396L450.076 71.3506L444.645 71.3506L444.645 69.9596L442.989 69.9596L442.989 71.3506L439.131 71.3506L439.131 69.9596L437.474 69.9596L437.474 71.3506L432.006 71.3506L432.006 66.3223L433.635 66.3223L433.635 64.7887L430.116 64.7887L430.116 57.7863L433.644 57.7863L433.644 54.3823L446.535 54.3823L446.535 50.9869L448.373 50.9869L448.373 49.1942L444.664 49.1942L444.664 47.4144L442.812 47.4144L442.812 46.0796L442.798 46.0796L442.798 45.7253L426.282 45.7253L426.282 44.0925L422.61 44.0925L422.61 42.3905L420.818 42.3905L420.818 30.472L420.809 30.472L420.809 28.8046L422.633 28.8046L422.633 27.0853L424.671 27.0853L424.671 25.3962L426.291 25.3962L426.291 18.6271L424.457 18.6271L424.457 17.1367L420.902 17.1367L420.902 18.6573L415.541 18.6573L415.541 20.4198L417.058 20.4198L417.058 22.1305L418.84 22.1305L418.84 30.4764L417.421 30.4764L417.421 32.1827L415.262 32.1827L415.262 37.4399L413.661 37.4399L413.661 40.6971L411.869 40.6971L411.869 45.9543L415.196 45.9543L415.196 47.6261L419.268 47.6261L419.268 49.2806L424.55 49.2806L424.55 52.6371L422.563 52.6371L422.563 54.6112L420.725 54.6112L420.725 56.3219L419.292 56.3219L419.292 57.7604L413.414 57.7604L413.414 56.3219L411.604 56.3219L411.604 54.6026L408.016 54.6026L408.016 52.8358L404.223 52.8358L404.223 54.581L402.748 54.581L402.748 57.8597L404.223 57.8597L404.223 59.4711L404.59 59.4711L404.59 59.484L406.001 59.484L406.001 61.2206L408.192 61.2206L408.192 62.9528L410.059 62.9528L410.059 64.6894L411.525 64.6894L411.525 66.5513L410.1 66.5513L410.1 67.9638L406.359 67.9638L406.359 69.6572L402.594 69.6572L402.594 67.9897L391.732 67.9897L391.732 69.6572L387.967 69.6572L387.967 67.9595L384.226 67.9595L384.226 66.5469L382.802 66.5469L382.802 64.6851L384.267 64.6851L384.267 62.9485L386.134 62.9485L386.134 61.2163L388.326 61.2163L388.326 59.4797L389.736 59.4797L389.736 59.4667L390.103 59.4667L390.103 57.8554L391.578 57.8554L391.578 54.5767L390.103 54.5767L390.103 52.8314L386.31 52.8314L386.31 54.5983L382.722 54.5983L382.722 56.3176L380.912 56.3176L380.912 57.7604L375.034 57.7604L375.034 56.3219L373.601 56.3219L373.601 54.6112L371.763 54.6112L371.763 52.6371L369.776 52.6371L369.776 49.2806L375.058 49.2806L375.058 47.6261L379.13 47.6261L379.13 45.9543L382.457 45.9543L382.457 40.6971L380.665 40.6971L380.665 37.4399L379.064 37.4399L379.064 32.1827L376.905 32.1827L376.905 30.4764L375.486 30.4763L375.486 22.1305L377.268 22.1305L377.268 20.4198L378.785 20.4198L378.785 18.653L373.424 18.653L373.424 17.1367L369.869 17.1367L369.869 18.6271L368.035 18.6271L368.035 25.3962L369.655 25.3962L369.655 27.0853L371.693 27.0853L371.693 28.8046L373.517 28.8046L373.517 30.472L373.508 30.472L373.508 42.3904L371.716 42.3904L371.716 44.0924L368.044 44.0924L368.044 45.7253L351.533 45.7253L351.533 46.0796L351.519 46.0796L351.519 47.4144L349.667 47.4144L349.667 49.1942L345.958 49.1942L345.958 50.9869L347.796 50.9869L347.796 54.3823L360.687 54.3823L360.687 57.7863L364.214 57.7863L364.214 64.7887L360.696 64.7887L360.696 66.3223L362.325 66.3223L362.325 71.3506L356.857 71.3506L356.857 69.9596L355.2 69.9596L355.2 71.3506L351.342 71.3506L351.342 69.9596L349.685 69.9596L349.685 71.3506L344.254 71.3506L344.254 66.3395L345.841 66.3395L345.841 64.7455L342.169 64.7455L342.169 57.8554L345.985 57.8554L345.985 54.5292L340.499 54.5292L340.499 50.9523L342.155 50.9523L342.155 50.9437L342.165 50.9437L342.165 44.1443L347.624 44.1443L347.624 40.7273L349.453 40.7273L349.453 39.2629L349.439 39.2629L349.439 39.0771L360.468 39.0771L360.468 39.0123L360.477 39.0123L360.477 37.5565L360.468 37.5565L360.468 37.5479L358.662 37.5479L358.662 33.9365L366.029 33.9365L366.029 29.0897L364.377 29.0897L364.377 30.485L356.801 30.485L356.801 28.8175L358.937 28.8175L358.937 27.1112L360.51 27.1112L360.51 23.9318L358.937 23.9318L358.937 18.7048L360.51 18.7048L360.51 15.4088L358.937 15.4088L358.937 11.9054L367.863 11.9054L367.863 8.48413L369.734 8.48413L369.734 6.76484L375.114 6.76484L375.114 3.58112L379.055 3.58112L379.055 11.9054L382.536 11.9054L382.536 13.6247L384.272 13.6247L384.272 8.60077L382.774 8.60077L382.774 5.04986L384.23 5.04986L384.23 3.58112L386.38 3.58112L386.38 -5.70026e-06L407.95 -3.87739e-06L407.95 3.58113L410.101 3.58113L410.101 5.04986L411.557 5.04986L411.557 8.60078L410.059 8.60078L410.059 13.6247L411.795 13.6247L411.795 11.9054L415.276 11.9054L415.276 3.58113L419.217 3.58113L419.217 6.76485L424.597 6.76485L424.597 8.48414L426.468 8.48414L426.468 11.9054L435.394 11.9054L435.394 15.4088L433.821 15.4088L433.821 18.7048L435.394 18.7048L435.394 23.9318L433.821 23.9318L433.821 27.1112L435.394 27.1112L435.394 28.8176L437.53 28.8176L437.53 30.485L429.953 30.485L429.953 29.0897L428.301 29.0897L428.301 33.9365L435.668 33.9365L435.668 37.5479L433.863 37.5479L433.863 37.5566L433.853 37.5566L433.853 39.0123L433.863 39.0123L433.863 39.0771L444.892 39.0771L444.892 39.2586L444.878 39.2586L444.878 40.7187L446.707 40.7187L446.707 44.14L452.166 44.14L452.166 50.9394L452.175 50.9394L452.175 50.948L453.832 50.948L453.832 54.5248L448.345 54.5248ZM395.297 35.591L391.676 35.591L391.676 33.8847L388.353 33.8847L388.353 32.1827L386.469 32.1827L386.469 25.366L388 25.366L388 22.1607L393.449 22.1607L393.449 20.5364L386.39 20.5364L386.39 22.1521L384.579 22.1521L384.579 23.7763L380.856 23.7763L380.856 32.2302L382.741 32.2302L382.741 33.8977L386.064 33.8977L386.064 35.5997L388.251 35.5997L388.251 44.14L391.606 44.14L391.606 42.641L389.768 42.641L389.768 39.103L391.658 39.103L391.658 37.3535L395.297 37.3535L395.297 35.591ZM413.479 23.772L409.756 23.772L409.756 22.1477L407.946 22.1477L407.946 20.5321L400.886 20.5321L400.886 22.1564L406.336 22.1564L406.336 25.3574L407.867 25.3574L407.867 32.1784L405.982 32.1784L405.982 33.8804L402.659 33.8804L402.659 35.5867L399.039 35.5867L399.039 37.3449L402.678 37.3449L402.678 39.0944L404.567 39.0944L404.567 42.6324L402.729 42.6324L402.729 44.1313L406.084 44.1313L406.084 35.591L408.272 35.591L408.272 33.889L411.594 33.889L411.594 32.2216L413.479 32.2216L413.479 23.7677L413.479 23.772Z" fill="#0C2D57"/>
<path d="M561.679 54.5248L561.679 57.8511L565.5 57.8511L565.5 64.7412L561.823 64.7412L561.823 66.3396L563.41 66.3396L563.41 71.3506L557.979 71.3506L557.979 69.9596L556.323 69.9596L556.323 71.3506L552.465 71.3506L552.465 69.9596L550.808 69.9596L550.808 71.3506L545.34 71.3506L545.34 66.3223L546.969 66.3223L546.969 64.7887L543.45 64.7887L543.45 57.7863L546.978 57.7863L546.978 54.3823L559.869 54.3823L559.869 50.9869L561.707 50.9869L561.707 49.1942L557.998 49.1942L557.998 47.4144L556.146 47.4144L556.146 46.0796L556.132 46.0796L556.132 45.7253L539.616 45.7253L539.616 44.0925L535.944 44.0925L535.944 42.3905L534.152 42.3905L534.152 30.472L534.143 30.472L534.143 28.8046L535.967 28.8046L535.967 27.0853L538.005 27.0853L538.005 25.3962L539.625 25.3962L539.625 18.6271L537.791 18.6271L537.791 17.1367L534.236 17.1367L534.236 18.6573L528.875 18.6573L528.875 20.4198L530.392 20.4198L530.392 22.1305L532.174 22.1305L532.174 30.4764L530.755 30.4764L530.755 32.1827L528.596 32.1827L528.596 37.4399L526.995 37.4399L526.995 40.6971L525.203 40.6971L525.203 45.9543L528.53 45.9543L528.53 47.6261L532.602 47.6261L532.602 49.2806L537.884 49.2806L537.884 52.6371L535.897 52.6371L535.897 54.6112L534.059 54.6112L534.059 56.3219L532.626 56.3219L532.626 57.7604L526.748 57.7604L526.748 56.3219L524.938 56.3219L524.938 54.6026L521.35 54.6026L521.35 52.8358L517.557 52.8358L517.557 54.581L516.082 54.581L516.082 57.8597L517.557 57.8597L517.557 59.4711L517.924 59.4711L517.924 59.484L519.335 59.484L519.335 61.2206L521.526 61.2206L521.526 62.9528L523.393 62.9528L523.393 64.6894L524.859 64.6894L524.859 66.5513L523.434 66.5513L523.434 67.9638L519.693 67.9638L519.693 69.6572L515.928 69.6572L515.928 67.9897L505.066 67.9897L505.066 69.6572L501.301 69.6572L501.301 67.9595L497.56 67.9595L497.56 66.5469L496.135 66.5469L496.135 64.6851L497.601 64.6851L497.601 62.9485L499.468 62.9485L499.468 61.2163L501.66 61.2163L501.66 59.4797L503.07 59.4797L503.07 59.4667L503.437 59.4667L503.437 57.8554L504.912 57.8554L504.912 54.5767L503.437 54.5767L503.437 52.8314L499.644 52.8314L499.644 54.5983L496.056 54.5983L496.056 56.3176L494.246 56.3176L494.246 57.7604L488.368 57.7604L488.368 56.3219L486.935 56.3219L486.935 54.6112L485.097 54.6112L485.097 52.6371L483.11 52.6371L483.11 49.2806L488.392 49.2806L488.392 47.6261L492.464 47.6261L492.464 45.9543L495.791 45.9543L495.791 40.6971L493.999 40.6971L493.999 37.4399L492.398 37.4399L492.398 32.1827L490.239 32.1827L490.239 30.4764L488.82 30.4763L488.82 22.1305L490.602 22.1305L490.602 20.4198L492.119 20.4198L492.119 18.653L486.758 18.653L486.758 17.1367L483.203 17.1367L483.203 18.6271L481.369 18.6271L481.369 25.3962L482.989 25.3962L482.989 27.0853L485.027 27.0853L485.027 28.8046L486.851 28.8046L486.851 30.472L486.842 30.472L486.842 42.3904L485.05 42.3904L485.05 44.0924L481.378 44.0924L481.378 45.7253L464.867 45.7253L464.867 46.0796L464.853 46.0796L464.853 47.4144L463.001 47.4144L463.001 49.1942L459.292 49.1942L459.292 50.9869L461.13 50.9869L461.13 54.3823L474.021 54.3823L474.021 57.7863L477.548 57.7863L477.548 64.7887L474.03 64.7887L474.03 66.3223L475.659 66.3223L475.659 71.3506L470.191 71.3506L470.191 69.9596L468.534 69.9596L468.534 71.3506L464.676 71.3506L464.676 69.9596L463.019 69.9596L463.019 71.3506L457.588 71.3506L457.588 66.3395L459.175 66.3395L459.175 64.7455L455.503 64.7455L455.503 57.8554L459.319 57.8554L459.319 54.5292L453.833 54.5292L453.833 50.9523L455.489 50.9523L455.489 50.9437L455.499 50.9437L455.499 44.1443L460.958 44.1443L460.958 40.7273L462.787 40.7273L462.787 39.2629L462.773 39.2629L462.773 39.0771L473.802 39.0771L473.802 39.0123L473.811 39.0123L473.811 37.5565L473.802 37.5565L473.802 37.5479L471.996 37.5479L471.996 33.9365L479.363 33.9365L479.363 29.0897L477.711 29.0897L477.711 30.485L470.135 30.485L470.135 28.8175L472.271 28.8175L472.271 27.1112L473.844 27.1112L473.844 23.9318L472.271 23.9318L472.271 18.7048L473.844 18.7048L473.844 15.4088L472.271 15.4088L472.271 11.9054L481.197 11.9054L481.197 8.48413L483.068 8.48413L483.068 6.76484L488.447 6.76484L488.447 3.58112L492.389 3.58112L492.389 11.9054L495.87 11.9054L495.87 13.6247L497.606 13.6247L497.606 8.60077L496.108 8.60077L496.108 5.04986L497.564 5.04986L497.564 3.58112L499.714 3.58112L499.714 -5.70026e-06L521.284 -3.87739e-06L521.284 3.58113L523.435 3.58113L523.435 5.04986L524.891 5.04986L524.891 8.60078L523.393 8.60078L523.393 13.6247L525.128 13.6247L525.128 11.9054L528.61 11.9054L528.61 3.58113L532.551 3.58113L532.551 6.76485L537.931 6.76485L537.931 8.48414L539.802 8.48414L539.802 11.9054L548.728 11.9054L548.728 15.4088L547.155 15.4088L547.155 18.7048L548.728 18.7048L548.728 23.9318L547.155 23.9318L547.155 27.1112L548.728 27.1112L548.728 28.8176L550.864 28.8176L550.864 30.485L543.287 30.485L543.287 29.0897L541.635 29.0897L541.635 33.9365L549.002 33.9365L549.002 37.5479L547.197 37.5479L547.197 37.5566L547.187 37.5566L547.187 39.0123L547.197 39.0123L547.197 39.0771L558.226 39.0771L558.226 39.2586L558.212 39.2586L558.212 40.7187L560.041 40.7187L560.041 44.14L565.5 44.14L565.5 50.9394L565.509 50.9394L565.509 50.948L567.166 50.948L567.166 54.5248L561.679 54.5248ZM508.631 35.591L505.01 35.591L505.01 33.8847L501.687 33.8847L501.687 32.1827L499.803 32.1827L499.803 25.366L501.334 25.366L501.334 22.1607L506.783 22.1607L506.783 20.5364L499.724 20.5364L499.724 22.1521L497.913 22.1521L497.913 23.7763L494.19 23.7763L494.19 32.2302L496.075 32.2302L496.075 33.8977L499.398 33.8977L499.398 35.5997L501.585 35.5997L501.585 44.14L504.94 44.14L504.94 42.641L503.102 42.641L503.102 39.103L504.992 39.103L504.992 37.3535L508.631 37.3535L508.631 35.591ZM526.813 23.772L523.09 23.772L523.09 22.1477L521.28 22.1477L521.28 20.5321L514.22 20.5321L514.22 22.1564L519.67 22.1564L519.67 25.3574L521.201 25.3574L521.201 32.1784L519.316 32.1784L519.316 33.8804L515.993 33.8804L515.993 35.5867L512.373 35.5867L512.373 37.3449L516.012 37.3449L516.012 39.0944L517.901 39.0944L517.901 42.6324L516.063 42.6324L516.063 44.1313L519.418 44.1313L519.418 35.591L521.606 35.591L521.606 33.889L524.928 33.889L524.928 32.2216L526.813 32.2216L526.813 23.7677L526.813 23.772Z" fill="#0C2D57"/>
<path d="M675.013 54.5248L675.013 57.8511L678.834 57.8511L678.834 64.7412L675.157 64.7412L675.157 66.3396L676.744 66.3396L676.744 71.3506L671.313 71.3506L671.313 69.9596L669.657 69.9596L669.657 71.3506L665.799 71.3506L665.799 69.9596L664.142 69.9596L664.142 71.3506L658.674 71.3506L658.674 66.3223L660.303 66.3223L660.303 64.7887L656.784 64.7887L656.784 57.7863L660.312 57.7863L660.312 54.3823L673.203 54.3823L673.203 50.9869L675.041 50.9869L675.041 49.1942L671.332 49.1942L671.332 47.4144L669.48 47.4144L669.48 46.0796L669.466 46.0796L669.466 45.7253L652.95 45.7253L652.95 44.0925L649.278 44.0925L649.278 42.3905L647.486 42.3905L647.486 30.472L647.477 30.472L647.477 28.8046L649.301 28.8046L649.301 27.0853L651.339 27.0853L651.339 25.3962L652.959 25.3962L652.959 18.6271L651.125 18.6271L651.125 17.1367L647.57 17.1367L647.57 18.6573L642.209 18.6573L642.209 20.4198L643.726 20.4198L643.726 22.1305L645.508 22.1305L645.508 30.4764L644.089 30.4764L644.089 32.1827L641.93 32.1827L641.93 37.4399L640.329 37.4399L640.329 40.6971L638.537 40.6971L638.537 45.9543L641.864 45.9543L641.864 47.6261L645.936 47.6261L645.936 49.2806L651.218 49.2806L651.218 52.6371L649.231 52.6371L649.231 54.6112L647.393 54.6112L647.393 56.3219L645.96 56.3219L645.96 57.7604L640.082 57.7604L640.082 56.3219L638.272 56.3219L638.272 54.6026L634.684 54.6026L634.684 52.8358L630.891 52.8358L630.891 54.581L629.416 54.581L629.416 57.8597L630.891 57.8597L630.891 59.4711L631.258 59.4711L631.258 59.484L632.669 59.484L632.669 61.2206L634.86 61.2206L634.86 62.9528L636.727 62.9528L636.727 64.6894L638.193 64.6894L638.193 66.5513L636.768 66.5513L636.768 67.9638L633.027 67.9638L633.027 69.6572L629.262 69.6572L629.262 67.9897L618.4 67.9897L618.4 69.6572L614.635 69.6572L614.635 67.9595L610.894 67.9595L610.894 66.5469L609.469 66.5469L609.469 64.6851L610.935 64.6851L610.935 62.9485L612.802 62.9485L612.802 61.2163L614.994 61.2163L614.994 59.4797L616.404 59.4797L616.404 59.4667L616.771 59.4667L616.771 57.8554L618.246 57.8554L618.246 54.5767L616.771 54.5767L616.771 52.8314L612.978 52.8314L612.978 54.5983L609.39 54.5983L609.39 56.3176L607.58 56.3176L607.58 57.7604L601.702 57.7604L601.702 56.3219L600.269 56.3219L600.269 54.6112L598.431 54.6112L598.431 52.6371L596.444 52.6371L596.444 49.2806L601.726 49.2806L601.726 47.6261L605.798 47.6261L605.798 45.9543L609.125 45.9543L609.125 40.6971L607.333 40.6971L607.333 37.4399L605.732 37.4399L605.732 32.1827L603.573 32.1827L603.573 30.4764L602.154 30.4763L602.154 22.1305L603.936 22.1305L603.936 20.4198L605.453 20.4198L605.453 18.653L600.092 18.653L600.092 17.1367L596.537 17.1367L596.537 18.6271L594.703 18.6271L594.703 25.3962L596.323 25.3962L596.323 27.0853L598.361 27.0853L598.361 28.8046L600.185 28.8046L600.185 30.472L600.176 30.472L600.176 42.3904L598.384 42.3904L598.384 44.0924L594.712 44.0924L594.712 45.7253L578.201 45.7253L578.201 46.0796L578.187 46.0796L578.187 47.4144L576.335 47.4144L576.335 49.1942L572.626 49.1942L572.626 50.9869L574.464 50.9869L574.464 54.3823L587.355 54.3823L587.355 57.7863L590.882 57.7863L590.882 64.7887L587.364 64.7887L587.364 66.3223L588.993 66.3223L588.993 71.3506L583.525 71.3506L583.525 69.9596L581.868 69.9596L581.868 71.3506L578.01 71.3506L578.01 69.9596L576.353 69.9596L576.353 71.3506L570.922 71.3506L570.922 66.3395L572.509 66.3395L572.509 64.7455L568.837 64.7455L568.837 57.8554L572.653 57.8554L572.653 54.5292L567.167 54.5292L567.167 50.9523L568.823 50.9523L568.823 50.9437L568.833 50.9437L568.833 44.1443L574.292 44.1443L574.292 40.7273L576.121 40.7273L576.121 39.2629L576.107 39.2629L576.107 39.0771L587.136 39.0771L587.136 39.0123L587.145 39.0123L587.145 37.5565L587.136 37.5565L587.136 37.5479L585.33 37.5479L585.33 33.9365L592.697 33.9365L592.697 29.0897L591.045 29.0897L591.045 30.485L583.469 30.485L583.469 28.8175L585.605 28.8175L585.605 27.1112L587.178 27.1112L587.178 23.9318L585.605 23.9318L585.605 18.7048L587.178 18.7048L587.178 15.4088L585.605 15.4088L585.605 11.9054L594.531 11.9054L594.531 8.48413L596.402 8.48413L596.402 6.76484L601.781 6.76484L601.781 3.58112L605.723 3.58112L605.723 11.9054L609.204 11.9054L609.204 13.6247L610.94 13.6247L610.94 8.60077L609.442 8.60077L609.442 5.04986L610.898 5.04986L610.898 3.58112L613.048 3.58112L613.048 -5.70026e-06L634.618 -3.87739e-06L634.618 3.58113L636.769 3.58113L636.769 5.04986L638.225 5.04986L638.225 8.60078L636.727 8.60078L636.727 13.6247L638.462 13.6247L638.462 11.9054L641.943 11.9054L641.943 3.58113L645.885 3.58113L645.885 6.76485L651.265 6.76485L651.265 8.48414L653.136 8.48414L653.136 11.9054L662.062 11.9054L662.062 15.4088L660.489 15.4088L660.489 18.7048L662.062 18.7048L662.062 23.9318L660.489 23.9318L660.489 27.1112L662.062 27.1112L662.062 28.8176L664.198 28.8176L664.198 30.485L656.621 30.485L656.621 29.0897L654.969 29.0897L654.969 33.9365L662.336 33.9365L662.336 37.5479L660.531 37.5479L660.531 37.5566L660.521 37.5566L660.521 39.0123L660.531 39.0123L660.531 39.0771L671.56 39.0771L671.56 39.2586L671.546 39.2586L671.546 40.7187L673.375 40.7187L673.375 44.14L678.834 44.14L678.834 50.9394L678.843 50.9394L678.843 50.948L680.5 50.948L680.5 54.5248L675.013 54.5248ZM621.965 35.591L618.344 35.591L618.344 33.8847L615.021 33.8847L615.021 32.1827L613.137 32.1827L613.137 25.366L614.668 25.366L614.668 22.1607L620.117 22.1607L620.117 20.5364L613.058 20.5364L613.058 22.1521L611.247 22.1521L611.247 23.7763L607.524 23.7763L607.524 32.2302L609.409 32.2302L609.409 33.8977L612.732 33.8977L612.732 35.5997L614.919 35.5997L614.919 44.14L618.274 44.14L618.274 42.641L616.436 42.641L616.436 39.103L618.326 39.103L618.326 37.3535L621.965 37.3535L621.965 35.591ZM640.147 23.772L636.424 23.772L636.424 22.1477L634.614 22.1477L634.614 20.5321L627.554 20.5321L627.554 22.1564L633.004 22.1564L633.004 25.3574L634.535 25.3574L634.535 32.1784L632.65 32.1784L632.65 33.8804L629.327 33.8804L629.327 35.5867L625.707 35.5867L625.707 37.3449L629.346 37.3449L629.346 39.0944L631.235 39.0944L631.235 42.6324L629.397 42.6324L629.397 44.1313L632.752 44.1313L632.752 35.591L634.94 35.591L634.94 33.889L638.262 33.889L638.262 32.2216L640.147 32.2216L640.147 23.7677L640.147 23.772Z" fill="#0C2D57"/>
<path d="M788.347 54.5248L788.347 57.8511L792.168 57.8511L792.168 64.7412L788.491 64.7412L788.491 66.3396L790.078 66.3396L790.078 71.3506L784.647 71.3506L784.647 69.9596L782.991 69.9596L782.991 71.3506L779.133 71.3506L779.133 69.9596L777.476 69.9596L777.476 71.3506L772.008 71.3506L772.008 66.3223L773.637 66.3223L773.637 64.7887L770.118 64.7887L770.118 57.7863L773.646 57.7863L773.646 54.3823L786.537 54.3823L786.537 50.9869L788.375 50.9869L788.375 49.1942L784.666 49.1942L784.666 47.4144L782.814 47.4144L782.814 46.0796L782.8 46.0796L782.8 45.7253L766.284 45.7253L766.284 44.0925L762.612 44.0925L762.612 42.3905L760.82 42.3905L760.82 30.472L760.811 30.472L760.811 28.8046L762.635 28.8046L762.635 27.0853L764.673 27.0853L764.673 25.3962L766.293 25.3962L766.293 18.6271L764.459 18.6271L764.459 17.1367L760.904 17.1367L760.904 18.6573L755.543 18.6573L755.543 20.4198L757.06 20.4198L757.06 22.1305L758.842 22.1305L758.842 30.4764L757.423 30.4764L757.423 32.1827L755.264 32.1827L755.264 37.4399L753.663 37.4399L753.663 40.6971L751.871 40.6971L751.871 45.9543L755.198 45.9543L755.198 47.6261L759.27 47.6261L759.27 49.2806L764.552 49.2806L764.552 52.6371L762.565 52.6371L762.565 54.6112L760.727 54.6112L760.727 56.3219L759.294 56.3219L759.294 57.7604L753.416 57.7604L753.416 56.3219L751.606 56.3219L751.606 54.6026L748.018 54.6026L748.018 52.8358L744.225 52.8358L744.225 54.581L742.75 54.581L742.75 57.8597L744.225 57.8597L744.225 59.4711L744.592 59.4711L744.592 59.484L746.003 59.484L746.003 61.2206L748.194 61.2206L748.194 62.9528L750.061 62.9528L750.061 64.6894L751.527 64.6894L751.527 66.5513L750.102 66.5513L750.102 67.9638L746.361 67.9638L746.361 69.6572L742.596 69.6572L742.596 67.9897L731.734 67.9897L731.734 69.6572L727.969 69.6572L727.969 67.9595L724.228 67.9595L724.228 66.5469L722.803 66.5469L722.803 64.6851L724.269 64.6851L724.269 62.9485L726.136 62.9485L726.136 61.2163L728.327 61.2163L728.327 59.4797L729.738 59.4797L729.738 59.4667L730.105 59.4667L730.105 57.8554L731.58 57.8554L731.58 54.5767L730.105 54.5767L730.105 52.8314L726.312 52.8314L726.312 54.5983L722.724 54.5983L722.724 56.3176L720.914 56.3176L720.914 57.7604L715.036 57.7604L715.036 56.3219L713.603 56.3219L713.603 54.6112L711.765 54.6112L711.765 52.6371L709.778 52.6371L709.778 49.2806L715.06 49.2806L715.06 47.6261L719.132 47.6261L719.132 45.9543L722.459 45.9543L722.459 40.6971L720.667 40.6971L720.667 37.4399L719.066 37.4399L719.066 32.1827L716.907 32.1827L716.907 30.4764L715.488 30.4763L715.488 22.1305L717.27 22.1305L717.27 20.4198L718.787 20.4198L718.787 18.653L713.426 18.653L713.426 17.1367L709.871 17.1367L709.871 18.6271L708.037 18.6271L708.037 25.3962L709.657 25.3962L709.657 27.0853L711.695 27.0853L711.695 28.8046L713.519 28.8046L713.519 30.472L713.51 30.472L713.51 42.3904L711.718 42.3904L711.718 44.0924L708.046 44.0924L708.046 45.7253L691.535 45.7253L691.535 46.0796L691.521 46.0796L691.521 47.4144L689.669 47.4144L689.669 49.1942L685.96 49.1942L685.96 50.9869L687.798 50.9869L687.798 54.3823L700.689 54.3823L700.689 57.7863L704.216 57.7863L704.216 64.7887L700.698 64.7887L700.698 66.3223L702.327 66.3223L702.327 71.3506L696.859 71.3506L696.859 69.9596L695.202 69.9596L695.202 71.3506L691.344 71.3506L691.344 69.9596L689.687 69.9596L689.687 71.3506L684.256 71.3506L684.256 66.3395L685.843 66.3395L685.843 64.7455L682.171 64.7455L682.171 57.8554L685.987 57.8554L685.987 54.5292L680.501 54.5292L680.501 50.9523L682.157 50.9523L682.157 50.9437L682.167 50.9437L682.167 44.1443L687.626 44.1443L687.626 40.7273L689.455 40.7273L689.455 39.2629L689.441 39.2629L689.441 39.0771L700.47 39.0771L700.47 39.0123L700.479 39.0123L700.479 37.5565L700.47 37.5565L700.47 37.5479L698.664 37.5479L698.664 33.9365L706.031 33.9365L706.031 29.0897L704.379 29.0897L704.379 30.485L696.803 30.485L696.803 28.8175L698.939 28.8175L698.939 27.1112L700.512 27.1112L700.512 23.9318L698.939 23.9318L698.939 18.7048L700.512 18.7048L700.512 15.4088L698.939 15.4088L698.939 11.9054L707.865 11.9054L707.865 8.48413L709.736 8.48413L709.736 6.76484L715.115 6.76484L715.115 3.58112L719.057 3.58112L719.057 11.9054L722.538 11.9054L722.538 13.6247L724.274 13.6247L724.274 8.60077L722.776 8.60077L722.776 5.04986L724.232 5.04986L724.232 3.58112L726.382 3.58112L726.382 -5.70026e-06L747.952 -3.87739e-06L747.952 3.58113L750.103 3.58113L750.103 5.04986L751.559 5.04986L751.559 8.60078L750.061 8.60078L750.061 13.6247L751.796 13.6247L751.796 11.9054L755.277 11.9054L755.277 3.58113L759.219 3.58113L759.219 6.76485L764.599 6.76485L764.599 8.48414L766.47 8.48414L766.47 11.9054L775.396 11.9054L775.396 15.4088L773.823 15.4088L773.823 18.7048L775.396 18.7048L775.396 23.9318L773.823 23.9318L773.823 27.1112L775.396 27.1112L775.396 28.8176L777.532 28.8176L777.532 30.485L769.955 30.485L769.955 29.0897L768.303 29.0897L768.303 33.9365L775.67 33.9365L775.67 37.5479L773.865 37.5479L773.865 37.5566L773.855 37.5566L773.855 39.0123L773.865 39.0123L773.865 39.0771L784.894 39.0771L784.894 39.2586L784.88 39.2586L784.88 40.7187L786.709 40.7187L786.709 44.14L792.168 44.14L792.168 50.9394L792.177 50.9394L792.177 50.948L793.834 50.948L793.834 54.5248L788.347 54.5248ZM735.299 35.591L731.678 35.591L731.678 33.8847L728.355 33.8847L728.355 32.1827L726.471 32.1827L726.471 25.366L728.002 25.366L728.002 22.1607L733.451 22.1607L733.451 20.5364L726.392 20.5364L726.392 22.1521L724.581 22.1521L724.581 23.7763L720.858 23.7763L720.858 32.2302L722.743 32.2302L722.743 33.8977L726.066 33.8977L726.066 35.5997L728.253 35.5997L728.253 44.14L731.608 44.14L731.608 42.641L729.77 42.641L729.77 39.103L731.66 39.103L731.66 37.3535L735.299 37.3535L735.299 35.591ZM753.481 23.772L749.758 23.772L749.758 22.1477L747.948 22.1477L747.948 20.5321L740.888 20.5321L740.888 22.1564L746.338 22.1564L746.338 25.3574L747.869 25.3574L747.869 32.1784L745.984 32.1784L745.984 33.8804L742.661 33.8804L742.661 35.5867L739.04 35.5867L739.04 37.3449L742.68 37.3449L742.68 39.0944L744.569 39.0944L744.569 42.6324L742.731 42.6324L742.731 44.1313L746.086 44.1313L746.086 35.591L748.274 35.591L748.274 33.889L751.596 33.889L751.596 32.2216L753.481 32.2216L753.481 23.7677L753.481 23.772Z" fill="#0C2D57"/>
<path d="M901.681 54.5248L901.681 57.8511L905.502 57.8511L905.502 64.7412L901.825 64.7412L901.825 66.3396L903.412 66.3396L903.412 71.3506L897.981 71.3506L897.981 69.9596L896.325 69.9596L896.325 71.3506L892.467 71.3506L892.467 69.9596L890.81 69.9596L890.81 71.3506L885.342 71.3506L885.342 66.3223L886.971 66.3223L886.971 64.7887L883.452 64.7887L883.452 57.7863L886.98 57.7863L886.98 54.3823L899.871 54.3823L899.871 50.9869L901.709 50.9869L901.709 49.1942L898 49.1942L898 47.4144L896.148 47.4144L896.148 46.0796L896.134 46.0796L896.134 45.7253L879.618 45.7253L879.618 44.0925L875.946 44.0925L875.946 42.3905L874.154 42.3905L874.154 30.472L874.145 30.472L874.145 28.8046L875.969 28.8046L875.969 27.0853L878.007 27.0853L878.007 25.3962L879.627 25.3962L879.627 18.6271L877.793 18.6271L877.793 17.1367L874.238 17.1367L874.238 18.6573L868.877 18.6573L868.877 20.4198L870.394 20.4198L870.394 22.1305L872.176 22.1305L872.176 30.4764L870.757 30.4764L870.757 32.1827L868.598 32.1827L868.598 37.4399L866.997 37.4399L866.997 40.6971L865.205 40.6971L865.205 45.9543L868.532 45.9543L868.532 47.6261L872.604 47.6261L872.604 49.2806L877.886 49.2806L877.886 52.6371L875.899 52.6371L875.899 54.6112L874.061 54.6112L874.061 56.3219L872.628 56.3219L872.628 57.7604L866.75 57.7604L866.75 56.3219L864.94 56.3219L864.94 54.6026L861.352 54.6026L861.352 52.8358L857.559 52.8358L857.559 54.581L856.083 54.581L856.083 57.8597L857.559 57.8597L857.559 59.4711L857.926 59.4711L857.926 59.484L859.337 59.484L859.337 61.2206L861.528 61.2206L861.528 62.9528L863.395 62.9528L863.395 64.6894L864.861 64.6894L864.861 66.5513L863.436 66.5513L863.436 67.9638L859.695 67.9638L859.695 69.6572L855.93 69.6572L855.93 67.9897L845.068 67.9897L845.068 69.6572L841.303 69.6572L841.303 67.9595L837.561 67.9595L837.561 66.5469L836.137 66.5469L836.137 64.6851L837.603 64.6851L837.603 62.9485L839.47 62.9485L839.47 61.2163L841.661 61.2163L841.661 59.4797L843.072 59.4797L843.072 59.4667L843.439 59.4667L843.439 57.8554L844.914 57.8554L844.914 54.5767L843.439 54.5767L843.439 52.8314L839.646 52.8314L839.646 54.5983L836.058 54.5983L836.058 56.3176L834.248 56.3176L834.248 57.7604L828.37 57.7604L828.37 56.3219L826.937 56.3219L826.937 54.6112L825.099 54.6112L825.099 52.6371L823.112 52.6371L823.112 49.2806L828.394 49.2806L828.394 47.6261L832.466 47.6261L832.466 45.9543L835.793 45.9543L835.793 40.6971L834.001 40.6971L834.001 37.4399L832.4 37.4399L832.4 32.1827L830.241 32.1827L830.241 30.4764L828.822 30.4763L828.822 22.1305L830.604 22.1305L830.604 20.4198L832.121 20.4198L832.121 18.653L826.76 18.653L826.76 17.1367L823.205 17.1367L823.205 18.6271L821.371 18.6271L821.371 25.3962L822.991 25.3962L822.991 27.0853L825.029 27.0853L825.029 28.8046L826.853 28.8046L826.853 30.472L826.844 30.472L826.844 42.3904L825.052 42.3904L825.052 44.0924L821.38 44.0924L821.38 45.7253L804.869 45.7253L804.869 46.0796L804.855 46.0796L804.855 47.4144L803.003 47.4144L803.003 49.1942L799.294 49.1942L799.294 50.9869L801.132 50.9869L801.132 54.3823L814.023 54.3823L814.023 57.7863L817.55 57.7863L817.55 64.7887L814.032 64.7887L814.032 66.3223L815.661 66.3223L815.661 71.3506L810.193 71.3506L810.193 69.9596L808.536 69.9596L808.536 71.3506L804.678 71.3506L804.678 69.9596L803.021 69.9596L803.021 71.3506L797.59 71.3506L797.59 66.3395L799.177 66.3395L799.177 64.7455L795.505 64.7455L795.505 57.8554L799.321 57.8554L799.321 54.5292L793.835 54.5292L793.835 50.9523L795.491 50.9523L795.491 50.9437L795.501 50.9437L795.501 44.1443L800.96 44.1443L800.96 40.7273L802.789 40.7273L802.789 39.2629L802.775 39.2629L802.775 39.0771L813.804 39.0771L813.804 39.0123L813.813 39.0123L813.813 37.5565L813.804 37.5565L813.804 37.5479L811.998 37.5479L811.998 33.9365L819.365 33.9365L819.365 29.0897L817.713 29.0897L817.713 30.485L810.137 30.485L810.137 28.8175L812.273 28.8175L812.273 27.1112L813.846 27.1112L813.846 23.9318L812.273 23.9318L812.273 18.7048L813.846 18.7048L813.846 15.4088L812.273 15.4088L812.273 11.9054L821.199 11.9054L821.199 8.48413L823.07 8.48413L823.07 6.76484L828.449 6.76484L828.449 3.58112L832.391 3.58112L832.391 11.9054L835.872 11.9054L835.872 13.6247L837.608 13.6247L837.608 8.60077L836.11 8.60077L836.11 5.04986L837.566 5.04986L837.566 3.58112L839.716 3.58112L839.716 -5.70026e-06L861.286 -3.87739e-06L861.286 3.58113L863.436 3.58113L863.436 5.04986L864.893 5.04986L864.893 8.60078L863.395 8.60078L863.395 13.6247L865.13 13.6247L865.13 11.9054L868.611 11.9054L868.611 3.58113L872.553 3.58113L872.553 6.76485L877.933 6.76485L877.933 8.48414L879.804 8.48414L879.804 11.9054L888.73 11.9054L888.73 15.4088L887.157 15.4088L887.157 18.7048L888.73 18.7048L888.73 23.9318L887.157 23.9318L887.157 27.1112L888.73 27.1112L888.73 28.8176L890.866 28.8176L890.866 30.485L883.289 30.485L883.289 29.0897L881.637 29.0897L881.637 33.9365L889.004 33.9365L889.004 37.5479L887.199 37.5479L887.199 37.5566L887.189 37.5566L887.189 39.0123L887.199 39.0123L887.199 39.0771L898.228 39.0771L898.228 39.2586L898.214 39.2586L898.214 40.7187L900.043 40.7187L900.043 44.14L905.502 44.14L905.502 50.9394L905.511 50.9394L905.511 50.948L907.168 50.948L907.168 54.5248L901.681 54.5248ZM848.633 35.591L845.012 35.591L845.012 33.8847L841.689 33.8847L841.689 32.1827L839.805 32.1827L839.805 25.366L841.336 25.366L841.336 22.1607L846.785 22.1607L846.785 20.5364L839.726 20.5364L839.726 22.1521L837.915 22.1521L837.915 23.7763L834.192 23.7763L834.192 32.2302L836.077 32.2302L836.077 33.8977L839.4 33.8977L839.4 35.5997L841.587 35.5997L841.587 44.14L844.942 44.14L844.942 42.641L843.104 42.641L843.104 39.103L844.994 39.103L844.994 37.3535L848.633 37.3535L848.633 35.591ZM866.815 23.772L863.092 23.772L863.092 22.1477L861.282 22.1477L861.282 20.5321L854.222 20.5321L854.222 22.1564L859.672 22.1564L859.672 25.3574L861.203 25.3574L861.203 32.1784L859.318 32.1784L859.318 33.8804L855.995 33.8804L855.995 35.5867L852.374 35.5867L852.374 37.3449L856.014 37.3449L856.014 39.0944L857.903 39.0944L857.903 42.6324L856.065 42.6324L856.065 44.1313L859.42 44.1313L859.42 35.591L861.608 35.591L861.608 33.889L864.93 33.889L864.93 32.2216L866.815 32.2216L866.815 23.7677L866.815 23.772Z" fill="#0C2D57"/>
<path d="M1015.01 54.5248L1015.01 57.8511L1018.83 57.8511L1018.83 64.7412L1015.16 64.7412L1015.16 66.3396L1016.74 66.3396L1016.74 71.3506L1011.31 71.3506L1011.31 69.9596L1009.66 69.9596L1009.66 71.3506L1005.8 71.3506L1005.8 69.9596L1004.14 69.9596L1004.14 71.3506L998.674 71.3506L998.674 66.3223L1000.3 66.3223L1000.3 64.7887L996.784 64.7887L996.784 57.7863L1000.31 57.7863L1000.31 54.3823L1013.2 54.3823L1013.2 50.9869L1015.04 50.9869L1015.04 49.1942L1011.33 49.1942L1011.33 47.4144L1009.48 47.4144L1009.48 46.0796L1009.47 46.0796L1009.47 45.7253L992.95 45.7253L992.95 44.0925L989.278 44.0925L989.278 42.3905L987.486 42.3905L987.486 30.472L987.477 30.472L987.477 28.8046L989.301 28.8046L989.301 27.0853L991.339 27.0853L991.339 25.3962L992.959 25.3962L992.959 18.6271L991.125 18.6271L991.125 17.1367L987.57 17.1367L987.57 18.6573L982.209 18.6573L982.209 20.4198L983.726 20.4198L983.726 22.1305L985.508 22.1305L985.508 30.4764L984.089 30.4764L984.089 32.1827L981.93 32.1827L981.93 37.4399L980.329 37.4399L980.329 40.6971L978.537 40.6971L978.537 45.9543L981.864 45.9543L981.864 47.6261L985.936 47.6261L985.936 49.2806L991.218 49.2806L991.218 52.6371L989.231 52.6371L989.231 54.6112L987.393 54.6112L987.393 56.3219L985.96 56.3219L985.96 57.7604L980.082 57.7604L980.082 56.3219L978.272 56.3219L978.272 54.6026L974.684 54.6026L974.684 52.8358L970.891 52.8358L970.891 54.581L969.416 54.581L969.416 57.8597L970.891 57.8597L970.891 59.4711L971.258 59.4711L971.258 59.484L972.669 59.484L972.669 61.2206L974.86 61.2206L974.86 62.9528L976.727 62.9528L976.727 64.6894L978.193 64.6894L978.193 66.5513L976.768 66.5513L976.768 67.9638L973.027 67.9638L973.027 69.6572L969.262 69.6572L969.262 67.9897L958.4 67.9897L958.4 69.6572L954.635 69.6572L954.635 67.9595L950.894 67.9595L950.894 66.5469L949.469 66.5469L949.469 64.6851L950.935 64.6851L950.935 62.9485L952.802 62.9485L952.802 61.2163L954.994 61.2163L954.994 59.4797L956.404 59.4797L956.404 59.4667L956.771 59.4667L956.771 57.8554L958.246 57.8554L958.246 54.5767L956.771 54.5767L956.771 52.8314L952.978 52.8314L952.978 54.5983L949.39 54.5983L949.39 56.3176L947.58 56.3176L947.58 57.7604L941.702 57.7604L941.702 56.3219L940.269 56.3219L940.269 54.6112L938.431 54.6112L938.431 52.6371L936.444 52.6371L936.444 49.2806L941.726 49.2806L941.726 47.6261L945.798 47.6261L945.798 45.9543L949.125 45.9543L949.125 40.6971L947.333 40.6971L947.333 37.4399L945.732 37.4399L945.732 32.1827L943.573 32.1827L943.573 30.4764L942.154 30.4763L942.154 22.1305L943.936 22.1305L943.936 20.4198L945.453 20.4198L945.453 18.653L940.092 18.653L940.092 17.1367L936.537 17.1367L936.537 18.6271L934.703 18.6271L934.703 25.3962L936.323 25.3962L936.323 27.0853L938.361 27.0853L938.361 28.8046L940.185 28.8046L940.185 30.472L940.176 30.472L940.176 42.3904L938.384 42.3904L938.384 44.0924L934.712 44.0924L934.712 45.7253L918.201 45.7253L918.201 46.0796L918.187 46.0796L918.187 47.4144L916.335 47.4144L916.335 49.1942L912.626 49.1942L912.626 50.9869L914.464 50.9869L914.464 54.3823L927.355 54.3823L927.355 57.7863L930.882 57.7863L930.882 64.7887L927.364 64.7887L927.364 66.3223L928.993 66.3223L928.993 71.3506L923.525 71.3506L923.525 69.9596L921.868 69.9596L921.868 71.3506L918.01 71.3506L918.01 69.9596L916.353 69.9596L916.353 71.3506L910.922 71.3506L910.922 66.3395L912.509 66.3395L912.509 64.7455L908.837 64.7455L908.837 57.8554L912.653 57.8554L912.653 54.5292L907.167 54.5292L907.167 50.9523L908.823 50.9523L908.823 50.9437L908.833 50.9437L908.833 44.1443L914.292 44.1443L914.292 40.7273L916.121 40.7273L916.121 39.2629L916.107 39.2629L916.107 39.0771L927.136 39.0771L927.136 39.0123L927.145 39.0123L927.145 37.5565L927.136 37.5565L927.136 37.5479L925.33 37.5479L925.33 33.9365L932.697 33.9365L932.697 29.0897L931.045 29.0897L931.045 30.485L923.469 30.485L923.469 28.8175L925.605 28.8175L925.605 27.1112L927.178 27.1112L927.178 23.9318L925.605 23.9318L925.605 18.7048L927.178 18.7048L927.178 15.4088L925.605 15.4088L925.605 11.9054L934.531 11.9054L934.531 8.48413L936.402 8.48413L936.402 6.76484L941.781 6.76484L941.781 3.58112L945.723 3.58112L945.723 11.9054L949.204 11.9054L949.204 13.6247L950.94 13.6247L950.94 8.60077L949.442 8.60077L949.442 5.04986L950.898 5.04986L950.898 3.58112L953.048 3.58112L953.048 -5.70026e-06L974.618 -3.87739e-06L974.618 3.58113L976.769 3.58113L976.769 5.04986L978.225 5.04986L978.225 8.60078L976.727 8.60078L976.727 13.6247L978.462 13.6247L978.462 11.9054L981.943 11.9054L981.943 3.58113L985.885 3.58113L985.885 6.76485L991.265 6.76485L991.265 8.48414L993.136 8.48414L993.136 11.9054L1002.06 11.9054L1002.06 15.4088L1000.49 15.4088L1000.49 18.7048L1002.06 18.7048L1002.06 23.9318L1000.49 23.9318L1000.49 27.1112L1002.06 27.1112L1002.06 28.8176L1004.2 28.8176L1004.2 30.485L996.621 30.485L996.621 29.0897L994.969 29.0897L994.969 33.9365L1002.34 33.9365L1002.34 37.5479L1000.53 37.5479L1000.53 37.5566L1000.52 37.5566L1000.52 39.0123L1000.53 39.0123L1000.53 39.0771L1011.56 39.0771L1011.56 39.2586L1011.55 39.2586L1011.55 40.7187L1013.38 40.7187L1013.38 44.14L1018.83 44.14L1018.83 50.9394L1018.84 50.9394L1018.84 50.948L1020.5 50.948L1020.5 54.5248L1015.01 54.5248ZM961.965 35.591L958.344 35.591L958.344 33.8847L955.021 33.8847L955.021 32.1827L953.137 32.1827L953.137 25.366L954.668 25.366L954.668 22.1607L960.117 22.1607L960.117 20.5364L953.058 20.5364L953.058 22.1521L951.247 22.1521L951.247 23.7763L947.524 23.7763L947.524 32.2302L949.409 32.2302L949.409 33.8977L952.732 33.8977L952.732 35.5997L954.919 35.5997L954.919 44.14L958.274 44.14L958.274 42.641L956.436 42.641L956.436 39.103L958.326 39.103L958.326 37.3535L961.965 37.3535L961.965 35.591ZM980.147 23.772L976.424 23.772L976.424 22.1477L974.614 22.1477L974.614 20.5321L967.554 20.5321L967.554 22.1564L973.004 22.1564L973.004 25.3574L974.535 25.3574L974.535 32.1784L972.65 32.1784L972.65 33.8804L969.327 33.8804L969.327 35.5867L965.707 35.5867L965.707 37.3449L969.346 37.3449L969.346 39.0944L971.235 39.0944L971.235 42.6324L969.397 42.6324L969.397 44.1313L972.752 44.1313L972.752 35.591L974.94 35.591L974.94 33.889L978.262 33.889L978.262 32.2216L980.147 32.2216L980.147 23.7677L980.147 23.772Z" fill="#0C2D57"/>
<path d="M1128.35 54.5248L1128.35 57.8511L1132.17 57.8511L1132.17 64.7412L1128.49 64.7412L1128.49 66.3396L1130.08 66.3396L1130.08 71.3506L1124.65 71.3506L1124.65 69.9596L1122.99 69.9596L1122.99 71.3506L1119.13 71.3506L1119.13 69.9596L1117.47 69.9596L1117.47 71.3506L1112.01 71.3506L1112.01 66.3223L1113.63 66.3223L1113.63 64.7887L1110.12 64.7887L1110.12 57.7863L1113.64 57.7863L1113.64 54.3823L1126.53 54.3823L1126.53 50.9869L1128.37 50.9869L1128.37 49.1942L1124.66 49.1942L1124.66 47.4144L1122.81 47.4144L1122.81 46.0796L1122.8 46.0796L1122.8 45.7253L1106.28 45.7253L1106.28 44.0925L1102.61 44.0925L1102.61 42.3905L1100.82 42.3905L1100.82 30.472L1100.81 30.472L1100.81 28.8046L1102.63 28.8046L1102.63 27.0853L1104.67 27.0853L1104.67 25.3962L1106.29 25.3962L1106.29 18.6271L1104.46 18.6271L1104.46 17.1367L1100.9 17.1367L1100.9 18.6573L1095.54 18.6573L1095.54 20.4198L1097.06 20.4198L1097.06 22.1305L1098.84 22.1305L1098.84 30.4764L1097.42 30.4764L1097.42 32.1827L1095.26 32.1827L1095.26 37.4399L1093.66 37.4399L1093.66 40.6971L1091.87 40.6971L1091.87 45.9543L1095.2 45.9543L1095.2 47.6261L1099.27 47.6261L1099.27 49.2806L1104.55 49.2806L1104.55 52.6371L1102.56 52.6371L1102.56 54.6112L1100.73 54.6112L1100.73 56.3219L1099.29 56.3219L1099.29 57.7604L1093.41 57.7604L1093.41 56.3219L1091.6 56.3219L1091.6 54.6026L1088.02 54.6026L1088.02 52.8358L1084.22 52.8358L1084.22 54.581L1082.75 54.581L1082.75 57.8597L1084.22 57.8597L1084.22 59.4711L1084.59 59.4711L1084.59 59.484L1086 59.484L1086 61.2206L1088.19 61.2206L1088.19 62.9528L1090.06 62.9528L1090.06 64.6894L1091.52 64.6894L1091.52 66.5513L1090.1 66.5513L1090.1 67.9638L1086.36 67.9638L1086.36 69.6572L1082.59 69.6572L1082.59 67.9897L1071.73 67.9897L1071.73 69.6572L1067.97 69.6572L1067.97 67.9595L1064.23 67.9595L1064.23 66.5469L1062.8 66.5469L1062.8 64.6851L1064.27 64.6851L1064.27 62.9485L1066.13 62.9485L1066.13 61.2163L1068.33 61.2163L1068.33 59.4797L1069.74 59.4797L1069.74 59.4667L1070.1 59.4667L1070.1 57.8554L1071.58 57.8554L1071.58 54.5767L1070.1 54.5767L1070.1 52.8314L1066.31 52.8314L1066.31 54.5983L1062.72 54.5983L1062.72 56.3176L1060.91 56.3176L1060.91 57.7604L1055.03 57.7604L1055.03 56.3219L1053.6 56.3219L1053.6 54.6112L1051.76 54.6112L1051.76 52.6371L1049.78 52.6371L1049.78 49.2806L1055.06 49.2806L1055.06 47.6261L1059.13 47.6261L1059.13 45.9543L1062.46 45.9543L1062.46 40.6971L1060.67 40.6971L1060.67 37.4399L1059.06 37.4399L1059.06 32.1827L1056.91 32.1827L1056.91 30.4764L1055.49 30.4763L1055.49 22.1305L1057.27 22.1305L1057.27 20.4198L1058.79 20.4198L1058.79 18.653L1053.42 18.653L1053.42 17.1367L1049.87 17.1367L1049.87 18.6271L1048.04 18.6271L1048.04 25.3962L1049.65 25.3962L1049.65 27.0853L1051.69 27.0853L1051.69 28.8046L1053.52 28.8046L1053.52 30.472L1053.51 30.472L1053.51 42.3904L1051.72 42.3904L1051.72 44.0924L1048.04 44.0924L1048.04 45.7253L1031.53 45.7253L1031.53 46.0796L1031.52 46.0796L1031.52 47.4144L1029.67 47.4144L1029.67 49.1942L1025.96 49.1942L1025.96 50.9869L1027.8 50.9869L1027.8 54.3823L1040.69 54.3823L1040.69 57.7863L1044.21 57.7863L1044.21 64.7887L1040.7 64.7887L1040.7 66.3223L1042.32 66.3223L1042.32 71.3506L1036.86 71.3506L1036.86 69.9596L1035.2 69.9596L1035.2 71.3506L1031.34 71.3506L1031.34 69.9596L1029.69 69.9596L1029.69 71.3506L1024.25 71.3506L1024.25 66.3395L1025.84 66.3395L1025.84 64.7455L1022.17 64.7455L1022.17 57.8554L1025.99 57.8554L1025.99 54.5292L1020.5 54.5292L1020.5 50.9523L1022.16 50.9523L1022.16 50.9437L1022.16 50.9437L1022.16 44.1443L1027.62 44.1443L1027.62 40.7273L1029.45 40.7273L1029.45 39.2629L1029.44 39.2629L1029.44 39.0771L1040.47 39.0771L1040.47 39.0123L1040.48 39.0123L1040.48 37.5565L1040.47 37.5565L1040.47 37.5479L1038.66 37.5479L1038.66 33.9365L1046.03 33.9365L1046.03 29.0897L1044.38 29.0897L1044.38 30.485L1036.8 30.485L1036.8 28.8175L1038.94 28.8175L1038.94 27.1112L1040.51 27.1112L1040.51 23.9318L1038.94 23.9318L1038.94 18.7048L1040.51 18.7048L1040.51 15.4088L1038.94 15.4088L1038.94 11.9054L1047.86 11.9054L1047.86 8.48413L1049.73 8.48413L1049.73 6.76484L1055.11 6.76484L1055.11 3.58112L1059.06 3.58112L1059.06 11.9054L1062.54 11.9054L1062.54 13.6247L1064.27 13.6247L1064.27 8.60077L1062.77 8.60077L1062.77 5.04986L1064.23 5.04986L1064.23 3.58112L1066.38 3.58112L1066.38 -5.70026e-06L1087.95 -3.87739e-06L1087.95 3.58113L1090.1 3.58113L1090.1 5.04986L1091.56 5.04986L1091.56 8.60078L1090.06 8.60078L1090.06 13.6247L1091.79 13.6247L1091.79 11.9054L1095.28 11.9054L1095.28 3.58113L1099.22 3.58113L1099.22 6.76485L1104.6 6.76485L1104.6 8.48414L1106.47 8.48414L1106.47 11.9054L1115.39 11.9054L1115.39 15.4088L1113.82 15.4088L1113.82 18.7048L1115.39 18.7048L1115.39 23.9318L1113.82 23.9318L1113.82 27.1112L1115.39 27.1112L1115.39 28.8176L1117.53 28.8176L1117.53 30.485L1109.95 30.485L1109.95 29.0897L1108.3 29.0897L1108.3 33.9365L1115.67 33.9365L1115.67 37.5479L1113.86 37.5479L1113.86 37.5566L1113.85 37.5566L1113.85 39.0123L1113.86 39.0123L1113.86 39.0771L1124.89 39.0771L1124.89 39.2586L1124.88 39.2586L1124.88 40.7187L1126.71 40.7187L1126.71 44.14L1132.17 44.14L1132.17 50.9394L1132.18 50.9394L1132.18 50.948L1133.83 50.948L1133.83 54.5248L1128.35 54.5248ZM1075.3 35.591L1071.68 35.591L1071.68 33.8847L1068.35 33.8847L1068.35 32.1827L1066.47 32.1827L1066.47 25.366L1068 25.366L1068 22.1607L1073.45 22.1607L1073.45 20.5364L1066.39 20.5364L1066.39 22.1521L1064.58 22.1521L1064.58 23.7763L1060.86 23.7763L1060.86 32.2302L1062.74 32.2302L1062.74 33.8977L1066.06 33.8977L1066.06 35.5997L1068.25 35.5997L1068.25 44.14L1071.61 44.14L1071.61 42.641L1069.77 42.641L1069.77 39.103L1071.66 39.103L1071.66 37.3535L1075.3 37.3535L1075.3 35.591ZM1093.48 23.772L1089.76 23.772L1089.76 22.1477L1087.95 22.1477L1087.95 20.5321L1080.89 20.5321L1080.89 22.1564L1086.34 22.1564L1086.34 25.3574L1087.87 25.3574L1087.87 32.1784L1085.98 32.1784L1085.98 33.8804L1082.66 33.8804L1082.66 35.5867L1079.04 35.5867L1079.04 37.3449L1082.68 37.3449L1082.68 39.0944L1084.57 39.0944L1084.57 42.6324L1082.73 42.6324L1082.73 44.1313L1086.08 44.1313L1086.08 35.591L1088.27 35.591L1088.27 33.889L1091.59 33.889L1091.59 32.2216L1093.48 32.2216L1093.48 23.7677L1093.48 23.772Z" fill="#0C2D57"/>
<path d="M1241.68 54.5248L1241.68 57.8511L1245.5 57.8511L1245.5 64.7412L1241.82 64.7412L1241.82 66.3396L1243.41 66.3396L1243.41 71.3506L1237.98 71.3506L1237.98 69.9596L1236.32 69.9596L1236.32 71.3506L1232.46 71.3506L1232.46 69.9596L1230.81 69.9596L1230.81 71.3506L1225.34 71.3506L1225.34 66.3223L1226.97 66.3223L1226.97 64.7887L1223.45 64.7887L1223.45 57.7863L1226.98 57.7863L1226.98 54.3823L1239.87 54.3823L1239.87 50.9869L1241.71 50.9869L1241.71 49.1942L1238 49.1942L1238 47.4144L1236.15 47.4144L1236.15 46.0796L1236.13 46.0796L1236.13 45.7253L1219.62 45.7253L1219.62 44.0925L1215.94 44.0925L1215.94 42.3905L1214.15 42.3905L1214.15 30.472L1214.14 30.472L1214.14 28.8046L1215.97 28.8046L1215.97 27.0853L1218.01 27.0853L1218.01 25.3962L1219.63 25.3962L1219.63 18.6271L1217.79 18.6271L1217.79 17.1367L1214.24 17.1367L1214.24 18.6573L1208.87 18.6573L1208.87 20.4198L1210.39 20.4198L1210.39 22.1305L1212.17 22.1305L1212.17 30.4764L1210.75 30.4764L1210.75 32.1827L1208.6 32.1827L1208.6 37.4399L1206.99 37.4399L1206.99 40.6971L1205.2 40.6971L1205.2 45.9543L1208.53 45.9543L1208.53 47.6261L1212.6 47.6261L1212.6 49.2806L1217.88 49.2806L1217.88 52.6371L1215.9 52.6371L1215.9 54.6112L1214.06 54.6112L1214.06 56.3219L1212.63 56.3219L1212.63 57.7604L1206.75 57.7604L1206.75 56.3219L1204.94 56.3219L1204.94 54.6026L1201.35 54.6026L1201.35 52.8358L1197.56 52.8358L1197.56 54.581L1196.08 54.581L1196.08 57.8597L1197.56 57.8597L1197.56 59.4711L1197.92 59.4711L1197.92 59.484L1199.33 59.484L1199.33 61.2206L1201.53 61.2206L1201.53 62.9528L1203.39 62.9528L1203.39 64.6894L1204.86 64.6894L1204.86 66.5513L1203.43 66.5513L1203.43 67.9638L1199.69 67.9638L1199.69 69.6572L1195.93 69.6572L1195.93 67.9897L1185.07 67.9897L1185.07 69.6572L1181.3 69.6572L1181.3 67.9595L1177.56 67.9595L1177.56 66.5469L1176.14 66.5469L1176.14 64.6851L1177.6 64.6851L1177.6 62.9485L1179.47 62.9485L1179.47 61.2163L1181.66 61.2163L1181.66 59.4797L1183.07 59.4797L1183.07 59.4667L1183.44 59.4667L1183.44 57.8554L1184.91 57.8554L1184.91 54.5767L1183.44 54.5767L1183.44 52.8314L1179.64 52.8314L1179.64 54.5983L1176.06 54.5983L1176.06 56.3176L1174.25 56.3176L1174.25 57.7604L1168.37 57.7604L1168.37 56.3219L1166.93 56.3219L1166.93 54.6112L1165.1 54.6112L1165.1 52.6371L1163.11 52.6371L1163.11 49.2806L1168.39 49.2806L1168.39 47.6261L1172.46 47.6261L1172.46 45.9543L1175.79 45.9543L1175.79 40.6971L1174 40.6971L1174 37.4399L1172.4 37.4399L1172.4 32.1827L1170.24 32.1827L1170.24 30.4764L1168.82 30.4763L1168.82 22.1305L1170.6 22.1305L1170.6 20.4198L1172.12 20.4198L1172.12 18.653L1166.76 18.653L1166.76 17.1367L1163.2 17.1367L1163.2 18.6271L1161.37 18.6271L1161.37 25.3962L1162.99 25.3962L1162.99 27.0853L1165.03 27.0853L1165.03 28.8046L1166.85 28.8046L1166.85 30.472L1166.84 30.472L1166.84 42.3904L1165.05 42.3904L1165.05 44.0924L1161.38 44.0924L1161.38 45.7253L1144.87 45.7253L1144.87 46.0796L1144.85 46.0796L1144.85 47.4144L1143 47.4144L1143 49.1942L1139.29 49.1942L1139.29 50.9869L1141.13 50.9869L1141.13 54.3823L1154.02 54.3823L1154.02 57.7863L1157.55 57.7863L1157.55 64.7887L1154.03 64.7887L1154.03 66.3223L1155.66 66.3223L1155.66 71.3506L1150.19 71.3506L1150.19 69.9596L1148.53 69.9596L1148.53 71.3506L1144.68 71.3506L1144.68 69.9596L1143.02 69.9596L1143.02 71.3506L1137.59 71.3506L1137.59 66.3395L1139.18 66.3395L1139.18 64.7455L1135.5 64.7455L1135.5 57.8554L1139.32 57.8554L1139.32 54.5292L1133.83 54.5292L1133.83 50.9523L1135.49 50.9523L1135.49 50.9437L1135.5 50.9437L1135.5 44.1443L1140.96 44.1443L1140.96 40.7273L1142.79 40.7273L1142.79 39.2629L1142.77 39.2629L1142.77 39.0771L1153.8 39.0771L1153.8 39.0123L1153.81 39.0123L1153.81 37.5565L1153.8 37.5565L1153.8 37.5479L1152 37.5479L1152 33.9365L1159.36 33.9365L1159.36 29.0897L1157.71 29.0897L1157.71 30.485L1150.13 30.485L1150.13 28.8175L1152.27 28.8175L1152.27 27.1112L1153.84 27.1112L1153.84 23.9318L1152.27 23.9318L1152.27 18.7048L1153.84 18.7048L1153.84 15.4088L1152.27 15.4088L1152.27 11.9054L1161.2 11.9054L1161.2 8.48413L1163.07 8.48413L1163.07 6.76484L1168.45 6.76484L1168.45 3.58112L1172.39 3.58112L1172.39 11.9054L1175.87 11.9054L1175.87 13.6247L1177.61 13.6247L1177.61 8.60077L1176.11 8.60077L1176.11 5.04986L1177.56 5.04986L1177.56 3.58112L1179.71 3.58112L1179.71 -5.70026e-06L1201.28 -3.87739e-06L1201.28 3.58113L1203.43 3.58113L1203.43 5.04986L1204.89 5.04986L1204.89 8.60078L1203.39 8.60078L1203.39 13.6247L1205.13 13.6247L1205.13 11.9054L1208.61 11.9054L1208.61 3.58113L1212.55 3.58113L1212.55 6.76485L1217.93 6.76485L1217.93 8.48414L1219.8 8.48414L1219.8 11.9054L1228.73 11.9054L1228.73 15.4088L1227.15 15.4088L1227.15 18.7048L1228.73 18.7048L1228.73 23.9318L1227.15 23.9318L1227.15 27.1112L1228.73 27.1112L1228.73 28.8176L1230.86 28.8176L1230.86 30.485L1223.29 30.485L1223.29 29.0897L1221.64 29.0897L1221.64 33.9365L1229 33.9365L1229 37.5479L1227.2 37.5479L1227.2 37.5566L1227.19 37.5566L1227.19 39.0123L1227.2 39.0123L1227.2 39.0771L1238.23 39.0771L1238.23 39.2586L1238.21 39.2586L1238.21 40.7187L1240.04 40.7187L1240.04 44.14L1245.5 44.14L1245.5 50.9394L1245.51 50.9394L1245.51 50.948L1247.17 50.948L1247.17 54.5248L1241.68 54.5248ZM1188.63 35.591L1185.01 35.591L1185.01 33.8847L1181.69 33.8847L1181.69 32.1827L1179.8 32.1827L1179.8 25.366L1181.33 25.366L1181.33 22.1607L1186.78 22.1607L1186.78 20.5364L1179.72 20.5364L1179.72 22.1521L1177.91 22.1521L1177.91 23.7763L1174.19 23.7763L1174.19 32.2302L1176.07 32.2302L1176.07 33.8977L1179.4 33.8977L1179.4 35.5997L1181.59 35.5997L1181.59 44.14L1184.94 44.14L1184.94 42.641L1183.1 42.641L1183.1 39.103L1184.99 39.103L1184.99 37.3535L1188.63 37.3535L1188.63 35.591ZM1206.81 23.772L1203.09 23.772L1203.09 22.1477L1201.28 22.1477L1201.28 20.5321L1194.22 20.5321L1194.22 22.1564L1199.67 22.1564L1199.67 25.3574L1201.2 25.3574L1201.2 32.1784L1199.32 32.1784L1199.32 33.8804L1195.99 33.8804L1195.99 35.5867L1192.37 35.5867L1192.37 37.3449L1196.01 37.3449L1196.01 39.0944L1197.9 39.0944L1197.9 42.6324L1196.06 42.6324L1196.06 44.1313L1199.42 44.1313L1199.42 35.591L1201.61 35.591L1201.61 33.889L1204.93 33.889L1204.93 32.2216L1206.81 32.2216L1206.81 23.7677L1206.81 23.772Z" fill="#0C2D57"/>
<path d="M1355.01 54.5248L1355.01 57.8511L1358.83 57.8511L1358.83 64.7412L1355.16 64.7412L1355.16 66.3396L1356.74 66.3396L1356.74 71.3506L1351.31 71.3506L1351.31 69.9596L1349.66 69.9596L1349.66 71.3506L1345.8 71.3506L1345.8 69.9596L1344.14 69.9596L1344.14 71.3506L1338.67 71.3506L1338.67 66.3223L1340.3 66.3223L1340.3 64.7887L1336.78 64.7887L1336.78 57.7863L1340.31 57.7863L1340.31 54.3823L1353.2 54.3823L1353.2 50.9869L1355.04 50.9869L1355.04 49.1942L1351.33 49.1942L1351.33 47.4144L1349.48 47.4144L1349.48 46.0796L1349.47 46.0796L1349.47 45.7253L1332.95 45.7253L1332.95 44.0925L1329.28 44.0925L1329.28 42.3905L1327.49 42.3905L1327.49 30.472L1327.48 30.472L1327.48 28.8046L1329.3 28.8046L1329.3 27.0853L1331.34 27.0853L1331.34 25.3962L1332.96 25.3962L1332.96 18.6271L1331.13 18.6271L1331.13 17.1367L1327.57 17.1367L1327.57 18.6573L1322.21 18.6573L1322.21 20.4198L1323.73 20.4198L1323.73 22.1305L1325.51 22.1305L1325.51 30.4764L1324.09 30.4764L1324.09 32.1827L1321.93 32.1827L1321.93 37.4399L1320.33 37.4399L1320.33 40.6971L1318.54 40.6971L1318.54 45.9543L1321.86 45.9543L1321.86 47.6261L1325.94 47.6261L1325.94 49.2806L1331.22 49.2806L1331.22 52.6371L1329.23 52.6371L1329.23 54.6112L1327.39 54.6112L1327.39 56.3219L1325.96 56.3219L1325.96 57.7604L1320.08 57.7604L1320.08 56.3219L1318.27 56.3219L1318.27 54.6026L1314.68 54.6026L1314.68 52.8358L1310.89 52.8358L1310.89 54.581L1309.42 54.581L1309.42 57.8597L1310.89 57.8597L1310.89 59.4711L1311.26 59.4711L1311.26 59.484L1312.67 59.484L1312.67 61.2206L1314.86 61.2206L1314.86 62.9528L1316.73 62.9528L1316.73 64.6894L1318.19 64.6894L1318.19 66.5513L1316.77 66.5513L1316.77 67.9638L1313.03 67.9638L1313.03 69.6572L1309.26 69.6572L1309.26 67.9897L1298.4 67.9897L1298.4 69.6572L1294.64 69.6572L1294.64 67.9595L1290.89 67.9595L1290.89 66.5469L1289.47 66.5469L1289.47 64.6851L1290.94 64.6851L1290.94 62.9485L1292.8 62.9485L1292.8 61.2163L1294.99 61.2163L1294.99 59.4797L1296.4 59.4797L1296.4 59.4667L1296.77 59.4667L1296.77 57.8554L1298.25 57.8554L1298.25 54.5767L1296.77 54.5767L1296.77 52.8314L1292.98 52.8314L1292.98 54.5983L1289.39 54.5983L1289.39 56.3176L1287.58 56.3176L1287.58 57.7604L1281.7 57.7604L1281.7 56.3219L1280.27 56.3219L1280.27 54.6112L1278.43 54.6112L1278.43 52.6371L1276.44 52.6371L1276.44 49.2806L1281.73 49.2806L1281.73 47.6261L1285.8 47.6261L1285.8 45.9543L1289.13 45.9543L1289.13 40.6971L1287.33 40.6971L1287.33 37.4399L1285.73 37.4399L1285.73 32.1827L1283.57 32.1827L1283.57 30.4764L1282.15 30.4763L1282.15 22.1305L1283.94 22.1305L1283.94 20.4198L1285.45 20.4198L1285.45 18.653L1280.09 18.653L1280.09 17.1367L1276.54 17.1367L1276.54 18.6271L1274.7 18.6271L1274.7 25.3962L1276.32 25.3962L1276.32 27.0853L1278.36 27.0853L1278.36 28.8046L1280.19 28.8046L1280.19 30.472L1280.18 30.472L1280.18 42.3904L1278.38 42.3904L1278.38 44.0924L1274.71 44.0924L1274.71 45.7253L1258.2 45.7253L1258.2 46.0796L1258.19 46.0796L1258.19 47.4144L1256.33 47.4144L1256.33 49.1942L1252.63 49.1942L1252.63 50.9869L1254.46 50.9869L1254.46 54.3823L1267.35 54.3823L1267.35 57.7863L1270.88 57.7863L1270.88 64.7887L1267.36 64.7887L1267.36 66.3223L1268.99 66.3223L1268.99 71.3506L1263.52 71.3506L1263.52 69.9596L1261.87 69.9596L1261.87 71.3506L1258.01 71.3506L1258.01 69.9596L1256.35 69.9596L1256.35 71.3506L1250.92 71.3506L1250.92 66.3395L1252.51 66.3395L1252.51 64.7455L1248.84 64.7455L1248.84 57.8554L1252.65 57.8554L1252.65 54.5292L1247.17 54.5292L1247.17 50.9523L1248.82 50.9523L1248.82 50.9437L1248.83 50.9437L1248.83 44.1443L1254.29 44.1443L1254.29 40.7273L1256.12 40.7273L1256.12 39.2629L1256.11 39.2629L1256.11 39.0771L1267.14 39.0771L1267.14 39.0123L1267.15 39.0123L1267.15 37.5565L1267.14 37.5565L1267.14 37.5479L1265.33 37.5479L1265.33 33.9365L1272.7 33.9365L1272.7 29.0897L1271.05 29.0897L1271.05 30.485L1263.47 30.485L1263.47 28.8175L1265.6 28.8175L1265.6 27.1112L1267.18 27.1112L1267.18 23.9318L1265.6 23.9318L1265.6 18.7048L1267.18 18.7048L1267.18 15.4088L1265.6 15.4088L1265.6 11.9054L1274.53 11.9054L1274.53 8.48413L1276.4 8.48413L1276.4 6.76484L1281.78 6.76484L1281.78 3.58112L1285.72 3.58112L1285.72 11.9054L1289.2 11.9054L1289.2 13.6247L1290.94 13.6247L1290.94 8.60077L1289.44 8.60077L1289.44 5.04986L1290.9 5.04986L1290.9 3.58112L1293.05 3.58112L1293.05 -5.70026e-06L1314.62 -3.87739e-06L1314.62 3.58113L1316.77 3.58113L1316.77 5.04986L1318.23 5.04986L1318.23 8.60078L1316.73 8.60078L1316.73 13.6247L1318.46 13.6247L1318.46 11.9054L1321.94 11.9054L1321.94 3.58113L1325.89 3.58113L1325.89 6.76485L1331.26 6.76485L1331.26 8.48414L1333.14 8.48414L1333.14 11.9054L1342.06 11.9054L1342.06 15.4088L1340.49 15.4088L1340.49 18.7048L1342.06 18.7048L1342.06 23.9318L1340.49 23.9318L1340.49 27.1112L1342.06 27.1112L1342.06 28.8176L1344.2 28.8176L1344.2 30.485L1336.62 30.485L1336.62 29.0897L1334.97 29.0897L1334.97 33.9365L1342.34 33.9365L1342.34 37.5479L1340.53 37.5479L1340.53 37.5566L1340.52 37.5566L1340.52 39.0123L1340.53 39.0123L1340.53 39.0771L1351.56 39.0771L1351.56 39.2586L1351.55 39.2586L1351.55 40.7187L1353.38 40.7187L1353.38 44.14L1358.83 44.14L1358.83 50.9394L1358.84 50.9394L1358.84 50.948L1360.5 50.948L1360.5 54.5248L1355.01 54.5248ZM1301.96 35.591L1298.34 35.591L1298.34 33.8847L1295.02 33.8847L1295.02 32.1827L1293.14 32.1827L1293.14 25.366L1294.67 25.366L1294.67 22.1607L1300.12 22.1607L1300.12 20.5364L1293.06 20.5364L1293.06 22.1521L1291.25 22.1521L1291.25 23.7763L1287.52 23.7763L1287.52 32.2302L1289.41 32.2302L1289.41 33.8977L1292.73 33.8977L1292.73 35.5997L1294.92 35.5997L1294.92 44.14L1298.27 44.14L1298.27 42.641L1296.44 42.641L1296.44 39.103L1298.33 39.103L1298.33 37.3535L1301.96 37.3535L1301.96 35.591ZM1320.15 23.772L1316.42 23.772L1316.42 22.1477L1314.61 22.1477L1314.61 20.5321L1307.55 20.5321L1307.55 22.1564L1313 22.1564L1313 25.3574L1314.53 25.3574L1314.53 32.1784L1312.65 32.1784L1312.65 33.8804L1309.33 33.8804L1309.33 35.5867L1305.71 35.5867L1305.71 37.3449L1309.35 37.3449L1309.35 39.0944L1311.24 39.0944L1311.24 42.6324L1309.4 42.6324L1309.4 44.1313L1312.75 44.1313L1312.75 35.591L1314.94 35.591L1314.94 33.889L1318.26 33.889L1318.26 32.2216L1320.15 32.2216L1320.15 23.7677L1320.15 23.772Z" fill="#0C2D57"/>
</svg>
