<svg width="54" height="54" viewBox="0 0 54 54" fill="none" xmlns="http://www.w3.org/2000/svg">
<g clip-path="url(#clip0_210_31)">
<mask id="path-1-inside-1_210_31" fill="white">
<path d="M49.4724 13.3652L49.6501 13.3583V12.377H50.7406V11.3957H51.6474L51.825 11.3819V10.4213H52.9095V9.43998H53.8223L54 9.42616V7.8367H52.9095V6.85539H51.825V5.87407H50.7406V4.89967H49.6501V3.91835H48.5657V2.93704H47.4752V1.95572H46.3846V0.981316H45.3002V0H43.8911V0.981316H42.8005V1.95572H41.7161V2.93704H40.6256V3.91835H39.774V2.93704H38.6896V1.95572H37.6052V0.981316H36.5146V0H35.1055V0.981316H34.0211V1.95572H32.9306V2.93704H31.84V3.91835H30.7556V4.89967H29.6651V5.87407H28.5807V6.85539H27.4963V7.8367H26.5099V6.85539H25.4193V5.87407H24.3288V4.89967H23.2444V3.91835H22.1538V2.93704H21.0694V1.95572H19.985V0.981316H18.8945V0H17.4854V0.981316H16.401V1.95572H15.3104V2.93704H14.2199V3.91835H13.3744V2.93704H12.2839V1.95572H11.1995V0.981316H10.1089V0H8.6998V0.981316H7.60926V1.95572H6.52485V2.93704H5.44044V3.91835H4.3499V4.89967H3.26549V5.87407H2.17495V6.85539H1.08441V7.8367H0V9.43998H1.08441V10.4213H2.17495V11.3957H3.26549V12.377H4.3499V13.3652H5.44044V13.7799H4.3499V14.7543H3.26549V15.7356H2.17495V16.7169H1.08441V17.6913H0V19.2946H1.08441V20.2759H2.17495V21.2572H3.26549V22.2385H4.3499V23.2268H5.44044V24.1943H6.52485V25.1825H7.60926V26.1569H8.6998V27.8431H7.60926V28.8244H6.52485V29.8057H5.44044V30.7801H4.3499V31.7615H3.26549V32.7428H2.17495V33.7241H1.08441V34.6985H0V36.3018H1.08441V37.2831H2.17495V38.2644H3.26549V39.2388H4.3499V40.2339H5.44044V40.6417H4.3499V41.623H3.26549V42.5974H2.17495V43.5787H1.08441V44.56H0V46.1633H1.08441V47.1446H2.17495V48.1259H3.26549V49.1003H4.3499V50.0886H5.44044V51.063H6.52485V52.0443H7.60926V53.0187H8.6998V54H10.1089V53.0187H11.1995V52.0443H12.1062L12.2839 52.0374V51.063H13.3744V50.0886H14.2199V51.063H15.3104V52.0443H16.401V53.0187H17.4854V54H18.8945V53.0187H19.985V52.0443H20.8918L21.0694 52.0374V51.063H22.1538V50.0886H23.0667L23.2444 50.0816V49.1003H24.3288V48.1259H25.2417L25.4193 48.1052V47.1446H26.5099V46.1633H27.4963V47.1446H28.5807V48.1259H29.6651V49.1003H30.7556V50.0886H31.84V51.063H32.9306V52.0443H34.0211V53.0187H35.1055V54H36.5146V53.0187H37.6052V52.0443H38.5119L38.6896 52.0374V51.063H39.774V50.0886H40.6256V51.063H41.7161V52.0443H42.8005V53.0187H43.8911V54H45.3002V53.0187H46.3846V52.0443H47.2975L47.4752 52.0374V51.063H48.5657V50.0886H49.4724L49.6501 50.0816V49.1003H50.7406V48.1259H51.6474L51.825 48.1052V47.1446H52.9095V46.1633H53.8223L54 46.1495V44.56H52.9095V43.5787H51.825V42.5974H50.7406V41.623H49.6501V40.6417H48.5657V40.2339H49.4724L49.6501 40.2201V39.2388H50.7406V38.2644H51.6474L51.825 38.2437V37.2831H52.9095V36.3018H53.8223L54 36.2879V34.6985H52.9095V33.7241H51.825V32.7428H50.7406V31.7615H49.6501V30.7801H48.5657V29.8057H47.4752V28.8244H46.3846V27.8431H45.3002V26.1569H46.3846V25.1825H47.4752V24.1943H48.5657V23.2268H49.4724L49.6501 23.213V22.2385H50.7406V21.2572H51.6474L51.825 21.2434V20.2759H52.9095V19.2946H53.8223L54 19.2877V17.6913H52.9095V16.7169H51.825V15.7356H50.7406V14.7543H49.6501V13.7799H48.5657V13.3652H49.4724Z"/>
</mask>
<path d="M49.4724 13.3652L49.6501 13.3583V12.377H50.7406V11.3957H51.6474L51.825 11.3819V10.4213H52.9095V9.43998H53.8223L54 9.42616V7.8367H52.9095V6.85539H51.825V5.87407H50.7406V4.89967H49.6501V3.91835H48.5657V2.93704H47.4752V1.95572H46.3846V0.981316H45.3002V0H43.8911V0.981316H42.8005V1.95572H41.7161V2.93704H40.6256V3.91835H39.774V2.93704H38.6896V1.95572H37.6052V0.981316H36.5146V0H35.1055V0.981316H34.0211V1.95572H32.9306V2.93704H31.84V3.91835H30.7556V4.89967H29.6651V5.87407H28.5807V6.85539H27.4963V7.8367H26.5099V6.85539H25.4193V5.87407H24.3288V4.89967H23.2444V3.91835H22.1538V2.93704H21.0694V1.95572H19.985V0.981316H18.8945V0H17.4854V0.981316H16.401V1.95572H15.3104V2.93704H14.2199V3.91835H13.3744V2.93704H12.2839V1.95572H11.1995V0.981316H10.1089V0H8.6998V0.981316H7.60926V1.95572H6.52485V2.93704H5.44044V3.91835H4.3499V4.89967H3.26549V5.87407H2.17495V6.85539H1.08441V7.8367H0V9.43998H1.08441V10.4213H2.17495V11.3957H3.26549V12.377H4.3499V13.3652H5.44044V13.7799H4.3499V14.7543H3.26549V15.7356H2.17495V16.7169H1.08441V17.6913H0V19.2946H1.08441V20.2759H2.17495V21.2572H3.26549V22.2385H4.3499V23.2268H5.44044V24.1943H6.52485V25.1825H7.60926V26.1569H8.6998V27.8431H7.60926V28.8244H6.52485V29.8057H5.44044V30.7801H4.3499V31.7615H3.26549V32.7428H2.17495V33.7241H1.08441V34.6985H0V36.3018H1.08441V37.2831H2.17495V38.2644H3.26549V39.2388H4.3499V40.2339H5.44044V40.6417H4.3499V41.623H3.26549V42.5974H2.17495V43.5787H1.08441V44.56H0V46.1633H1.08441V47.1446H2.17495V48.1259H3.26549V49.1003H4.3499V50.0886H5.44044V51.063H6.52485V52.0443H7.60926V53.0187H8.6998V54H10.1089V53.0187H11.1995V52.0443H12.1062L12.2839 52.0374V51.063H13.3744V50.0886H14.2199V51.063H15.3104V52.0443H16.401V53.0187H17.4854V54H18.8945V53.0187H19.985V52.0443H20.8918L21.0694 52.0374V51.063H22.1538V50.0886H23.0667L23.2444 50.0816V49.1003H24.3288V48.1259H25.2417L25.4193 48.1052V47.1446H26.5099V46.1633H27.4963V47.1446H28.5807V48.1259H29.6651V49.1003H30.7556V50.0886H31.84V51.063H32.9306V52.0443H34.0211V53.0187H35.1055V54H36.5146V53.0187H37.6052V52.0443H38.5119L38.6896 52.0374V51.063H39.774V50.0886H40.6256V51.063H41.7161V52.0443H42.8005V53.0187H43.8911V54H45.3002V53.0187H46.3846V52.0443H47.2975L47.4752 52.0374V51.063H48.5657V50.0886H49.4724L49.6501 50.0816V49.1003H50.7406V48.1259H51.6474L51.825 48.1052V47.1446H52.9095V46.1633H53.8223L54 46.1495V44.56H52.9095V43.5787H51.825V42.5974H50.7406V41.623H49.6501V40.6417H48.5657V40.2339H49.4724L49.6501 40.2201V39.2388H50.7406V38.2644H51.6474L51.825 38.2437V37.2831H52.9095V36.3018H53.8223L54 36.2879V34.6985H52.9095V33.7241H51.825V32.7428H50.7406V31.7615H49.6501V30.7801H48.5657V29.8057H47.4752V28.8244H46.3846V27.8431H45.3002V26.1569H46.3846V25.1825H47.4752V24.1943H48.5657V23.2268H49.4724L49.6501 23.213V22.2385H50.7406V21.2572H51.6474L51.825 21.2434V20.2759H52.9095V19.2946H53.8223L54 19.2877V17.6913H52.9095V16.7169H51.825V15.7356H50.7406V14.7543H49.6501V13.7799H48.5657V13.3652H49.4724Z" stroke="#0C2D57" stroke-width="8" mask="url(#path-1-inside-1_210_31)"/>
</g>
<defs>
<clipPath id="clip0_210_31">
<rect width="54" height="54" fill="white"/>
</clipPath>
</defs>
</svg>
