<svg width="54" height="54" viewBox="0 0 54 54" fill="none" xmlns="http://www.w3.org/2000/svg">
<g clip-path="url(#clip0_210_14)">
<g clip-path="url(#clip1_210_14)">
<path d="M19.8168 40.716C27.6513 38.9272 34.9424 37.3612 31.413 30.7732C20.6608 10.7224 28.5601 0 39.9137 0C51.4893 0 59.1939 11.1341 48.4144 30.7766C44.7756 37.4051 52.3401 38.9678 60.0071 40.7194C66.7892 42.2651 67.2436 45.5389 67.2436 51.2055L67.2333 54H62.6926C62.6926 46.9496 62.9762 46.0114 58.5038 44.9921C52.0087 43.5139 45.8792 42.1166 43.6378 37.2161C42.8213 35.4274 42.2883 32.4844 44.41 28.6335C49.0977 20.088 50.2833 12.6832 47.6524 8.32612C44.5706 3.20625 35.2944 3.23325 32.2364 8.25187C29.6124 12.5483 30.7809 19.9935 35.4344 28.6706C37.5083 32.5384 36.9617 35.4746 36.1383 37.2533C33.8833 42.1301 27.6923 43.5409 21.1391 45.0326C16.8614 46.0114 17.1348 47.0171 17.1348 54H12.5872C12.5872 46.5885 11.9858 42.5047 19.8168 40.716ZM0.239257 54H5.25232C5.25232 51.2055 5.47273 51.9143 5.47273 50C8.00042 47.5 12.6133 46.5004 14.0004 43.5C15.5004 41.5 16.0004 38.5 15.2865 35.3608C12.0338 29.2925 11.1216 23.9735 12.8538 21.1351C14.7227 18.0672 20.6097 18.0706 22.4854 21.1857C25.68 26.4744 19.776 34.625 19.0004 38H23.7701C25.2734 34.625 27.8906 30.548 27.8906 24.8375C27.8906 18.0538 23.4079 14.375 17.6474 14.375C9.89052 14.375 4.05911 21.081 9.17163 33.6372C10.2291 36.2342 11.6422 39.3908 9.79181 41.4977C9.10272 42.2823 8.16873 42.7756 7.12256 43.295C6.14882 43.7785 5.10826 44.121 4.08602 44.491C0.497301 45.79 0.232424 48.1452 0.232424 51.9143L0.239257 54Z" fill="#0C2D57"/>
<path d="M21.5009 41.4999C19.1009 41.4999 18.5009 39.1666 19.0009 37.9999C20.8342 36.8332 24.4009 34.6999 24.0009 37.4999C23.6009 40.2999 25.3342 40.1666 26.0009 39.9999C25.3342 40.1666 23.9009 41.4999 21.5009 41.4999Z" fill="#111112"/>
</g>
</g>
<defs>
<clipPath id="clip0_210_14">
<rect width="54" height="54" fill="white"/>
</clipPath>
<clipPath id="clip1_210_14">
<rect width="54" height="54" fill="white"/>
</clipPath>
</defs>
</svg>
