<svg width="24" height="24" viewBox="0 0 24 24" fill="none" xmlns="http://www.w3.org/2000/svg">
<g clip-path="url(#clip0_619_2262)">
<path d="M10.4576 0.719869C10.4576 0.719869 3.18703 7.9969 0.35537 10.8302C0.117917 11.066 -1.38285e-06 11.3762 -1.42183e-06 11.6863C-1.46081e-06 11.9964 0.117917 12.3066 0.355369 12.5424C3.18541 15.3757 10.4544 22.6495 10.4544 22.6495C10.6886 22.8837 10.9971 23 11.3056 23C11.6142 22.9984 11.9243 22.8805 12.1618 22.643C12.6351 22.1697 12.6367 21.4057 12.1682 20.9356L4.13038 12.8978L22.7885 12.8978C23.4573 12.8978 24 12.355 24 11.6863C24 11.0176 23.4573 10.4748 22.7885 10.4748L4.13038 10.4748L12.1715 2.43211C12.6383 1.96528 12.6351 1.20285 12.1618 0.729561C11.9243 0.492109 11.6142 0.372575 11.3056 0.372575C10.9971 0.370959 10.6918 0.487263 10.4576 0.719869Z" fill="#111112"/>
</g>
<defs>
<clipPath id="clip0_619_2262">
<rect width="24" height="24" fill="white"/>
</clipPath>
</defs>
</svg>
