<svg width="24" height="24" viewBox="0 0 24 24" fill="none" xmlns="http://www.w3.org/2000/svg">
<g clip-path="url(#clip0_644_3996)">
<path d="M21.4184 17.1491C21.4184 17.1491 21.4138 6.86238 21.4127 2.85666C21.4138 2.522 21.2779 2.21931 21.0586 2.00001C20.8393 1.78071 20.5366 1.64478 20.2019 1.64593C16.1973 1.64364 5.91407 1.64021 5.91407 1.64021C5.58283 1.64021 5.28243 1.77613 5.06427 1.9943C4.84725 2.2136 4.71133 2.51629 4.71133 2.85209C4.71133 3.52143 5.25045 4.06283 5.91407 4.06397L17.2813 4.06397L0.500017 20.8453C0.0271424 21.3181 0.027143 22.0857 0.500016 22.5586C0.972889 23.0314 1.74045 23.0314 2.21332 22.5586L18.9946 5.77728L18.9958 17.1502C18.9958 17.8104 19.5372 18.3473 20.2065 18.3473C20.5423 18.3473 20.8461 18.2125 21.0643 17.9943C21.2836 17.7773 21.4172 17.4792 21.4184 17.1491Z" fill="#111112"/>
</g>
<defs>
<clipPath id="clip0_644_3996">
<rect width="24" height="24" fill="white" transform="translate(24) rotate(90)"/>
</clipPath>
</defs>
</svg>
