<svg width="81" height="30" viewBox="0 0 81 30" fill="none" xmlns="http://www.w3.org/2000/svg">
<path d="M7.08 12H18.64C18.3467 11.0667 17.9067 10.2267 17.32 9.48C16.76 8.73333 16.0933 8.09333 15.32 7.56C14.5467 7.02667 13.68 6.61333 12.72 6.32C11.7867 6.02667 10.8 5.88 9.76 5.88C8.77333 5.88 7.73333 6.01333 6.64 6.28C5.57333 6.54667 4.6 6.98667 3.72 7.6L1.2 3.32C2.32 2.46667 3.64 1.8 5.16 1.32C6.68 0.813332 8.4 0.559999 10.32 0.559999C12.56 0.559999 14.5867 0.919999 16.4 1.64C18.24 2.36 19.8133 3.36 21.12 4.64C22.4267 5.92 23.4267 7.42667 24.12 9.16C24.84 10.8933 25.2 12.76 25.2 14.76C25.2 16.76 24.84 18.6533 24.12 20.44C23.4 22.2 22.3733 23.7467 21.04 25.08C19.7333 26.3867 18.16 27.4267 16.32 28.2C14.48 28.9467 12.44 29.32 10.2 29.32C8.01333 29.32 6.16 29.0267 4.64 28.44C3.12 27.8267 1.85333 27.1067 0.84 26.28L3.28 22C4.16 22.72 5.10667 23.2267 6.12 23.52C7.16 23.7867 8.18667 23.92 9.2 23.92C10.3733 23.92 11.48 23.7733 12.52 23.48C13.5867 23.16 14.5467 22.7067 15.4 22.12C16.2533 21.5067 16.9733 20.7867 17.56 19.96C18.1733 19.1067 18.6 18.1333 18.84 17.04H7.08V12ZM25.1609 28.2L33.8409 13.88L26.4409 1.8V0.999998H32.9209L37.9209 9.6L42.9609 0.999998H48.9209V1.8L41.5209 13.72L50.8009 28.2V29H44.2009L37.6809 17.92L31.2809 29H25.1609V28.2ZM65.6941 24.12C66.9207 24.12 68.0541 23.92 69.0941 23.52C70.1341 23.0933 71.0274 22.4933 71.7741 21.72C72.5474 20.92 73.1474 19.96 73.5741 18.84C74.0274 17.6933 74.2541 16.4 74.2541 14.96C74.2541 13.5467 74.0407 12.28 73.6141 11.16C73.1874 10.0133 72.5874 9.05333 71.8141 8.28C71.0674 7.48 70.1741 6.86667 69.1341 6.44C68.0941 6.01333 66.9474 5.8 65.6941 5.8C64.4407 5.8 63.2941 6.01333 62.2541 6.44C61.2141 6.84 60.3074 7.44 59.5341 8.24C58.7874 9.01333 58.2007 9.97333 57.7741 11.12C57.3474 12.24 57.1341 13.52 57.1341 14.96C57.1341 16.3733 57.3341 17.6533 57.7341 18.8C58.1607 19.92 58.7474 20.88 59.4941 21.68C60.2674 22.4533 61.1741 23.0533 62.2141 23.48C63.2807 23.9067 64.4407 24.12 65.6941 24.12ZM65.6941 29.32C63.4007 29.32 61.3341 28.9733 59.4941 28.28C57.6807 27.5867 56.1207 26.6133 54.8141 25.36C53.5074 24.08 52.5074 22.56 51.8141 20.8C51.1207 19.04 50.7741 17.0933 50.7741 14.96C50.7741 12.9333 51.1207 11.0533 51.8141 9.32C52.5074 7.56 53.4941 6.04 54.7741 4.76C56.0807 3.45333 57.6541 2.44 59.4941 1.72C61.3341 0.973332 63.4007 0.599998 65.6941 0.599998C67.9074 0.599998 69.9341 0.946665 71.7741 1.64C73.6141 2.33333 75.1874 3.32 76.4941 4.6C77.8007 5.85333 78.8141 7.37333 79.5341 9.16C80.2541 10.92 80.6141 12.8667 80.6141 15C80.6141 17.0267 80.2541 18.92 79.5341 20.68C78.8407 22.4133 77.8407 23.92 76.5341 25.2C75.2541 26.48 73.6941 27.4933 71.8541 28.24C70.0141 28.96 67.9607 29.32 65.6941 29.32Z" fill="#111112"/>
</svg>
