<svg width="19" height="19" viewBox="0 0 19 19" fill="none" xmlns="http://www.w3.org/2000/svg">
<g clip-path="url(#clip0_704_2221)">
<path d="M5.2106 2C2.8238 2 0.5 3.60037 0.5 6.52987C0.5 9.78925 4.4105 13.291 8.8727 17.5024C9.0473 17.6678 9.2741 17.75 9.5 17.75C9.7259 17.75 9.9527 17.6678 10.1273 17.5024C14.6066 13.2753 18.5 9.79012 18.5 6.52987C18.5 3.596 16.178 2.00788 13.7939 2.00788C12.1415 2.00788 10.5125 2.76562 9.5 4.24262C8.483 2.75862 6.8585 2 5.2106 2ZM5.2106 3.3125C7.0016 3.31338 8.0924 4.49637 8.9501 5.675C9.0761 5.84825 9.2813 5.9515 9.5 5.95238C9.7187 5.95238 9.9239 5.85 10.0508 5.67763C10.9103 4.506 12.0218 3.32038 13.7939 3.32038C15.4103 3.32038 17.15 4.32488 17.15 6.52987C17.15 8.867 14.5571 11.4938 9.5 16.266C4.5914 11.6416 1.85 8.92562 1.85 6.52987C1.85 5.5455 2.2001 4.7195 2.8616 4.14375C3.4673 3.61525 4.3241 3.3125 5.2106 3.3125Z" fill="#FFFEFC"/>
</g>
<defs>
<clipPath id="clip0_704_2221">
<rect width="18" height="18" fill="white" transform="translate(0.5 0.5)"/>
</clipPath>
</defs>
</svg>
