<svg width="40" height="40" viewBox="0 0 40 40" fill="none" xmlns="http://www.w3.org/2000/svg">
<path d="M10.468 3.33334C5.164 3.33334 0 6.88973 0 13.3997C0 20.6428 8.69 28.4245 18.606 37.7831C18.994 38.1506 19.498 38.3333 20 38.3333C20.502 38.3333 21.006 38.1506 21.394 37.7831C31.348 28.3895 40 20.6447 40 13.3997C40 6.88001 34.84 3.35084 29.542 3.35084C25.87 3.35084 22.25 5.03473 20 8.31695C17.74 5.01918 14.13 3.33334 10.468 3.33334ZM10.468 6.25001C14.448 6.25196 16.872 8.88084 18.778 11.5C19.058 11.885 19.514 12.1145 20 12.1164C20.486 12.1164 20.942 11.8889 21.224 11.5058C23.134 8.90223 25.604 6.26751 29.542 6.26751C33.134 6.26751 37 8.49973 37 13.3997C37 18.5933 31.238 24.4306 20 35.0356C9.092 24.7592 3 18.7236 3 13.3997C3 11.2122 3.778 9.37668 5.248 8.09723C6.594 6.92279 8.498 6.25001 10.468 6.25001Z" fill="#111112"/>
</svg>
