<svg width="463" height="464" viewBox="0 0 463 464" fill="none" xmlns="http://www.w3.org/2000/svg">
<rect width="463" height="464" fill="#FFFEFC"/>
<g clip-path="url(#clip0_654_4527)">
<path d="M355.557 114H106.443C92.948 114 82 124.925 82 138.391V325.609C82 339.075 92.948 350 106.443 350H355.577C369.073 350 380.021 339.075 380.021 325.609V138.391C380.021 124.925 369.073 114 355.577 114H355.557ZM164.675 136.403C167.325 135.214 170.159 134.722 172.973 134.456C176.794 134.066 180.676 134.804 184.476 134.394C210.973 134.394 237.47 134.476 263.967 134.333C270.006 134.292 276.045 134.21 282.063 134.435C285.391 134.558 288.739 134.845 291.8 136.485C295.764 138.617 296.031 143.228 292.293 145.811C288.698 148.291 284.426 148.947 280.359 150.074C266.802 153.805 254.745 160.118 244.372 169.71C241.599 172.272 239.237 175.183 236.505 177.745C230.24 183.607 224.427 182.152 219.477 176.679C215.122 171.862 210.419 167.517 205.263 163.623C195.095 155.936 183.449 151.591 171.166 148.64C168.701 148.045 166.318 147.225 164.12 145.873C162.251 144.745 161.306 143.044 161.45 140.974C161.594 138.924 162.662 137.325 164.675 136.423V136.403ZM102.356 206.092C103.937 201.234 107.203 197.258 110.428 193.364C116.939 185.554 125.114 179.938 134.583 176.31C140.314 174.117 146.291 172.867 152.495 172.703C159.725 172.518 166.873 172.949 173.816 175.142C181.292 177.499 188.029 181.209 194.048 186.292C198.464 190.023 202.305 194.183 205.571 198.898C206.865 200.763 208.097 202.751 208.96 204.842C212.329 212.897 208.241 218.923 199.45 218.944C184.846 218.985 170.242 218.944 155.617 218.944C141.423 218.944 127.23 218.944 113.016 218.944C111.455 218.944 109.935 218.759 108.415 218.411C101.945 216.996 100.507 211.667 102.356 206.051V206.092ZM156.274 291.769C141.711 291.215 128.77 287.464 117.72 278.036C111.517 272.748 106.381 266.701 102.869 259.404C101.205 255.94 100.794 252.189 103.136 248.684C105.087 245.753 108.312 245.466 111.352 245.077C113.345 244.831 115.399 245.036 117.412 245.036C143.108 245.036 168.824 245.036 194.52 245.015C196.965 245.015 199.409 244.708 201.812 245.138C209.638 246.573 212.534 252.579 208.878 259.753C203.455 270.39 195.28 278.487 184.969 284.308C177.513 288.51 169.42 291.01 160.731 291.277C159.109 291.318 157.527 291.953 156.233 291.748L156.274 291.769ZM295.476 323.498C295.23 325.752 293.73 326.716 291.902 327.433C288.143 328.95 284.138 329.503 280.153 329.544C275.922 329.606 271.711 329.749 267.459 329.708C241.435 329.503 215.389 329.524 189.344 329.667C181.744 329.708 174.206 329.913 166.75 328.13C162.621 327.146 160.3 325.383 160.423 322.944C160.588 319.521 163.484 318.455 166.031 317.533C170.878 315.791 175.849 314.418 180.758 312.86C191.337 309.519 200.929 304.415 209.412 297.2C213.541 293.675 217.176 289.678 221.1 285.968C223.195 284 225.577 282.648 228.597 282.853C231.329 282.955 233.65 283.918 235.601 285.886C241.66 291.974 247.638 298.123 254.909 302.857C263.454 308.412 272.656 312.265 282.454 314.848C286.007 315.791 289.54 316.795 292.765 318.681C294.614 319.767 295.682 321.161 295.415 323.477L295.476 323.498ZM300.611 291.687C267.767 291.441 240.942 265.533 241.25 231.016C241.517 200.107 267.993 170.653 304.596 172.621C333.661 174.179 361.288 199.41 360.507 232.164C361.164 264.836 333.887 291.953 300.611 291.687Z" fill="#E95A32"/>
</g>
<defs>
<clipPath id="clip0_654_4527">
<rect width="298" height="236" fill="white" transform="translate(82.5 114)"/>
</clipPath>
</defs>
</svg>
