<svg width="80" height="64" viewBox="0 0 80 64" fill="none" xmlns="http://www.w3.org/2000/svg">
<path d="M73.4381 0H6.5619C2.93907 0 0 2.96265 0 6.61456V57.3854C0 61.0373 2.93907 64 6.5619 64H73.4436C77.0664 64 80.0055 61.0373 80.0055 57.3854V6.61456C80.0055 2.96265 77.0664 0 73.4436 0H73.4381ZM22.1946 6.07539C22.906 5.753 23.6669 5.61959 24.4224 5.54733C25.448 5.44172 26.4902 5.64183 27.5103 5.53066C34.6237 5.53066 41.737 5.55289 48.8503 5.51398C50.4715 5.50287 52.0926 5.48063 53.7083 5.54178C54.6016 5.57513 55.5004 5.65294 56.322 6.09762C57.3863 6.6757 57.4579 7.92635 56.4544 8.62672C55.4894 9.29929 54.3424 9.47716 53.2506 9.78287C49.6112 10.7945 46.3744 12.5065 43.5897 15.1079C42.8453 15.8027 42.2112 16.592 41.4778 17.2868C39.796 18.8765 38.2355 18.4818 36.9065 16.9977C35.7375 15.6915 34.4748 14.5131 33.0907 13.457C30.3612 11.3726 27.2346 10.1942 23.9371 9.39378C23.2754 9.23259 22.6358 9.01025 22.0458 8.64339C21.544 8.33768 21.2903 7.87632 21.3289 7.31492C21.3675 6.75908 21.6543 6.32552 22.1946 6.08095V6.07539ZM5.46457 24.9741C5.88916 23.6568 6.76592 22.5784 7.63165 21.5223C9.37965 19.4046 11.5743 17.8815 14.1163 16.8977C15.6548 16.3029 17.2594 15.9639 18.9247 15.9194C20.8657 15.8694 22.7847 15.9861 24.6485 16.5809C26.6556 17.2201 28.4643 18.2262 30.08 19.6047C31.2655 20.6163 32.2967 21.7447 33.1734 23.0231C33.5208 23.5289 33.8517 24.0681 34.0833 24.6351C34.9876 26.8195 33.8903 28.4537 31.5302 28.4593C27.6096 28.4704 23.689 28.4593 19.7629 28.4593C15.9526 28.4593 12.1423 28.4593 8.32644 28.4593C7.90736 28.4593 7.49931 28.4092 7.09126 28.3147C5.35429 27.9312 4.96829 26.486 5.46457 24.963V24.9741ZM19.9393 48.2084C16.0298 48.0584 12.5558 47.0412 9.58919 44.4843C7.9239 43.0502 6.54535 41.4105 5.60243 39.4317C5.15578 38.4923 5.04549 37.4751 5.67411 36.5246C6.19796 35.7297 7.06369 35.6519 7.87979 35.5463C8.41467 35.4796 8.96609 35.5352 9.50648 35.5352C16.4047 35.5352 23.3085 35.5352 30.2068 35.5296C30.863 35.5296 31.5192 35.4462 32.1643 35.563C34.2652 35.9521 35.0427 37.5807 34.0612 39.5261C32.6055 42.411 30.4108 44.6066 27.6427 46.1852C25.641 47.3246 23.4684 48.0028 21.1359 48.075C20.7003 48.0862 20.2757 48.2585 19.9283 48.2029L19.9393 48.2084ZM57.3091 56.8129C57.2429 57.4244 56.8404 57.6856 56.3496 57.8801C55.3405 58.2915 54.2652 58.4416 53.1955 58.4527C52.0595 58.4693 50.9291 58.5083 49.7877 58.4971C42.8012 58.4416 35.8092 58.4471 28.8172 58.486C26.7769 58.4971 24.7532 58.5527 22.7516 58.0691C21.6432 57.8023 21.0201 57.3243 21.0532 56.6628C21.0973 55.7346 21.8748 55.4455 22.5586 55.1954C23.8599 54.7229 25.1944 54.3505 26.5123 53.9281C29.3521 53.0221 31.9272 51.638 34.2046 49.6814C35.3129 48.7254 36.2889 47.6415 37.3422 46.6354C37.9046 46.1018 38.5443 45.7349 39.3548 45.7905C40.0882 45.8183 40.7113 46.0796 41.2352 46.6132C42.8619 48.264 44.4665 49.9316 46.4185 51.2156C48.7124 52.7219 51.1828 53.7669 53.8131 54.4673C54.767 54.7229 55.7155 54.9953 56.5812 55.5067C57.0775 55.8013 57.3642 56.1793 57.2925 56.8074L57.3091 56.8129ZM58.6876 48.1862C49.8704 48.1195 42.6689 41.0936 42.7516 31.7332C42.8233 23.3511 49.9311 15.3636 59.7574 15.8972C67.56 16.3196 74.9766 23.1621 74.767 32.0445C74.9435 40.9046 67.6206 48.2585 58.6876 48.1862Z" fill="#FFFEFC"/>
</svg>
