<svg width="462" height="464" viewBox="0 0 462 464" fill="none" xmlns="http://www.w3.org/2000/svg">
<rect width="462" height="464" fill="#0C2D57"/>
<g clip-path="url(#clip0_654_4528)">
<path d="M355.475 107H105.525C91.9848 107 81 117.925 81 131.391V318.609C81 332.075 91.9848 343 105.525 343H355.496C369.036 343 380.021 332.075 380.021 318.609V131.391C380.021 117.925 369.036 107 355.496 107H355.475ZM163.953 129.403C166.611 128.214 169.455 127.722 172.279 127.456C176.112 127.066 180.007 127.804 183.82 127.394C210.406 127.394 236.992 127.476 263.578 127.333C269.637 127.292 275.696 127.21 281.735 127.435C285.073 127.558 288.433 127.845 291.504 129.485C295.481 131.617 295.749 136.228 291.998 138.811C288.392 141.291 284.105 141.947 280.024 143.074C266.422 146.805 254.324 153.118 243.917 162.71C241.134 165.272 238.764 168.183 236.023 170.745C229.737 176.607 223.905 175.152 218.938 169.679C214.569 164.862 209.849 160.517 204.677 156.623C194.475 148.936 182.789 144.591 170.465 141.64C167.992 141.045 165.601 140.225 163.396 138.873C161.521 137.745 160.573 136.044 160.717 133.974C160.861 131.924 161.933 130.325 163.953 129.423V129.403ZM101.424 199.092C103.011 194.234 106.288 190.258 109.523 186.364C116.056 178.554 124.259 172.938 133.76 169.31C139.51 167.117 145.507 165.867 151.731 165.703C158.986 165.518 166.158 165.949 173.124 168.142C180.625 170.499 187.385 174.209 193.424 179.292C197.855 183.023 201.709 187.183 204.986 191.898C206.284 193.763 207.521 195.751 208.386 197.842C211.766 205.897 207.665 211.923 198.844 211.944C184.191 211.985 169.538 211.944 154.864 211.944C140.623 211.944 126.382 211.944 112.12 211.944C110.554 211.944 109.029 211.759 107.504 211.411C101.012 209.996 99.569 204.667 101.424 199.051V199.092ZM155.523 284.769C140.911 284.215 127.927 280.464 116.84 271.036C110.616 265.748 105.463 259.701 101.939 252.404C100.27 248.94 99.8575 245.189 102.207 241.684C104.165 238.753 107.401 238.466 110.451 238.077C112.45 237.831 114.511 238.036 116.53 238.036C142.313 238.036 168.116 238.036 193.898 238.015C196.35 238.015 198.803 237.708 201.214 238.138C209.066 239.573 211.972 245.579 208.304 252.753C202.863 263.39 194.66 271.487 184.315 277.308C176.833 281.51 168.713 284.01 159.996 284.277C158.367 284.318 156.78 284.953 155.482 284.748L155.523 284.769ZM295.193 316.498C294.945 318.752 293.441 319.716 291.607 320.433C287.835 321.95 283.816 322.503 279.818 322.544C275.573 322.606 271.348 322.749 267.082 322.708C240.97 322.503 214.837 322.524 188.704 322.667C181.079 322.708 173.515 322.913 166.034 321.13C161.892 320.146 159.563 318.383 159.686 315.944C159.851 312.521 162.757 311.455 165.313 310.533C170.177 308.791 175.164 307.418 180.09 305.86C190.703 302.519 200.328 297.415 208.84 290.2C212.982 286.675 216.63 282.678 220.566 278.968C222.668 277 225.059 275.648 228.089 275.853C230.83 275.955 233.159 276.918 235.116 278.886C241.196 284.974 247.194 291.123 254.489 295.857C263.063 301.412 272.296 305.265 282.126 307.848C285.692 308.791 289.237 309.795 292.472 311.681C294.327 312.767 295.399 314.161 295.131 316.477L295.193 316.498ZM300.345 284.687C267.391 284.441 240.475 258.533 240.784 224.016C241.052 193.107 267.617 163.653 304.343 165.621C333.505 167.179 361.225 192.41 360.442 225.164C361.101 257.836 333.732 284.953 300.345 284.687Z" fill="#FFFEFC"/>
</g>
<defs>
<clipPath id="clip0_654_4528">
<rect width="299" height="236" fill="white" transform="translate(81 107)"/>
</clipPath>
</defs>
</svg>
