<svg width="50" height="41" viewBox="0 0 50 41" fill="none" xmlns="http://www.w3.org/2000/svg">
<g clip-path="url(#clip0_640_1030)">
<path d="M45.8988 0.5H4.10119C1.83692 0.5 0 2.35166 0 4.6341V36.3659C0 38.6483 1.83692 40.5 4.10119 40.5H45.9023C48.1665 40.5 50.0034 38.6483 50.0034 36.3659V4.6341C50.0034 2.35166 48.1665 0.5 45.9023 0.5H45.8988ZM13.8717 4.29712C14.3162 4.09562 14.7918 4.01225 15.264 3.96708C15.905 3.90108 16.5564 4.02614 17.194 3.95666C21.6398 3.95666 26.0856 3.97056 30.5314 3.94624C31.5447 3.93929 32.5579 3.9254 33.5677 3.96361C34.126 3.98445 34.6878 4.03309 35.2013 4.31101C35.8664 4.67231 35.9112 5.45397 35.284 5.8917C34.6809 6.31206 33.964 6.42322 33.2816 6.6143C31.007 7.24657 28.984 8.31657 27.2436 9.94242C26.7783 10.3767 26.382 10.87 25.9236 11.3042C24.8725 12.2978 23.8972 12.0512 23.0666 11.1236C22.336 10.3072 21.5467 9.5707 20.6817 8.91063C18.9757 7.60787 17.0216 6.87137 14.9607 6.37111C14.5471 6.27037 14.1474 6.13141 13.7786 5.90212C13.465 5.71105 13.3065 5.4227 13.3306 5.07183C13.3547 4.72442 13.5339 4.45345 13.8717 4.30059V4.29712ZM3.41536 16.1088C3.68073 15.2855 4.2287 14.6115 4.76978 13.9515C5.86228 12.6278 7.23394 11.676 8.82272 11.0611C9.78426 10.6893 10.7872 10.4774 11.828 10.4496C13.0411 10.4184 14.2404 10.4913 15.4053 10.863C16.6598 11.2626 17.7902 11.8913 18.8 12.7529C19.5409 13.3852 20.1854 14.0904 20.7334 14.8894C20.9505 15.2056 21.1573 15.5426 21.302 15.8969C21.8672 17.2622 21.1814 18.2836 19.7064 18.287C17.256 18.294 14.8056 18.287 12.3518 18.287C9.97036 18.287 7.58892 18.287 5.20403 18.287C4.9421 18.287 4.68707 18.2558 4.43204 18.1967C3.34643 17.957 3.10518 17.0538 3.41536 16.1019V16.1088ZM12.4621 30.6303C10.0186 30.5365 7.84739 29.9007 5.99324 28.3027C4.95244 27.4064 4.09085 26.3815 3.50152 25.1448C3.22236 24.5577 3.15343 23.9219 3.54632 23.3279C3.87372 22.8311 4.41481 22.7824 4.92487 22.7164C5.25917 22.6747 5.6038 22.7095 5.94155 22.7095C10.253 22.7095 14.5678 22.7095 18.8792 22.706C19.2894 22.706 19.6995 22.6539 20.1027 22.7269C21.4158 22.97 21.9017 23.9879 21.2883 25.2038C20.3784 27.0069 19.0068 28.3791 17.2767 29.3657C16.0256 30.0779 14.6678 30.5017 13.21 30.5469C12.9377 30.5538 12.6723 30.6615 12.4552 30.6268L12.4621 30.6303ZM35.8182 36.0081C35.7768 36.3902 35.5252 36.5535 35.2185 36.6751C34.5878 36.9322 33.9158 37.026 33.2472 37.0329C32.5372 37.0433 31.8307 37.0677 31.1173 37.0607C26.7508 37.026 22.3808 37.0294 18.0108 37.0538C16.7356 37.0607 15.4708 37.0955 14.2197 36.7932C13.527 36.6265 13.1376 36.3277 13.1583 35.9143C13.1858 35.3341 13.6718 35.1535 14.0991 34.9971C14.9125 34.7018 15.7465 34.4691 16.5702 34.2051C18.3451 33.6388 19.9545 32.7738 21.3779 31.5509C22.0706 30.9534 22.6806 30.2759 23.3388 29.6471C23.6904 29.3136 24.0902 29.0843 24.5968 29.1191C25.0551 29.1364 25.4446 29.2997 25.772 29.6332C26.7887 30.665 27.7916 31.7072 29.0116 32.5097C30.4453 33.4512 31.9892 34.1043 33.6332 34.542C34.2294 34.7018 34.8222 34.8721 35.3632 35.1917C35.6734 35.3758 35.8526 35.612 35.8078 36.0046L35.8182 36.0081ZM36.6798 30.6164C31.169 30.5747 26.668 26.1835 26.7197 20.3332C26.7645 15.0944 31.2069 10.1022 37.3484 10.4357C42.225 10.6998 46.8603 14.9763 46.7294 20.5278C46.8397 26.0654 42.2629 30.6615 36.6798 30.6164Z" fill="#E95A32"/>
</g>
<defs>
<clipPath id="clip0_640_1030">
<rect width="50" height="40" fill="white" transform="translate(0 0.5)"/>
</clipPath>
</defs>
</svg>
