<svg width="1440" height="80" viewBox="0 0 1440 80" fill="none" xmlns="http://www.w3.org/2000/svg">
<g clip-path="url(#clip0_1153_7064)">
<path d="M303.15 21.4032H305.363C305.407 22.1546 305.45 22.9061 305.493 23.7459H307.75V28.5785H310.049V30.9064C310.869 30.9653 311.602 31.0242 312.421 31.0832V35.7537C313.24 35.7979 313.973 35.8274 314.793 35.8568V38.1847H317.164V42.9437H319.45C319.493 43.7835 319.536 44.5349 319.593 45.3747H321.85V50.2073H324.222V52.6384H326.522V57.3826C327.341 57.4268 328.074 57.4562 328.893 57.5004V59.8283H331.265V64.5873H333.55C333.593 65.4271 333.637 66.1785 333.694 67.0183H335.936V71.8509H338.308V74.2819H340.608V79.0261C341.427 79.0703 342.16 79.0998 342.979 79.144V81.4719H345.351V86.2308H347.636C347.68 87.0707 347.737 87.8221 347.78 88.6619H350.023V93.4945H352.394V95.9255H354.694V100.67C355.513 100.714 356.246 100.743 357.066 100.788V103.115H359.437V107.874H361.723C361.78 108.714 361.823 109.466 361.866 110.305H364.109V115.138H366.409V119.941H352.48V117.643H345.394V115.212H343.023V112.854H340.852C340.766 112.574 340.651 112.368 340.651 112.162C340.637 110.806 340.651 109.466 340.651 108.022H338.351V105.591H335.979V103.16H333.68V100.817C332.86 100.773 332.127 100.729 331.308 100.684V95.9697H328.936V93.6124H326.651C326.593 92.7725 326.55 92.0211 326.493 91.1813H324.265V86.3487H321.893V83.9177H319.593V81.575C318.774 81.5308 318.041 81.4866 317.222 81.4424V76.7277H314.85V74.3703H312.565C312.507 73.5305 312.464 72.7791 312.407 71.9393H310.179V67.1067H307.807V64.6757H305.507V62.3772H300.778V67.033H298.407V69.4641H296.035V74.223H293.735V76.654H291.364V79.0851H289.064V83.8293C288.244 83.8735 287.511 83.9177 286.692 83.9619V86.275H284.32V88.7061H281.949V93.465H279.663C279.62 94.3048 279.591 95.0562 279.563 95.8961H277.277V100.729H274.978V103.071C274.158 103.115 273.425 103.16 272.606 103.204V105.502H270.234V110.335H267.863V112.678H265.563V117.51H263.191V119.912H256.191V117.761C255.918 117.687 255.717 117.569 255.501 117.569C251.045 117.569 246.59 117.569 242.076 117.569V98.3713H244.318V93.5387H246.69V91.1961H248.99V86.3634H251.362V81.5308H253.661V79.1882C254.481 79.1293 255.214 79.0851 256.033 79.0261V74.3409H258.405V71.9098H260.776V67.1509H263.062C263.105 66.3111 263.148 65.5597 263.191 64.7199H265.448V59.8873H267.748V57.5594C268.567 57.5004 269.3 57.4562 270.119 57.3973V52.712H272.491V47.8794H274.863V45.5368H277.162V40.7042H279.534V38.2731H281.834V33.5289C282.653 33.47 283.386 33.4258 284.205 33.3669V31.0832H286.577V26.2506H288.949V23.9079H291.249V19.0753H293.62V16.6443H295.92V11.9001C296.739 11.8559 297.472 11.8264 298.292 11.7822V14.1396C299.111 14.1691 299.844 14.2133 300.663 14.2427V16.5706H303.121V21.4032H303.15Z" fill="#0C2D57"/>
<path d="M354.721 28.6371H357.093V33.396H359.465V38.155H361.75C361.808 38.9948 361.865 39.7462 361.923 40.586H364.151V45.4186H366.522V50.2512H368.822V54.9954C369.641 55.0396 370.374 55.0838 371.194 55.128V57.4412H373.565V62.2001H375.865C375.908 61.5518 375.966 60.8004 376.023 59.9606H378.251V55.128H380.623V52.697H382.923V47.9528C383.742 47.9086 384.475 47.8644 385.294 47.8054V45.507H387.666V40.7481H389.951C390.009 39.9083 390.052 39.1568 390.109 38.317H392.337V33.4844H394.709V28.6518H397.009V26.3092C397.828 26.265 398.561 26.2208 399.38 26.1619V21.4471H401.752V19.0161H404.124V14.2572H406.424V11.8261H408.795V6.99351H411.095V4.65088C411.914 4.60668 412.647 4.56248 413.467 4.51828V-0.122792H436.968V2.08724H434.768C434.711 2.92705 434.653 3.67846 434.596 4.51828H432.368V9.35088H429.996V11.7819H427.697V16.5261C426.877 16.5703 426.144 16.6145 425.325 16.6587V21.3735H422.953V23.8045H420.582V28.5634H418.296C418.253 29.4032 418.224 30.1546 418.196 30.9945H415.91V35.8271H413.61V40.5713C412.791 40.6155 412.058 40.6597 411.239 40.7039V43.017H408.867V47.776H406.582C406.524 48.6158 406.467 49.3672 406.409 50.207H404.181V55.0396H401.81V57.4707H399.51V62.2149C398.691 62.2591 397.957 62.3033 397.138 62.3622V67.0769H394.767V69.508H392.395V74.2669H390.095V76.6979H387.723V81.5305H385.424V83.8732C384.604 83.9174 383.871 83.9616 383.052 84.0205V88.7352H380.68V93.4942H378.395C378.337 94.334 378.294 95.0854 378.237 95.9252H376.009V100.758H373.637V103.189H371.337V105.487H368.966V100.831H366.594V98.4741H364.424C364.337 98.1942 364.222 97.9879 364.222 97.7816C364.208 96.4262 364.222 95.0854 364.222 93.6415H361.923V91.2105H359.551V86.3779H357.251V84.0352C356.432 83.991 355.699 83.9468 354.88 83.9026V79.1879H352.508V76.8305H350.337C350.251 76.5506 350.136 76.3443 350.136 76.1381C350.122 74.7826 350.136 73.4418 350.136 71.9979H347.836V69.5669H345.465V64.7343H343.165V62.3917C342.346 62.3475 341.613 62.3033 340.793 62.2591V57.5443H338.422V55.1869H336.251C336.165 54.907 336.05 54.7007 336.05 54.4945C336.036 53.139 336.05 51.7982 336.05 50.3543H333.75V47.9233H331.379V43.0907H329.079V40.7481C328.26 40.7039 327.526 40.6597 326.707 40.6155V35.9007H324.335V33.5434H322.165C322.079 33.2634 321.964 33.0572 321.964 32.8509C321.949 31.4954 321.964 30.1546 321.964 28.7108H319.664V26.2797H317.292V21.4471H314.993V19.1045C314.173 19.0603 313.44 19.0161 312.621 18.9719V14.2572H310.249V11.8998H308.079C307.993 11.6198 307.878 11.4136 307.878 11.2073C307.863 9.85182 307.878 8.51107 307.878 7.06718H305.578V4.63614H303.264V-0.166992H340.707V2.11671C341.526 2.16091 342.259 2.20511 343.079 2.24931V6.96405H345.45V11.7966H347.822V16.5556H350.107C350.151 17.3954 350.179 18.1468 350.208 18.9866H352.494V23.8192H354.793V28.6518L354.721 28.6371Z" fill="#0C2D57"/>
<path d="M444.068 19.0161H446.454V23.775H448.841V28.5339H451.126C451.183 29.3737 451.227 30.1252 451.284 30.965H453.512V35.8123H455.898V40.6596H458.198V43.0023C459.017 43.0465 459.75 43.0907 460.584 43.1349V47.8496H462.97V52.6085H465.255C465.313 53.4484 465.356 54.1998 465.413 55.0396H467.656V59.8869H469.955V64.6311C470.775 64.6901 471.508 64.749 472.327 64.8079V69.4785C473.146 69.5227 473.879 69.5521 474.713 69.5963V71.9242H477.099V76.6832H479.37C479.6 78.3039 479.37 79.8803 479.514 81.5158H481.771V83.9468H484.07V88.691C484.89 88.7499 485.623 88.8089 486.442 88.8678V93.5383C487.261 93.5825 487.994 93.612 488.828 93.6562V95.9841H491.214V100.743H493.456V120H488.914V117.687H479.557V112.942C478.738 112.883 478.005 112.839 477.185 112.78V110.497H474.799V105.649H472.413V103.307H470.114V98.4594H467.728V96.0283H465.428V93.6857C464.608 93.6268 463.875 93.5825 463.056 93.5236V88.8236H460.67V86.3926H458.284V81.6336H455.999C455.955 80.7938 455.927 80.0424 455.884 79.2026H453.613V74.3553H451.313V72.0126C450.493 71.9684 449.76 71.9095 448.941 71.8653V67.1653H446.555V64.8079H444.169V69.449H441.884C441.841 70.2888 441.812 71.0402 441.769 71.88H439.498V76.7274H437.198V79.07C436.379 79.1142 435.645 79.1584 434.812 79.2173V83.9321H432.426V86.2894H430.14C430.083 87.1292 430.04 87.8807 429.982 88.7205H427.754V93.5678H425.368V95.9989H423.068V100.743C422.249 100.787 421.516 100.831 420.682 100.876V103.189H418.296V107.948H416.011C415.954 108.788 415.91 109.539 415.853 110.379H413.611V112.81H411.225V117.613H376.023V112.913C376.685 112.883 377.432 112.839 378.251 112.795V110.467H380.637V105.708H382.923C382.966 104.868 383.023 104.117 383.067 103.277H385.309V98.4299H387.609V93.6857C388.428 93.6268 389.161 93.5678 389.98 93.5089V91.2399C390.8 91.1957 391.533 91.1662 392.366 91.122V86.3926H394.752V84.0499H397.052V79.2173H399.438V76.7863H401.738V72.0421C402.557 71.9832 403.29 71.939 404.11 71.88V69.5963H406.496V64.749H408.882V59.9901H411.167C411.21 59.1502 411.253 58.3988 411.296 57.559H413.553V52.7117H415.853V50.3691C416.672 50.3101 417.405 50.2659 418.225 50.207V45.507H420.611V43.0759H422.997V38.317H425.282C425.325 37.4772 425.354 36.7258 425.397 35.886H427.668V31.0386H429.968V26.2944C430.787 26.2502 431.52 26.1913 432.34 26.1471V23.8487H434.726V19.0013H437.112V16.6587H439.411V11.8408H441.797V16.5703H444.097V19.0013L444.068 19.0161Z" fill="#0C2D57"/>
<path d="M484.028 26.2212H486.4V28.5638H488.772V33.3964H491.143V35.739H493.386V42.9732H491.201V81.4425H488.829V79.1293H486.529V74.3851C485.71 74.3262 484.977 74.282 484.158 74.2231V69.5378H481.786V64.7052H479.414V62.3626H477.115V57.5299H474.743V52.6973H472.371V50.2663H470.072V45.5221C469.252 45.4779 468.519 45.4337 467.7 45.3895V40.6748H465.328V38.2437H462.957V33.4995H460.657V28.6669H458.285V23.8343H455.985V21.5064C455.166 21.4475 454.433 21.4033 453.614 21.3444V16.6591C452.794 16.6149 452.061 16.5854 451.242 16.556V11.8265H448.87V9.46912H446.599C446.369 7.84843 446.599 6.27194 446.441 4.63652H444.185V-0.196088H441.885V-2.59766H467.556V2.05814C468.375 2.11708 469.109 2.17601 469.928 2.23495V4.50391C470.747 4.54811 471.48 4.57758 472.299 4.62178V9.35125H474.671V11.7086H476.928C477.158 13.3293 476.928 14.9058 477.086 16.5412H479.328V18.9723H481.7V23.8049H484V26.2359L484.028 26.2212Z" fill="#0C2D57"/>
<path d="M303.005 81.5298H305.377V79.2461H310.106V81.5298H312.492V86.2887H314.792V88.7198H317.178V91.1508H319.478V95.895C320.297 95.9392 321.03 95.9834 321.864 96.0276V98.3408H324.25V103.1H326.535C326.593 103.94 326.636 104.691 326.693 105.531H328.921V107.962H331.307V112.794H333.607V115.137C334.426 115.181 335.159 115.225 335.993 115.27V117.583H338.336V119.94H282.005C281.977 119.277 281.948 118.511 281.934 117.745C281.934 116.949 281.934 116.168 281.934 115.284H284.219C284.262 114.445 284.291 113.693 284.334 112.853H286.605V108.021H288.905V105.678C289.724 105.634 290.457 105.59 291.276 105.531V100.816H293.663V98.385H296.049V93.626H298.334C298.377 92.7862 298.406 92.0348 298.435 91.195H300.72V86.3624H303.02V81.5298H303.005Z" fill="#0C2D57"/>
<path d="M427.611 110.393H429.982V105.634H432.354V100.801H434.726V96.0423H437.011C437.054 95.2025 437.097 94.4511 437.14 93.6113H439.397V88.7787H441.697V84.0345C442.516 83.9756 443.249 83.9314 444.068 83.8724V79.2461H448.797V83.9166H451.169V86.274H453.44C453.67 87.8947 453.44 89.4712 453.598 91.1066H455.855V93.5376H458.227V98.3702H460.526V100.713C461.346 100.757 462.079 100.801 462.898 100.845V105.56H465.27V110.393H467.641V112.735H469.941V117.568H472.255V119.97H425.426V115.225H427.596V110.393H427.611Z" fill="#0C2D57"/>
<path d="M246.577 45.4479H248.963V43.1053H251.349V38.3463H253.634C253.692 37.5065 253.735 36.7551 253.792 35.9153H256.02V31.068H258.406V28.6369H260.706V23.8927C261.525 23.8485 262.273 23.8043 263.092 23.7601V21.447H265.478V16.688H267.763C267.821 15.8482 267.864 15.0968 267.907 14.257H270.15V9.40964H272.536V6.97861H274.835V2.23441C275.655 2.19021 276.402 2.16074 277.221 2.11654V-0.137695H291.322V4.48864H289.094V9.32124H286.708V11.7523H284.408V16.4965C283.589 16.5554 282.856 16.6143 282.037 16.6733V18.957H279.651V23.8043H277.264V26.147H274.965V30.9943H272.579V35.8416H270.279V38.1843C269.46 38.2432 268.727 38.2874 267.907 38.3463V43.0463H265.521V45.4774H263.135V50.2363H260.85C260.807 51.0761 260.763 51.8275 260.735 52.6673H258.464V57.5147H256.164V62.2589C255.345 62.3031 254.612 62.362 253.792 62.4062V64.7047H251.406V69.552H249.02V71.8946H246.735C246.692 72.7344 246.663 73.4858 246.62 74.3109H244.406V50.3394H246.577V45.4921V45.4479Z" fill="#0C2D57"/>
<path d="M361.865 21.3284V16.6726C361.132 16.6284 360.399 16.5842 359.579 16.5252V11.8252H357.208V6.99262H354.836V2.23368H352.594V-0.182617H401.766C401.795 0.495126 401.824 1.26127 401.838 2.02741C401.838 2.82303 401.838 3.6039 401.838 4.48792H399.553C399.509 5.313 399.481 6.07914 399.438 6.91895H397.167V9.34999H394.867V11.6779C394.047 11.7368 393.314 11.781 392.495 11.84V16.5105C391.676 16.5547 390.943 16.5842 390.123 16.6284V18.9563H387.752V21.3136H385.466C385.409 22.1387 385.366 22.9049 385.308 23.7447H383.08V28.5773H380.709V31.0083H378.409V33.3362C377.59 33.3951 376.857 33.4393 376.037 33.4835V35.782H373.666V38.1393H371.294V33.513H369.008V28.6804H366.637V23.8478H364.265V21.461C363.36 21.402 362.612 21.3726 361.894 21.3284H361.865Z" fill="#0C2D57"/>
<path d="M267.778 -0.182617V4.48792H265.536C265.492 5.313 265.464 6.07914 265.421 6.91895H263.15V11.7516H260.778V14.1826H258.492V18.9121C257.688 18.9563 256.94 19.0005 256.121 19.0447V21.3431H253.749V26.1757H251.377V28.5183H249.092C249.049 29.3434 249.006 30.1096 248.948 30.9494H246.706V35.7672H244.406V-0.182617H267.778Z" fill="#0C2D57"/>
<path d="M488.902 11.7668H486.53V9.42414H484.159V4.59154H481.787V2.24891H479.502C479.459 1.42383 479.415 0.657682 479.372 -0.18213H477.188V-5H481.758V-2.6721H491.101V16.5404H488.916V11.7668H488.902Z" fill="#0C2D57"/>
<path d="M1284.4 21.4023H1286.61C1286.65 22.1537 1286.7 22.9051 1286.74 23.7449H1289V28.5775H1291.3V30.9054C1292.12 30.9643 1292.85 31.0233 1293.67 31.0822V35.7527C1294.49 35.7969 1295.22 35.8264 1296.04 35.8559V38.1838H1298.41V42.9427H1300.7C1300.74 43.7825 1300.78 44.5339 1300.84 45.3737H1303.1V50.2063H1305.47V52.6374H1307.77V57.3816C1308.59 57.4258 1309.32 57.4552 1310.14 57.4994V59.8274H1312.51V64.5863H1314.8C1314.84 65.4261 1314.88 66.1775 1314.94 67.0173H1317.18V71.8499H1319.56V74.281H1321.86V79.0252C1322.68 79.0694 1323.41 79.0988 1324.23 79.143V81.4709H1326.6V86.2299H1328.88C1328.93 87.0697 1328.99 87.8211 1329.03 88.6609H1331.27V93.4935H1333.64V95.9245H1335.94V100.669C1336.76 100.713 1337.49 100.742 1338.31 100.787V103.115H1340.69V107.873H1342.97C1343.03 108.713 1343.07 109.465 1343.11 110.304H1345.36V115.137H1347.66V119.94H1333.73V117.642H1326.64V115.211H1324.27V112.853H1322.1C1322.01 112.573 1321.9 112.367 1321.9 112.161C1321.88 110.805 1321.9 109.465 1321.9 108.021H1319.6V105.59H1317.23V103.159H1314.93V100.816C1314.11 100.772 1313.38 100.728 1312.56 100.683V95.9687H1310.18V93.6114H1307.9C1307.84 92.7716 1307.8 92.0202 1307.74 91.1803H1305.51V86.3477H1303.14V83.9167H1300.84V81.5741C1300.02 81.5299 1299.29 81.4857 1298.47 81.4415V76.7267H1296.1V74.3694H1293.81C1293.76 73.5295 1293.71 72.7781 1293.65 71.9383H1291.43V67.1057H1289.06V64.6747H1286.76V62.3763H1282.03V67.0321H1279.65V69.4631H1277.28V74.222H1274.98V76.6531H1272.61V79.0841H1270.31V83.8283C1269.49 83.8725 1268.76 83.9167 1267.94 83.9609V86.2741H1265.57V88.7051H1263.2V93.464H1260.91C1260.87 94.3039 1260.84 95.0553 1260.81 95.8951H1258.53V100.728H1256.23V103.07C1255.41 103.115 1254.67 103.159 1253.85 103.203V105.501H1251.48V110.334H1249.11V112.677H1246.81V117.509H1244.44V119.911H1237.44V117.76C1237.17 117.686 1236.96 117.568 1236.75 117.568C1232.29 117.568 1227.84 117.568 1223.32 117.568V98.3703H1225.57V93.5377H1227.94V91.1951H1230.24V86.3625H1232.61V81.5299H1234.91V79.1872C1235.73 79.1283 1236.46 79.0841 1237.28 79.0252V74.3399H1239.65V71.9089H1242.02V67.1499H1244.31C1244.35 66.3101 1244.4 65.5587 1244.44 64.7189H1246.7V59.8863H1249V57.5584C1249.81 57.4994 1250.55 57.4552 1251.37 57.3963V52.711H1253.74V47.8784H1256.11V45.5358H1258.41V40.7032H1260.78V38.2722H1263.08V33.528C1263.9 33.469 1264.63 33.4248 1265.45 33.3659V31.0822H1267.83V26.2496H1270.2V23.907H1272.5V19.0744H1274.87V16.6433H1277.17V11.8991C1277.99 11.8549 1278.72 11.8255 1279.54 11.7812V14.1386C1280.36 14.1681 1281.09 14.2123 1281.91 14.2418V16.5697H1284.37V21.4023H1284.4Z" fill="#0C2D57"/>
<path d="M1335.97 28.6371H1338.34V33.396H1340.71V38.155H1343C1343.06 38.9948 1343.11 39.7462 1343.17 40.586H1345.4V45.4186H1347.77V50.2512H1350.07V54.9954C1350.89 55.0396 1351.62 55.0838 1352.44 55.128V57.4412H1354.81V62.2001H1357.11C1357.16 61.5518 1357.21 60.8004 1357.27 59.9606H1359.5V55.128H1361.87V52.697H1364.17V47.9528C1364.99 47.9086 1365.72 47.8644 1366.54 47.8054V45.507H1368.91V40.7481H1371.2C1371.26 39.9083 1371.3 39.1568 1371.36 38.317H1373.59V33.4844H1375.96V28.6518H1378.26V26.3092C1379.08 26.265 1379.81 26.2208 1380.63 26.1619V21.4471H1383V19.0161H1385.37V14.2572H1387.67V11.8261H1390.04V6.99351H1392.34V4.65088C1393.16 4.60668 1393.9 4.56248 1394.71 4.51828V-0.122792H1418.22V2.08724H1416.02C1415.96 2.92705 1415.9 3.67846 1415.84 4.51828H1413.62V9.35088H1411.24V11.7819H1408.94V16.5261C1408.13 16.5703 1407.39 16.6145 1406.57 16.6587V21.3735H1404.2V23.8045H1401.83V28.5634H1399.54C1399.5 29.4032 1399.47 30.1546 1399.44 30.9945H1397.16V35.8271H1394.86V40.5713C1394.04 40.6155 1393.31 40.6597 1392.49 40.7039V43.017H1390.12V47.776H1387.83C1387.77 48.6158 1387.71 49.3672 1387.66 50.207H1385.43V55.0396H1383.06V57.4707H1380.76V62.2149C1379.94 62.2591 1379.21 62.3033 1378.39 62.3622V67.0769H1376.01V69.508H1373.64V74.2669H1371.34V76.6979H1368.97V81.5305H1366.67V83.8732C1365.85 83.9174 1365.12 83.9616 1364.3 84.0205V88.7352H1361.93V93.4942H1359.64C1359.59 94.334 1359.54 95.0854 1359.48 95.9252H1357.26V100.758H1354.89V103.189H1352.59V105.487H1350.21V100.831H1347.84V98.4741H1345.67C1345.59 98.1942 1345.47 97.9879 1345.47 97.7816C1345.46 96.4262 1345.47 95.0854 1345.47 93.6415H1343.17V91.2105H1340.8V86.3779H1338.5V84.0352C1337.68 83.991 1336.95 83.9468 1336.13 83.9026V79.1879H1333.76V76.8305H1331.59C1331.5 76.5506 1331.38 76.3443 1331.38 76.1381C1331.37 74.7826 1331.38 73.4418 1331.38 71.9979H1329.08V69.5669H1326.71V64.7343H1324.41V62.3917C1323.59 62.3475 1322.86 62.3033 1322.04 62.2591V57.5443H1319.67V55.1869H1317.5C1317.41 54.907 1317.3 54.7007 1317.3 54.4945C1317.28 53.139 1317.3 51.7982 1317.3 50.3543H1315V47.9233H1312.63V43.0907H1310.33V40.7481C1309.51 40.7039 1308.77 40.6597 1307.96 40.6155V35.9007H1305.58V33.5434H1303.41C1303.33 33.2634 1303.21 33.0572 1303.21 32.8509C1303.2 31.4954 1303.21 30.1546 1303.21 28.7108H1300.91V26.2797H1298.54V21.4471H1296.24V19.1045C1295.42 19.0603 1294.69 19.0161 1293.87 18.9719V14.2572H1291.5V11.8998H1289.33C1289.24 11.6198 1289.13 11.4136 1289.13 11.2073C1289.11 9.85182 1289.13 8.51107 1289.13 7.06718H1286.83V4.63614H1284.51V-0.166992H1321.96V2.11671C1322.77 2.16091 1323.51 2.20511 1324.33 2.24931V6.96405H1326.7V11.7966H1329.07V16.5556H1331.36C1331.4 17.3954 1331.43 18.1468 1331.46 18.9866H1333.74V23.8192H1336.04V28.6518L1335.97 28.6371Z" fill="#0C2D57"/>
<path d="M1425.32 19.0161H1427.7V23.775H1430.09V28.5339H1432.38C1432.43 29.3737 1432.48 30.1252 1432.53 30.965H1434.76V35.8123H1437.15V40.6596H1439.45V43.0023C1440.27 43.0465 1441 43.0907 1441.83 43.1349V47.8496H1444.22V52.6085H1446.51C1446.56 53.4484 1446.61 54.1998 1446.66 55.0396H1448.91V59.8869H1451.21V64.6311C1452.02 64.6901 1452.76 64.749 1453.58 64.8079V69.4785C1454.4 69.5227 1455.13 69.5521 1455.96 69.5963V71.9242H1458.35V76.6832H1460.62C1460.85 78.3039 1460.62 79.8803 1460.76 81.5158H1463.02V83.9468H1465.32V88.691C1466.14 88.7499 1466.87 88.8089 1467.69 88.8678V93.5383C1468.51 93.5825 1469.24 93.612 1470.08 93.6562V95.9841H1472.46V100.743H1474.71V120H1470.16V117.687H1460.81V112.942C1459.99 112.883 1459.25 112.839 1458.44 112.78V110.497H1456.05V105.649H1453.66V103.307H1451.36V98.4594H1448.98V96.0283H1446.68V93.6857C1445.86 93.6268 1445.13 93.5825 1444.31 93.5236V88.8236H1441.92V86.3926H1439.53V81.6336H1437.25C1437.21 80.7938 1437.18 80.0424 1437.13 79.2026H1434.86V74.3553H1432.56V72.0126C1431.74 71.9684 1431.01 71.9095 1430.19 71.8653V67.1653H1427.81V64.8079H1425.42V69.449H1423.13C1423.09 70.2888 1423.06 71.0402 1423.02 71.88H1420.75V76.7274H1418.45V79.07C1417.63 79.1142 1416.9 79.1584 1416.06 79.2173V83.9321H1413.68V86.2894H1411.39C1411.33 87.1292 1411.29 87.8807 1411.23 88.7205H1409V93.5678H1406.62V95.9989H1404.32V100.743C1403.5 100.787 1402.77 100.831 1401.93 100.876V103.189H1399.55V107.948H1397.26C1397.2 108.788 1397.16 109.539 1397.1 110.379H1394.86V112.81H1392.47V117.613H1357.27V112.913C1357.93 112.883 1358.68 112.839 1359.5 112.795V110.467H1361.89V105.708H1364.17C1364.22 104.868 1364.27 104.117 1364.32 103.277H1366.56V98.4299H1368.86V93.6857C1369.68 93.6268 1370.41 93.5678 1371.23 93.5089V91.2399C1372.05 91.1957 1372.78 91.1662 1373.62 91.122V86.3926H1376V84.0499H1378.3V79.2173H1380.69V76.7863H1382.99V72.0421C1383.81 71.9832 1384.54 71.939 1385.36 71.88V69.5963H1387.75V64.749H1390.13V59.9901H1392.42C1392.46 59.1502 1392.5 58.3988 1392.55 57.559H1394.8V52.7117H1397.1V50.3691C1397.92 50.3101 1398.66 50.2659 1399.47 50.207V45.507H1401.86V43.0759H1404.25V38.317H1406.53C1406.58 37.4772 1406.6 36.7258 1406.65 35.886H1408.92V31.0386H1411.22V26.2944C1412.04 26.2502 1412.77 26.1913 1413.59 26.1471V23.8487H1415.98V19.0013H1418.36V16.6587H1420.66V11.8408H1423.05V16.5703H1425.35V19.0013L1425.32 19.0161Z" fill="#0C2D57"/>
<path d="M1465.28 26.2212H1467.65V28.5638H1470.02V33.3964H1472.39V35.739H1474.63V42.9732H1472.45V81.4425H1470.08V79.1293H1467.78V74.3851C1466.96 74.3262 1466.23 74.282 1465.41 74.2231V69.5378H1463.03V64.7052H1460.66V62.3626H1458.36V57.5299H1455.99V52.6973H1453.62V50.2663H1451.32V45.5221C1450.5 45.4779 1449.77 45.4337 1448.95 45.3895V40.6748H1446.58V38.2437H1444.2V33.4995H1441.9V28.6669H1439.53V23.8343H1437.23V21.5064C1436.41 21.4475 1435.68 21.4033 1434.86 21.3444V16.6591C1434.04 16.6149 1433.31 16.5854 1432.49 16.556V11.8265H1430.12V9.46912H1427.85C1427.62 7.84843 1427.85 6.27194 1427.69 4.63652H1425.43V-0.196088H1423.13V-2.59766H1448.8V2.05814C1449.62 2.11708 1450.36 2.17601 1451.18 2.23495V4.50391C1452 4.54811 1452.73 4.57758 1453.55 4.62178V9.35125H1455.92V11.7086H1458.18C1458.41 13.3293 1458.18 14.9058 1458.33 16.5412H1460.58V18.9723H1462.95V23.8049H1465.25V26.2359L1465.28 26.2212Z" fill="#0C2D57"/>
<path d="M1284.26 81.5308H1286.63V79.2471H1291.36V81.5308H1293.74V86.2897H1296.04V88.7207H1298.43V91.1518H1300.73V95.896C1301.55 95.9402 1302.28 95.9844 1303.11 96.0286V98.3417H1305.5V103.101H1307.79C1307.84 103.941 1307.89 104.692 1307.94 105.532H1310.17V107.963H1312.56V112.795H1314.86V115.138C1315.68 115.182 1316.41 115.226 1317.24 115.271V117.584H1319.59V119.941H1263.26C1263.23 119.278 1263.2 118.512 1263.18 117.746C1263.18 116.95 1263.18 116.169 1263.18 115.285H1265.47C1265.51 114.446 1265.54 113.694 1265.58 112.854H1267.86V108.022H1270.15V105.679C1270.97 105.635 1271.71 105.591 1272.53 105.532V100.817H1274.91V98.3859H1277.3V93.627H1279.58C1279.63 92.7872 1279.66 92.0358 1279.68 91.196H1281.97V86.3634H1284.27V81.5308H1284.26Z" fill="#0C2D57"/>
<path d="M1408.86 110.394H1411.23V105.635H1413.6V100.802H1415.98V96.0433H1418.26C1418.3 95.2035 1418.35 94.4521 1418.39 93.6123H1420.65V88.7797H1422.95V84.0355C1423.77 83.9765 1424.5 83.9323 1425.32 83.8734V79.2471H1430.05V83.9176H1432.42V86.275H1434.69C1434.92 87.8957 1434.69 89.4722 1434.85 91.1076H1437.1V93.5386H1439.48V98.3712H1441.78V100.714C1442.6 100.758 1443.33 100.802 1444.15 100.846V105.561H1446.52V110.394H1448.89V112.736H1451.19V117.569H1453.51V119.971H1406.68V115.226H1408.85V110.394H1408.86Z" fill="#0C2D57"/>
<path d="M1227.82 45.4479H1230.21V43.1053H1232.59V38.3463H1234.88C1234.94 37.5065 1234.98 36.7551 1235.04 35.9153H1237.27V31.068H1239.65V28.6369H1241.95V23.8927C1242.77 23.8485 1243.52 23.8043 1244.34 23.7601V21.447H1246.72V16.688H1249.01C1249.07 15.8482 1249.11 15.0968 1249.15 14.257H1251.4V9.40964H1253.78V6.97861H1256.08V2.23441C1256.9 2.19021 1257.65 2.16074 1258.47 2.11654V-0.137695H1272.57V4.48864H1270.34V9.32124H1267.95V11.7523H1265.65V16.4965C1264.83 16.5554 1264.1 16.6143 1263.28 16.6733V18.957H1260.9V23.8043H1258.51V26.147H1256.21V30.9943H1253.82V35.8416H1251.52V38.1843C1250.71 38.2432 1249.97 38.2874 1249.15 38.3463V43.0463H1246.77V45.4774H1244.38V50.2363H1242.1C1242.05 51.0761 1242.01 51.8275 1241.98 52.6673H1239.71V57.5147H1237.41V62.2589C1236.59 62.3031 1235.86 62.362 1235.04 62.4062V64.7047H1232.65V69.552H1230.27V71.8946H1227.98C1227.94 72.7344 1227.91 73.4858 1227.87 74.3109H1225.65V50.3394H1227.82V45.4921V45.4479Z" fill="#0C2D57"/>
<path d="M1343.11 21.3284V16.6726C1342.38 16.6284 1341.65 16.5842 1340.83 16.5252V11.8252H1338.46V6.99262H1336.09V2.23368H1333.84V-0.182617H1383.02C1383.04 0.495126 1383.07 1.26127 1383.09 2.02741C1383.09 2.82303 1383.09 3.6039 1383.09 4.48792H1380.8C1380.76 5.313 1380.73 6.07914 1380.69 6.91895H1378.42V9.34999H1376.12V11.6779C1375.3 11.7368 1374.56 11.781 1373.75 11.84V16.5105C1372.93 16.5547 1372.19 16.5842 1371.37 16.6284V18.9563H1369V21.3136H1366.72C1366.66 22.1387 1366.62 22.9049 1366.56 23.7447H1364.33V28.5773H1361.96V31.0083H1359.66V33.3362C1358.84 33.3951 1358.11 33.4393 1357.29 33.4835V35.782H1354.92V38.1393H1352.54V33.513H1350.26V28.6804H1347.89V23.8478H1345.52V21.461C1344.61 21.402 1343.86 21.3726 1343.14 21.3284H1343.11Z" fill="#0C2D57"/>
<path d="M1249.02 -0.182617V4.48792H1246.78C1246.74 5.313 1246.71 6.07914 1246.67 6.91895H1244.4V11.7516H1242.02V14.1826H1239.74V18.9121C1238.93 18.9563 1238.19 19.0005 1237.37 19.0447V21.3431H1235V26.1757H1232.62V28.5183H1230.34C1230.3 29.3434 1230.25 30.1096 1230.19 30.9494H1227.95V35.7672H1225.65V-0.182617H1249.02Z" fill="#0C2D57"/>
<path d="M793.773 21.4023H795.987C796.03 22.1537 796.073 22.9051 796.116 23.7449H798.373V28.5775H800.672V30.9054C801.492 30.9643 802.225 31.0233 803.044 31.0822V35.7527C803.863 35.7969 804.596 35.8264 805.416 35.8559V38.1838H807.787V42.9427H810.073C810.116 43.7825 810.159 44.5339 810.216 45.3737H812.473V50.2063H814.845V52.6374H817.145V57.3816C817.964 57.4258 818.697 57.4552 819.516 57.4994V59.8274H821.888V64.5863H824.173C824.216 65.4261 824.26 66.1775 824.317 67.0173H826.559V71.8499H828.931V74.281H831.231V79.0252C832.05 79.0694 832.783 79.0988 833.602 79.143V81.4709H835.974V86.2299H838.26C838.303 87.0697 838.36 87.8211 838.403 88.6609H840.646V93.4935H843.017V95.9245H845.317V100.669C846.136 100.713 846.869 100.742 847.689 100.787V103.115H850.06V107.873H852.346C852.403 108.713 852.446 109.465 852.489 110.304H854.732V115.137H857.032V119.94H843.103V117.642H836.017V115.211H833.646V112.853H831.475C831.389 112.573 831.274 112.367 831.274 112.161C831.26 110.805 831.274 109.465 831.274 108.021H828.974V105.59H826.602V103.159H824.303V100.816C823.483 100.772 822.75 100.728 821.931 100.683V95.9687H819.559V93.6114H817.274C817.216 92.7716 817.173 92.0202 817.116 91.1803H814.888V86.3477H812.516V83.9167H810.216V81.5741C809.397 81.5299 808.664 81.4857 807.845 81.4415V76.7267H805.473V74.3694H803.188C803.13 73.5295 803.087 72.7781 803.03 71.9383H800.802V67.1057H798.43V64.6747H796.13V62.3763H791.401V67.0321H789.03V69.4631H786.658V74.222H784.358V76.6531H781.987V79.0841H779.687V83.8283C778.867 83.8725 778.134 83.9167 777.315 83.9609V86.2741H774.943V88.7051H772.572V93.464H770.286C770.243 94.3039 770.215 95.0553 770.186 95.8951H767.9V100.728H765.601V103.07C764.781 103.115 764.048 103.159 763.229 103.203V105.501H760.857V110.334H758.486V112.677H756.186V117.509H753.814V119.911H746.814V117.76C746.541 117.686 746.34 117.568 746.124 117.568C741.668 117.568 737.213 117.568 732.699 117.568V98.3703H734.942V93.5377H737.313V91.1951H739.613V86.3625H741.985V81.5299H744.284V79.1872C745.104 79.1283 745.837 79.0841 746.656 79.0252V74.3399H749.028V71.9089H751.399V67.1499H753.685C753.728 66.3101 753.771 65.5587 753.814 64.7189H756.071V59.8863H758.371V57.5584C759.19 57.4994 759.923 57.4552 760.742 57.3963V52.711H763.114V47.8784H765.486V45.5358H767.785V40.7032H770.157V38.2722H772.457V33.528C773.276 33.469 774.009 33.4248 774.828 33.3659V31.0822H777.2V26.2496H779.572V23.907H781.872V19.0744H784.243V16.6433H786.543V11.8991C787.362 11.8549 788.095 11.8255 788.915 11.7812V14.1386C789.734 14.1681 790.467 14.2123 791.286 14.2418V16.5697H793.744V21.4023H793.773Z" fill="#0C2D57"/>
<path d="M845.344 28.6371H847.716V33.396H850.088V38.155H852.373C852.431 38.9948 852.488 39.7462 852.546 40.586H854.774V45.4186H857.145V50.2512H859.445V54.9954C860.264 55.0396 860.997 55.0838 861.817 55.128V57.4412H864.188V62.2001H866.488C866.531 61.5518 866.589 60.8004 866.646 59.9606H868.874V55.128H871.246V52.697H873.546V47.9528C874.365 47.9086 875.098 47.8644 875.917 47.8054V45.507H878.289V40.7481H880.574C880.632 39.9083 880.675 39.1568 880.732 38.317H882.96V33.4844H885.332V28.6518H887.632V26.3092C888.451 26.265 889.184 26.2208 890.004 26.1619V21.4471H892.375V19.0161H894.747V14.2572H897.047V11.8261H899.418V6.99351H901.718V4.65088C902.537 4.60668 903.27 4.56248 904.09 4.51828V-0.122792H927.591V2.08724H925.392C925.334 2.92705 925.277 3.67846 925.219 4.51828H922.991V9.35088H920.619V11.7819H918.32V16.5261C917.5 16.5703 916.767 16.6145 915.948 16.6587V21.3735H913.576V23.8045H911.205V28.5634H908.919C908.876 29.4032 908.847 30.1546 908.819 30.9945H906.533V35.8271H904.233V40.5713C903.414 40.6155 902.681 40.6597 901.862 40.7039V43.017H899.49V47.776H897.205C897.147 48.6158 897.09 49.3672 897.032 50.207H894.804V55.0396H892.433V57.4707H890.133V62.2149C889.314 62.2591 888.581 62.3033 887.761 62.3622V67.0769H885.39V69.508H883.018V74.2669H880.718V76.6979H878.346V81.5305H876.047V83.8732C875.227 83.9174 874.494 83.9616 873.675 84.0205V88.7352H871.303V93.4942H869.018C868.96 94.334 868.917 95.0854 868.86 95.9252H866.632V100.758H864.26V103.189H861.96V105.487H859.589V100.831H857.217V98.4741H855.047C854.96 98.1942 854.845 97.9879 854.845 97.7816C854.831 96.4262 854.845 95.0854 854.845 93.6415H852.546V91.2105H850.174V86.3779H847.874V84.0352C847.055 83.991 846.322 83.9468 845.503 83.9026V79.1879H843.131V76.8305H840.961C840.874 76.5506 840.759 76.3443 840.759 76.1381C840.745 74.7826 840.759 73.4418 840.759 71.9979H838.46V69.5669H836.088V64.7343H833.788V62.3917C832.969 62.3475 832.236 62.3033 831.416 62.2591V57.5443H829.045V55.1869H826.874C826.788 54.907 826.673 54.7007 826.673 54.4945C826.659 53.139 826.673 51.7982 826.673 50.3543H824.373V47.9233H822.002V43.0907H819.702V40.7481C818.883 40.7039 818.149 40.6597 817.33 40.6155V35.9007H814.959V33.5434H812.788C812.702 33.2634 812.587 33.0572 812.587 32.8509C812.573 31.4954 812.587 30.1546 812.587 28.7108H810.287V26.2797H807.915V21.4471H805.616V19.1045C804.796 19.0603 804.063 19.0161 803.244 18.9719V14.2572H800.872V11.8998H798.702C798.616 11.6198 798.501 11.4136 798.501 11.2073C798.486 9.85182 798.501 8.51107 798.501 7.06718H796.201V4.63614H793.887V-0.166992H831.33V2.11671C832.149 2.16091 832.883 2.20511 833.702 2.24931V6.96405H836.073V11.7966H838.445V16.5556H840.731C840.774 17.3954 840.802 18.1468 840.831 18.9866H843.117V23.8192H845.416V28.6518L845.344 28.6371Z" fill="#0C2D57"/>
<path d="M934.693 19.0161H937.079V23.775H939.466V28.5339H941.751C941.808 29.3737 941.852 30.1252 941.909 30.965H944.137V35.8123H946.523V40.6596H948.823V43.0023C949.642 43.0465 950.375 43.0907 951.209 43.1349V47.8496H953.595V52.6085H955.88C955.938 53.4484 955.981 54.1998 956.038 55.0396H958.281V59.8869H960.58V64.6311C961.4 64.6901 962.133 64.749 962.952 64.8079V69.4785C963.771 69.5227 964.504 69.5521 965.338 69.5963V71.9242H967.724V76.6832H969.995C970.225 78.3039 969.995 79.8803 970.139 81.5158H972.396V83.9468H974.695V88.691C975.515 88.7499 976.248 88.8089 977.067 88.8678V93.5383C977.886 93.5825 978.619 93.612 979.453 93.6562V95.9841H981.839V100.743H984.081V120H979.539V117.687H970.182V112.942C969.363 112.883 968.63 112.839 967.81 112.78V110.497H965.424V105.649H963.038V103.307H960.739V98.4594H958.353V96.0283H956.053V93.6857C955.233 93.6268 954.5 93.5825 953.681 93.5236V88.8236H951.295V86.3926H948.909V81.6336H946.624C946.58 80.7938 946.552 80.0424 946.509 79.2026H944.238V74.3553H941.938V72.0126C941.118 71.9684 940.385 71.9095 939.566 71.8653V67.1653H937.18V64.8079H934.794V69.449H932.509C932.466 70.2888 932.437 71.0402 932.394 71.88H930.123V76.7274H927.823V79.07C927.004 79.1142 926.27 79.1584 925.437 79.2173V83.9321H923.051V86.2894H920.765C920.708 87.1292 920.665 87.8807 920.607 88.7205H918.379V93.5678H915.993V95.9989H913.693V100.743C912.874 100.787 912.141 100.831 911.307 100.876V103.189H908.921V107.948H906.636C906.579 108.788 906.535 109.539 906.478 110.379H904.236V112.81H901.85V117.613H866.648V112.913C867.31 112.883 868.057 112.839 868.876 112.795V110.467H871.262V105.708H873.548C873.591 104.868 873.648 104.117 873.692 103.277H875.934V98.4299H878.234V93.6857C879.053 93.6268 879.786 93.5678 880.605 93.5089V91.2399C881.425 91.1957 882.158 91.1662 882.991 91.122V86.3926H885.377V84.0499H887.677V79.2173H890.063V76.7863H892.363V72.0421C893.182 71.9832 893.915 71.939 894.735 71.88V69.5963H897.121V64.749H899.507V59.9901H901.792C901.835 59.1502 901.878 58.3988 901.921 57.559H904.178V52.7117H906.478V50.3691C907.297 50.3101 908.03 50.2659 908.85 50.207V45.507H911.236V43.0759H913.622V38.317H915.907C915.95 37.4772 915.979 36.7258 916.022 35.886H918.293V31.0386H920.593V26.2944C921.412 26.2502 922.145 26.1913 922.965 26.1471V23.8487H925.351V19.0013H927.737V16.6587H930.036V11.8408H932.422V16.5703H934.722V19.0013L934.693 19.0161Z" fill="#0C2D57"/>
<path d="M974.651 26.2212H977.023V28.5638H979.395V33.3964H981.766V35.739H984.009V42.9732H981.824V81.4425H979.452V79.1293H977.152V74.3851C976.333 74.3262 975.6 74.282 974.781 74.2231V69.5378H972.409V64.7052H970.037V62.3626H967.738V57.5299H965.366V52.6973H962.994V50.2663H960.695V45.5221C959.875 45.4779 959.142 45.4337 958.323 45.3895V40.6748H955.951V38.2437H953.58V33.4995H951.28V28.6669H948.908V23.8343H946.608V21.5064C945.789 21.4475 945.056 21.4033 944.237 21.3444V16.6591C943.417 16.6149 942.684 16.5854 941.865 16.556V11.8265H939.493V9.46912H937.222C936.992 7.84843 937.222 6.27194 937.064 4.63652H934.808V-0.196088H932.508V-2.59766H958.179V2.05814C958.999 2.11708 959.732 2.17601 960.551 2.23495V4.50391C961.37 4.54811 962.103 4.57758 962.923 4.62178V9.35125H965.294V11.7086H967.551C967.781 13.3293 967.551 14.9058 967.709 16.5412H969.951V18.9723H972.323V23.8049H974.623V26.2359L974.651 26.2212Z" fill="#0C2D57"/>
<path d="M793.63 81.5308H796.002V79.2471H800.731V81.5308H803.117V86.2897H805.417V88.7207H807.803V91.1518H810.103V95.896C810.922 95.9402 811.655 95.9844 812.489 96.0286V98.3417H814.875V103.101H817.16C817.218 103.941 817.261 104.692 817.318 105.532H819.546V107.963H821.932V112.795H824.232V115.138C825.051 115.182 825.784 115.226 826.618 115.271V117.584H828.961V119.941H772.63C772.602 119.278 772.573 118.512 772.559 117.746C772.559 116.95 772.559 116.169 772.559 115.285H774.844C774.887 114.446 774.916 113.694 774.959 112.854H777.23V108.022H779.53V105.679C780.349 105.635 781.082 105.591 781.901 105.532V100.817H784.288V98.3859H786.674V93.627H788.959C789.002 92.7872 789.031 92.0358 789.06 91.196H791.345V86.3634H793.645V81.5308H793.63Z" fill="#0C2D57"/>
<path d="M918.236 110.394H920.607V105.635H922.979V100.802H925.351V96.0433H927.636C927.679 95.2035 927.722 94.4521 927.765 93.6123H930.022V88.7797H932.322V84.0355C933.141 83.9765 933.874 83.9323 934.693 83.8734V79.2471H939.422V83.9176H941.794V86.275H944.065C944.295 87.8957 944.065 89.4722 944.223 91.1076H946.48V93.5386H948.852V98.3712H951.151V100.714C951.971 100.758 952.704 100.802 953.523 100.846V105.561H955.895V110.394H958.266V112.736H960.566V117.569H962.88V119.971H916.051V115.226H918.221V110.394H918.236Z" fill="#0C2D57"/>
<path d="M737.198 45.4479H739.584V43.1053H741.97V38.3463H744.255C744.313 37.5065 744.356 36.7551 744.413 35.9153H746.641V31.068H749.027V28.6369H751.327V23.8927C752.146 23.8485 752.894 23.8043 753.713 23.7601V21.447H756.099V16.688H758.385C758.442 15.8482 758.485 15.0968 758.528 14.257H760.771V9.40964H763.157V6.97861H765.456V2.23441C766.276 2.19021 767.023 2.16074 767.842 2.11654V-0.137695H781.943V4.48864H779.715V9.32124H777.329V11.7523H775.029V16.4965C774.21 16.5554 773.477 16.6143 772.658 16.6733V18.957H770.272V23.8043H767.886V26.147H765.586V30.9943H763.2V35.8416H760.9V38.1843C760.081 38.2432 759.348 38.2874 758.528 38.3463V43.0463H756.142V45.4774H753.756V50.2363H751.471C751.428 51.0761 751.385 51.8275 751.356 52.6673H749.085V57.5147H746.785V62.2589C745.966 62.3031 745.233 62.362 744.413 62.4062V64.7047H742.027V69.552H739.641V71.8946H737.356C737.313 72.7344 737.284 73.4858 737.241 74.3109H735.027V50.3394H737.198V45.4921V45.4479Z" fill="#0C2D57"/>
<path d="M852.49 21.3284V16.6726C851.757 16.6284 851.024 16.5842 850.204 16.5252V11.8252H847.833V6.99262H845.461V2.23368H843.219V-0.182617H892.391C892.42 0.495126 892.449 1.26127 892.463 2.02741C892.463 2.82303 892.463 3.6039 892.463 4.48792H890.178C890.134 5.313 890.106 6.07914 890.063 6.91895H887.792V9.34999H885.492V11.6779C884.672 11.7368 883.939 11.781 883.12 11.84V16.5105C882.301 16.5547 881.568 16.5842 880.748 16.6284V18.9563H878.377V21.3136H876.091C876.034 22.1387 875.991 22.9049 875.933 23.7447H873.705V28.5773H871.334V31.0083H869.034V33.3362C868.215 33.3951 867.482 33.4393 866.662 33.4835V35.782H864.291V38.1393H861.919V33.513H859.633V28.6804H857.262V23.8478H854.89V21.461C853.985 21.402 853.237 21.3726 852.519 21.3284H852.49Z" fill="#0C2D57"/>
<path d="M758.399 -0.182617V4.48792H756.157C756.114 5.313 756.085 6.07914 756.042 6.91895H753.771V11.7516H751.399V14.1826H749.114V18.9121C748.309 18.9563 747.561 19.0005 746.742 19.0447V21.3431H744.37V26.1757H741.999V28.5183H739.713C739.67 29.3434 739.627 30.1096 739.569 30.9494H737.327V35.7672H735.027V-0.182617H758.399Z" fill="#0C2D57"/>
<path d="M979.525 11.7668H977.153V9.42414H974.782V4.59154H972.41V2.24891H970.125C970.082 1.42383 970.038 0.657682 969.995 -0.18213H967.811V-5H972.381V-2.6721H981.724V16.5404H979.539V11.7668H979.525Z" fill="#0C2D57"/>
<path d="M677.737 21.4023H675.523C675.48 22.1537 675.437 22.9051 675.394 23.7449H673.137V28.5775H670.837V30.9054C670.018 30.9643 669.285 31.0233 668.466 31.0822V35.7527C667.646 35.7969 666.913 35.8264 666.094 35.8559V38.1838H663.722V42.9427H661.437C661.394 43.7825 661.351 44.5339 661.293 45.3737H659.037V50.2063H656.665V52.6374H654.365V57.3816C653.546 57.4258 652.813 57.4552 651.994 57.4994V59.8274H649.622V64.5863H647.336C647.293 65.4261 647.25 66.1775 647.193 67.0173H644.95V71.8499H642.579V74.281H640.279V79.0252C639.46 79.0694 638.727 79.0988 637.907 79.143V81.4709H635.536V86.2299H633.25C633.207 87.0697 633.15 87.8211 633.107 88.6609H630.864V93.4935H628.493V95.9245H626.193V100.669C625.373 100.713 624.64 100.742 623.821 100.787V103.115H621.449V107.873H619.164C619.107 108.713 619.063 109.465 619.02 110.304H616.778V115.137H614.478V119.94H628.406V117.642H635.493V115.211H637.864V112.853H640.035C640.121 112.573 640.236 112.367 640.236 112.161C640.25 110.805 640.236 109.465 640.236 108.021H642.536V105.59H644.907V103.159H647.207V100.816C648.026 100.772 648.759 100.728 649.579 100.683V95.9687H651.95V93.6114H654.236C654.293 92.7716 654.336 92.0202 654.394 91.1803H656.622V86.3477H658.993V83.9167H661.293V81.5741C662.113 81.5299 662.846 81.4857 663.665 81.4415V76.7267H666.037V74.3694H668.322C668.38 73.5295 668.423 72.7781 668.48 71.9383H670.708V67.1057H673.08V64.6747H675.379V62.3763H680.108V67.0321H682.48V69.4631H684.852V74.222H687.152V76.6531H689.523V79.0841H691.823V83.8283C692.642 83.8725 693.375 83.9167 694.195 83.9609V86.2741H696.566V88.7051H698.938V93.464H701.223C701.266 94.3039 701.295 95.0553 701.324 95.8951H703.609V100.728H705.909V103.07C706.728 103.115 707.462 103.159 708.281 103.203V105.501H710.653V110.334H713.024V112.677H715.324V117.509H717.696V119.911H724.696V117.76C724.969 117.686 725.17 117.568 725.386 117.568C729.841 117.568 734.297 117.568 738.811 117.568V98.3703H736.568V93.5377H734.197V91.1951H731.897V86.3625H729.525V81.5299H727.225V79.1872C726.406 79.1283 725.673 79.0841 724.854 79.0252V74.3399H722.482V71.9089H720.11V67.1499H717.825C717.782 66.3101 717.739 65.5587 717.696 64.7189H715.439V59.8863H713.139V57.5584C712.32 57.4994 711.587 57.4552 710.767 57.3963V52.711H708.396V47.8784H706.024V45.5358H703.724V40.7032H701.353V38.2722H699.053V33.528C698.234 33.469 697.501 33.4248 696.681 33.3659V31.0822H694.31V26.2496H691.938V23.907H689.638V19.0744H687.267V16.6433H684.967V11.8991C684.147 11.8549 683.414 11.8255 682.595 11.7812V14.1386C681.776 14.1681 681.043 14.2123 680.223 14.2418V16.5697H677.766V21.4023H677.737Z" fill="#0C2D57"/>
<path d="M626.163 28.6371H623.792V33.396H621.42V38.155H619.135C619.077 38.9948 619.02 39.7462 618.962 40.586H616.734V45.4186H614.363V50.2512H612.063V54.9954C611.243 55.0396 610.51 55.0838 609.691 55.128V57.4412H607.319V62.2001H605.02C604.977 61.5518 604.919 60.8004 604.862 59.9606H602.634V55.128H600.262V52.697H597.962V47.9528C597.143 47.9086 596.41 47.8644 595.591 47.8054V45.507H593.219V40.7481H590.933C590.876 39.9083 590.833 39.1568 590.775 38.317H588.547V33.4844H586.176V28.6518H583.876V26.3092C583.057 26.265 582.324 26.2208 581.504 26.1619V21.4471H579.133V19.0161H576.761V14.2572H574.461V11.8261H572.09V6.99351H569.79V4.65088C568.97 4.60668 568.237 4.56248 567.418 4.51828V-0.122792H543.917V2.08724H546.116C546.174 2.92705 546.231 3.67846 546.289 4.51828H548.517V9.35088H550.888V11.7819H553.188V16.5261C554.007 16.5703 554.741 16.6145 555.56 16.6587V21.3735H557.931V23.8045H560.303V28.5634H562.589C562.632 29.4032 562.66 30.1546 562.689 30.9945H564.975V35.8271H567.274V40.5713C568.094 40.6155 568.827 40.6597 569.646 40.7039V43.017H572.018V47.776H574.303C574.361 48.6158 574.418 49.3672 574.476 50.207H576.703V55.0396H579.075V57.4707H581.375V62.2149C582.194 62.2591 582.927 62.3033 583.747 62.3622V67.0769H586.118V69.508H588.49V74.2669H590.79V76.6979H593.161V81.5305H595.461V83.8732C596.28 83.9174 597.013 83.9616 597.833 84.0205V88.7352H600.204V93.4942H602.49C602.547 94.334 602.59 95.0854 602.648 95.9252H604.876V100.758H607.248V103.189H609.547V105.487H611.919V100.831H614.291V98.4741H616.461C616.547 98.1942 616.662 97.9879 616.662 97.7816C616.677 96.4262 616.662 95.0854 616.662 93.6415H618.962V91.2105H621.334V86.3779H623.634V84.0352C624.453 83.991 625.186 83.9468 626.005 83.9026V79.1879H628.377V76.8305H630.547C630.634 76.5506 630.749 76.3443 630.749 76.1381C630.763 74.7826 630.749 73.4418 630.749 71.9979H633.048V69.5669H635.42V64.7343H637.72V62.3917C638.539 62.3475 639.272 62.3033 640.091 62.2591V57.5443H642.463V55.1869H644.633C644.72 54.907 644.835 54.7007 644.835 54.4945C644.849 53.139 644.835 51.7982 644.835 50.3543H647.135V47.9233H649.506V43.0907H651.806V40.7481C652.625 40.7039 653.358 40.6597 654.178 40.6155V35.9007H656.549V33.5434H658.72C658.806 33.2634 658.921 33.0572 658.921 32.8509C658.935 31.4954 658.921 30.1546 658.921 28.7108H661.221V26.2797H663.592V21.4471H665.892V19.1045C666.711 19.0603 667.445 19.0161 668.264 18.9719V14.2572H670.635V11.8998H672.806C672.892 11.6198 673.007 11.4136 673.007 11.2073C673.022 9.85182 673.007 8.51107 673.007 7.06718H675.307V4.63614H677.621V-0.166992H640.178V2.11671C639.358 2.16091 638.625 2.20511 637.806 2.24931V6.96405H635.434V11.7966H633.063V16.5556H630.777C630.734 17.3954 630.705 18.1468 630.677 18.9866H628.391V23.8192H626.091V28.6518L626.163 28.6371Z" fill="#0C2D57"/>
<path d="M536.816 19.0161H534.43V23.775H532.044V28.5339H529.759C529.701 29.3737 529.658 30.1252 529.601 30.965H527.373V35.8123H524.987V40.6596H522.687V43.0023C521.868 43.0465 521.135 43.0907 520.301 43.1349V47.8496H517.915V52.6085H515.63C515.572 53.4484 515.529 54.1998 515.471 55.0396H513.229V59.8869H510.929V64.6311C510.11 64.6901 509.377 64.749 508.558 64.8079V69.4785C507.738 69.5227 507.005 69.5521 506.172 69.5963V71.9242H503.786V76.6832H501.515C501.285 78.3039 501.515 79.8803 501.371 81.5158H499.114V83.9468H496.814V88.691C495.995 88.7499 495.262 88.8089 494.443 88.8678V93.5383C493.623 93.5825 492.89 93.612 492.057 93.6562V95.9841H489.671V100.743H487.428V120H491.97V117.687H501.328V112.942C502.147 112.883 502.88 112.839 503.699 112.78V110.497H506.085V105.649H508.471V103.307H510.771V98.4594H513.157V96.0283H515.457V93.6857C516.276 93.6268 517.009 93.5825 517.829 93.5236V88.8236H520.215V86.3926H522.601V81.6336H524.886C524.929 80.7938 524.958 80.0424 525.001 79.2026H527.272V74.3553H529.572V72.0126C530.391 71.9684 531.124 71.9095 531.944 71.8653V67.1653H534.33V64.8079H536.716V69.449H539.001C539.044 70.2888 539.073 71.0402 539.116 71.88H541.387V76.7274H543.687V79.07C544.506 79.1142 545.239 79.1584 546.073 79.2173V83.9321H548.459V86.2894H550.744C550.802 87.1292 550.845 87.8807 550.903 88.7205H553.13V93.5678H555.516V95.9989H557.816V100.743C558.636 100.787 559.369 100.831 560.202 100.876V103.189H562.588V107.948H564.874C564.931 108.788 564.974 109.539 565.032 110.379H567.274V112.81H569.66V117.613H604.861V112.913C604.2 112.883 603.453 112.839 602.633 112.795V110.467H600.247V105.708H597.962C597.919 104.868 597.861 104.117 597.818 103.277H595.576V98.4299H593.276V93.6857C592.457 93.6268 591.724 93.5678 590.904 93.5089V91.2399C590.085 91.1957 589.352 91.1662 588.518 91.122V86.3926H586.132V84.0499H583.833V79.2173H581.447V76.7863H579.147V72.0421C578.328 71.9832 577.594 71.939 576.775 71.88V69.5963H574.389V64.749H572.003V59.9901H569.718C569.675 59.1502 569.631 58.3988 569.588 57.559H567.332V52.7117H565.032V50.3691C564.213 50.3101 563.48 50.2659 562.66 50.207V45.507H560.274V43.0759H557.888V38.317H555.603C555.56 37.4772 555.531 36.7258 555.488 35.886H553.217V31.0386H550.917V26.2944C550.098 26.2502 549.365 26.1913 548.545 26.1471V23.8487H546.159V19.0013H543.773V16.6587H541.473V11.8408H539.087V16.5703H536.788V19.0013L536.816 19.0161Z" fill="#0C2D57"/>
<path d="M496.858 26.2212H494.487V28.5638H492.115V33.3964H489.743V35.739H487.501V42.9732H489.686V81.4425H492.058V79.1293H494.357V74.3851C495.177 74.3262 495.91 74.282 496.729 74.2231V69.5378H499.101V64.7052H501.472V62.3626H503.772V57.5299H506.144V52.6973H508.515V50.2663H510.815V45.5221C511.634 45.4779 512.368 45.4337 513.187 45.3895V40.6748H515.558V38.2437H517.93V33.4995H520.23V28.6669H522.602V23.8343H524.901V21.5064C525.721 21.4475 526.454 21.4033 527.273 21.3444V16.6591C528.092 16.6149 528.825 16.5854 529.645 16.556V11.8265H532.016V9.46912H534.287C534.517 7.84843 534.287 6.27194 534.445 4.63652H536.702V-0.196088H539.002V-2.59766H513.331V2.05814C512.511 2.11708 511.778 2.17601 510.959 2.23495V4.50391C510.14 4.54811 509.407 4.57758 508.587 4.62178V9.35125H506.216V11.7086H503.959C503.729 13.3293 503.959 14.9058 503.801 16.5412H501.559V18.9723H499.187V23.8049H496.887V26.2359L496.858 26.2212Z" fill="#0C2D57"/>
<path d="M677.881 81.5298H675.51V79.2461H670.781V81.5298H668.395V86.2887H666.095V88.7198H663.709V91.1508H661.409V95.895C660.59 95.9392 659.857 95.9834 659.023 96.0276V98.3408H656.637V103.1H654.352C654.294 103.94 654.251 104.691 654.193 105.531H651.966V107.962H649.58V112.794H647.28V115.137C646.46 115.181 645.727 115.225 644.894 115.27V117.583H642.551V119.94H698.881C698.91 119.277 698.939 118.511 698.953 117.745C698.953 116.949 698.953 116.168 698.953 115.284H696.668C696.625 114.445 696.596 113.693 696.553 112.853H694.282V108.021H691.982V105.678C691.163 105.634 690.43 105.59 689.61 105.531V100.816H687.224V98.385H684.838V93.626H682.553C682.51 92.7862 682.481 92.0348 682.452 91.195H680.167V86.3624H677.867V81.5298H677.881Z" fill="#0C2D57"/>
<path d="M553.276 110.393H550.904V105.634H548.533V100.801H546.161V96.0423H543.876C543.833 95.2025 543.789 94.4511 543.746 93.6113H541.49V88.7787H539.19V84.0345C538.371 83.9756 537.638 83.9314 536.818 83.8724V79.2461H532.089V83.9166H529.718V86.274H527.447C527.217 87.8947 527.447 89.4712 527.289 91.1066H525.032V93.5376H522.66V98.3702H520.36V100.713C519.541 100.757 518.808 100.801 517.989 100.845V105.56H515.617V110.393H513.245V112.735H510.946V117.568H508.631V119.97H555.461V115.225H553.29V110.393H553.276Z" fill="#0C2D57"/>
<path d="M734.31 45.4479H731.924V43.1053H729.538V38.3463H727.253C727.195 37.5065 727.152 36.7551 727.094 35.9153H724.867V31.068H722.481V28.6369H720.181V23.8927C719.361 23.8485 718.614 23.8043 717.795 23.7601V21.447H715.409V16.688H713.123C713.066 15.8482 713.023 15.0968 712.98 14.257H710.737V9.40964H708.351V6.97861H706.051V2.23441C705.232 2.19021 704.485 2.16074 703.665 2.11654V-0.137695H689.565V4.48864H691.793V9.32124H694.179V11.7523H696.479V16.4965C697.298 16.5554 698.031 16.6143 698.85 16.6733V18.957H701.236V23.8043H703.622V26.147H705.922V30.9943H708.308V35.8416H710.608V38.1843C711.427 38.2432 712.16 38.2874 712.98 38.3463V43.0463H715.366V45.4774H717.752V50.2363H720.037C720.08 51.0761 720.123 51.8275 720.152 52.6673H722.423V57.5147H724.723V62.2589C725.542 62.3031 726.275 62.362 727.094 62.4062V64.7047H729.48V69.552H731.867V71.8946H734.152C734.195 72.7344 734.224 73.4858 734.267 74.3109H736.48V50.3394H734.31V45.4921V45.4479Z" fill="#0C2D57"/>
<path d="M619.022 21.3284V16.6726C619.755 16.6284 620.488 16.5842 621.307 16.5252V11.8252H623.679V6.99262H626.051V2.23368H628.293V-0.182617H579.121C579.092 0.495126 579.063 1.26127 579.049 2.02741C579.049 2.82303 579.049 3.6039 579.049 4.48792H581.334C581.377 5.313 581.406 6.07914 581.449 6.91895H583.72V9.34999H586.02V11.6779C586.839 11.7368 587.572 11.781 588.392 11.84V16.5105C589.211 16.5547 589.944 16.5842 590.763 16.6284V18.9563H593.135V21.3136H595.42C595.478 22.1387 595.521 22.9049 595.578 23.7447H597.806V28.5773H600.178V31.0083H602.478V33.3362C603.297 33.3951 604.03 33.4393 604.849 33.4835V35.782H607.221V38.1393H609.593V33.513H611.878V28.6804H614.25V23.8478H616.622V21.461C617.527 21.402 618.275 21.3726 618.993 21.3284H619.022Z" fill="#0C2D57"/>
<path d="M713.109 -0.182617V4.48792H715.351C715.394 5.313 715.423 6.07914 715.466 6.91895H717.737V11.7516H720.109V14.1826H722.394V18.9121C723.199 18.9563 723.947 19.0005 724.766 19.0447V21.3431H727.138V26.1757H729.509V28.5183H731.795C731.838 29.3434 731.881 30.1096 731.938 30.9494H734.181V35.7672H736.48V-0.182617H713.109Z" fill="#0C2D57"/>
<path d="M491.985 11.7668H494.356V9.42414H496.728V4.59154H499.1V2.2489H501.385C501.428 1.42383 501.471 0.657681 501.514 -0.182131H503.699V-5H499.128V-2.6721H489.786V16.5404H491.97V11.7668H491.985Z" fill="#0C2D57"/>
<path d="M188.307 21.4023H186.094C186.05 22.1537 186.007 22.9051 185.964 23.7449H183.708V28.5775H181.408V30.9054C180.588 30.9643 179.855 31.0233 179.036 31.0822V35.7527C178.217 35.7969 177.484 35.8264 176.664 35.8559V38.1838H174.293V42.9427H172.007C171.964 43.7825 171.921 44.5339 171.864 45.3737H169.607V50.2063H167.235V52.6374H164.935V57.3816C164.116 57.4258 163.383 57.4552 162.564 57.4994V59.8274H160.192V64.5863H157.907C157.864 65.4261 157.821 66.1775 157.763 67.0173H155.521V71.8499H153.149V74.281H150.849V79.0252C150.03 79.0694 149.297 79.0988 148.478 79.143V81.4709H146.106V86.2299H143.821C143.777 87.0697 143.72 87.8211 143.677 88.6609H141.435V93.4935H139.063V95.9245H136.763V100.669C135.944 100.713 135.211 100.742 134.391 100.787V103.115H132.02V107.873H129.734C129.677 108.713 129.634 109.465 129.591 110.304H127.348V115.137H125.049V119.94H138.977V117.642H146.063V115.211H148.434V112.853H150.605C150.691 112.573 150.806 112.367 150.806 112.161C150.821 110.805 150.806 109.465 150.806 108.021H153.106V105.59H155.478V103.159H157.777V100.816C158.597 100.772 159.33 100.728 160.149 100.683V95.9687H162.521V93.6114H164.806C164.864 92.7716 164.907 92.0202 164.964 91.1803H167.192V86.3477H169.564V83.9167H171.864V81.5741C172.683 81.5299 173.416 81.4857 174.235 81.4415V76.7267H176.607V74.3694H178.892C178.95 73.5295 178.993 72.7781 179.05 71.9383H181.278V67.1057H183.65V64.6747H185.95V62.3763H190.679V67.0321H193.05V69.4631H195.422V74.222H197.722V76.6531H200.094V79.0841H202.393V83.8283C203.213 83.8725 203.946 83.9167 204.765 83.9609V86.2741H207.137V88.7051H209.508V93.464H211.794C211.837 94.3039 211.866 95.0553 211.894 95.8951H214.18V100.728H216.48V103.07C217.299 103.115 218.032 103.159 218.851 103.203V105.501H221.223V110.334H223.594V112.677H225.894V117.509H228.266V119.911H235.266V117.76C235.539 117.686 235.74 117.568 235.956 117.568C240.412 117.568 244.868 117.568 249.381 117.568V98.3703H247.139V93.5377H244.767V91.1951H242.467V86.3625H240.095V81.5299H237.796V79.1872C236.976 79.1283 236.243 79.0841 235.424 79.0252V74.3399H233.052V71.9089H230.681V67.1499H228.395C228.352 66.3101 228.309 65.5587 228.266 64.7189H226.009V59.8863H223.709V57.5584C222.89 57.4994 222.157 57.4552 221.338 57.3963V52.711H218.966V47.8784H216.594V45.5358H214.295V40.7032H211.923V38.2722H209.623V33.528C208.804 33.469 208.071 33.4248 207.252 33.3659V31.0822H204.88V26.2496H202.508V23.907H200.208V19.0744H197.837V16.6433H195.537V11.8991C194.718 11.8549 193.985 11.8255 193.165 11.7812V14.1386C192.346 14.1681 191.613 14.2123 190.794 14.2418V16.5697H188.336V21.4023H188.307Z" fill="#0C2D57"/>
<path d="M136.736 28.6371H134.364V33.396H131.992V38.155H129.707C129.649 38.9948 129.592 39.7462 129.534 40.586H127.306V45.4186H124.935V50.2512H122.635V54.9954C121.816 55.0396 121.083 55.0838 120.263 55.128V57.4412H117.892V62.2001H115.592C115.549 61.5518 115.491 60.8004 115.434 59.9606H113.206V55.128H110.834V52.697H108.534V47.9528C107.715 47.9086 106.982 47.8644 106.163 47.8054V45.507H103.791V40.7481H101.506C101.448 39.9083 101.405 39.1568 101.348 38.317H99.1197V33.4844H96.748V28.6518H94.4482V26.3092C93.6289 26.265 92.8959 26.2208 92.0766 26.1619V21.4471H89.7049V19.0161H87.3333V14.2572H85.0335V11.8261H82.6618V6.99351H80.362V4.65088C79.5427 4.60668 78.8097 4.56248 77.9904 4.51828V-0.122792H54.4894V2.08724H56.6886C56.7461 2.92705 56.8036 3.67846 56.861 4.51828H59.089V9.35088H61.4606V11.7819H63.7604V16.5261C64.5797 16.5703 65.3128 16.6145 66.1321 16.6587V21.3735H68.5037V23.8045H70.8754V28.5634H73.1608C73.2039 29.4032 73.2327 30.1546 73.2614 30.9945H75.5468V35.8271H77.8466V40.5713C78.6659 40.6155 79.399 40.6597 80.2183 40.7039V43.017H82.5899V47.776H84.8753C84.9328 48.6158 84.9903 49.3672 85.0478 50.207H87.2758V55.0396H89.6474V57.4707H91.9472V62.2149C92.7665 62.2591 93.4996 62.3033 94.3189 62.3622V67.0769H96.6905V69.508H99.0622V74.2669H101.362V76.6979H103.734V81.5305H106.033V83.8732C106.853 83.9174 107.586 83.9616 108.405 84.0205V88.7352H110.777V93.4942H113.062C113.12 94.334 113.163 95.0854 113.22 95.9252H115.448V100.758H117.82V103.189H120.12V105.487H122.491V100.831H124.863V98.4741H127.033C127.12 98.1942 127.235 97.9879 127.235 97.7816C127.249 96.4262 127.235 95.0854 127.235 93.6415H129.534V91.2105H131.906V86.3779H134.206V84.0352C135.025 83.991 135.758 83.9468 136.577 83.9026V79.1879H138.949V76.8305H141.12C141.206 76.5506 141.321 76.3443 141.321 76.1381C141.335 74.7826 141.321 73.4418 141.321 71.9979H143.621V69.5669H145.992V64.7343H148.292V62.3917C149.111 62.3475 149.844 62.3033 150.664 62.2591V57.5443H153.035V55.1869H155.206C155.292 54.907 155.407 54.7007 155.407 54.4945C155.421 53.139 155.407 51.7982 155.407 50.3543H157.707V47.9233H160.078V43.0907H162.378V40.7481C163.198 40.7039 163.931 40.6597 164.75 40.6155V35.9007H167.122V33.5434H169.292C169.378 33.2634 169.493 33.0572 169.493 32.8509C169.508 31.4954 169.493 30.1546 169.493 28.7108H171.793V26.2797H174.165V21.4471H176.464V19.1045C177.284 19.0603 178.017 19.0161 178.836 18.9719V14.2572H181.208V11.8998H183.378C183.464 11.6198 183.579 11.4136 183.579 11.2073C183.594 9.85182 183.579 8.51107 183.579 7.06718H185.879V4.63614H188.193V-0.166992H150.75V2.11671C149.931 2.16091 149.198 2.20511 148.378 2.24931V6.96405H146.007V11.7966H143.635V16.5556H141.35C141.306 17.3954 141.278 18.1468 141.249 18.9866H138.964V23.8192H136.664V28.6518L136.736 28.6371Z" fill="#0C2D57"/>
<path d="M47.3866 19.0161H45.0006V23.775H42.6146V28.5339H40.3292C40.2717 29.3737 40.2285 30.1252 40.171 30.965H37.9431V35.8123H35.5571V40.6596H33.2573V43.0023C32.438 43.0465 31.7049 43.0907 30.8713 43.1349V47.8496H28.4852V52.6085H26.1998C26.1423 53.4484 26.0992 54.1998 26.0417 55.0396H23.7994V59.8869H21.4996V64.6311C20.6803 64.6901 19.9473 64.749 19.128 64.8079V69.4785C18.3087 69.5227 17.5756 69.5521 16.7419 69.5963V71.9242H14.3559V76.6832H12.0849C11.8549 78.3039 12.0849 79.8803 11.9411 81.5158H9.68449V83.9468H7.38469V88.691C6.56539 88.7499 5.83234 88.8089 5.01304 88.8678V93.5383C4.19374 93.5825 3.46068 93.612 2.627 93.6562V95.9841H0.240967V100.743H-2.00132V120H2.54076V117.687H11.898V112.942C12.7173 112.883 13.4504 112.839 14.2697 112.78V110.497H16.6557V105.649H19.0417V103.307H21.3415V98.4594H23.7276V96.0283H26.0274V93.6857C26.8467 93.6268 27.5797 93.5825 28.399 93.5236V88.8236H30.785V86.3926H33.1711V81.6336H35.4565C35.4996 80.7938 35.5284 80.0424 35.5715 79.2026H37.8425V74.3553H40.1423V72.0126C40.9616 71.9684 41.6947 71.9095 42.514 71.8653V67.1653H44.9V64.8079H47.286V69.449H49.5714C49.6146 70.2888 49.6433 71.0402 49.6864 71.88H51.9575V76.7274H54.2573V79.07C55.0766 79.1142 55.8096 79.1584 56.6433 79.2173V83.9321H59.0293V86.2894H61.3147C61.3722 87.1292 61.4154 87.8807 61.4729 88.7205H63.7008V93.5678H66.0868V95.9989H68.3866V100.743C69.2059 100.787 69.9389 100.831 70.7726 100.876V103.189H73.1587V107.948H75.4441C75.5016 108.788 75.5447 109.539 75.6022 110.379H77.8445V112.81H80.2305V117.613H115.432V112.913C114.77 112.883 114.023 112.839 113.204 112.795V110.467H110.818V105.708H108.532C108.489 104.868 108.432 104.117 108.389 103.277H106.146V98.4299H103.846V93.6857C103.027 93.6268 102.294 93.5678 101.475 93.5089V91.2399C100.655 91.1957 99.9224 91.1662 99.0888 91.122V86.3926H96.7027V84.0499H94.403V79.2173H92.0169V76.7863H89.7171V72.0421C88.8978 71.9832 88.1648 71.939 87.3455 71.88V69.5963H84.9594V64.749H82.5734V59.9901H80.288C80.2449 59.1502 80.2017 58.3988 80.1586 57.559H77.902V52.7117H75.6022V50.3691C74.7829 50.3101 74.0498 50.2659 73.2305 50.207V45.507H70.8445V43.0759H68.4585V38.317H66.173C66.1299 37.4772 66.1012 36.7258 66.0581 35.886H63.787V31.0386H61.4872V26.2944C60.6679 26.2502 59.9349 26.1913 59.1156 26.1471V23.8487H56.7295V19.0013H54.3435V16.6587H52.0437V11.8408H49.6577V16.5703H47.3579V19.0013L47.3866 19.0161Z" fill="#0C2D57"/>
<path d="M7.42863 26.2212H5.05698V28.5638H2.68531V33.3964H0.313661V35.739H-1.92863V42.9732H0.256154V81.4425H2.62782V79.1293H4.9276V74.3851C5.7469 74.3262 6.47997 74.282 7.29927 74.2231V69.5378H9.67092V64.7052H12.0426V62.3626H14.3424V57.5299H16.714V52.6973H19.0857V50.2663H21.3855V45.5221C22.2048 45.4779 22.9378 45.4337 23.7571 45.3895V40.6748H26.1288V38.2437H28.5004V33.4995H30.8002V28.6669H33.1719V23.8343H35.4717V21.5064C36.291 21.4475 37.024 21.4033 37.8433 21.3444V16.6591C38.6626 16.6149 39.3957 16.5854 40.215 16.556V11.8265H42.5867V9.46912H44.8577C45.0877 7.84843 44.8577 6.27194 45.0158 4.63652H47.2725V-0.196088H49.5723V-2.59766H23.9009V2.05814C23.0816 2.11708 22.3485 2.17601 21.5292 2.23495V4.50391C20.7099 4.54811 19.9769 4.57758 19.1576 4.62178V9.35125H16.7859V11.7086H14.5292C14.2992 13.3293 14.5292 14.9058 14.3711 16.5412H12.1288V18.9723H9.75716V23.8049H7.45738V26.2359L7.42863 26.2212Z" fill="#0C2D57"/>
<path d="M188.452 81.5308H186.08V79.2471H181.351V81.5308H178.965V86.2897H176.665V88.7207H174.279V91.1518H171.979V95.896C171.16 95.9402 170.427 95.9844 169.593 96.0286V98.3417H167.207V103.101H164.922C164.864 103.941 164.821 104.692 164.764 105.532H162.536V107.963H160.15V112.795H157.85V115.138C157.031 115.182 156.298 115.226 155.464 115.271V117.584H153.121V119.941H209.452C209.48 119.278 209.509 118.512 209.523 117.746C209.523 116.95 209.523 116.169 209.523 115.285H207.238C207.195 114.446 207.166 113.694 207.123 112.854H204.852V108.022H202.552V105.679C201.733 105.635 201 105.591 200.181 105.532V100.817H197.795V98.3859H195.408V93.627H193.123C193.08 92.7872 193.051 92.0358 193.022 91.196H190.737V86.3634H188.437V81.5308H188.452Z" fill="#0C2D57"/>
<path d="M63.8464 110.394H61.4748V105.635H59.1031V100.802H56.7315V96.0433H54.4461C54.4029 95.2035 54.3598 94.4521 54.3167 93.6123H52.06V88.7797H49.7602V84.0355C48.9409 83.9765 48.2079 83.9323 47.3886 83.8734V79.2471H42.6596V83.9176H40.288V86.275H38.0169C37.787 87.8957 38.0169 89.4722 37.8588 91.1076H35.6022V93.5386H33.2305V98.3712H30.9307V100.714C30.1114 100.758 29.3784 100.802 28.5591 100.846V105.561H26.1874V110.394H23.8157V112.736H21.516V117.569H19.2018V119.971H66.0312V115.226H63.8608V110.394H63.8464Z" fill="#0C2D57"/>
<path d="M244.88 45.4479H242.494V43.1053H240.108V38.3463H237.823C237.765 37.5065 237.722 36.7551 237.665 35.9153H235.437V31.068H233.051V28.6369H230.751V23.8927C229.932 23.8485 229.184 23.8043 228.365 23.7601V21.447H225.979V16.688H223.694C223.636 15.8482 223.593 15.0968 223.55 14.257H221.308V9.40964H218.921V6.97861H216.622V2.23441C215.802 2.19021 215.055 2.16074 214.236 2.11654V-0.137695H200.135V4.48864H202.363V9.32124H204.749V11.7523H207.049V16.4965C207.868 16.5554 208.601 16.6143 209.42 16.6733V18.957H211.807V23.8043H214.193V26.147H216.492V30.9943H218.878V35.8416H221.178V38.1843C221.997 38.2432 222.731 38.2874 223.55 38.3463V43.0463H225.936V45.4774H228.322V50.2363H230.607C230.65 51.0761 230.694 51.8275 230.722 52.6673H232.993V57.5147H235.293V62.2589C236.112 62.3031 236.845 62.362 237.665 62.4062V64.7047H240.051V69.552H242.437V71.8946H244.722C244.765 72.7344 244.794 73.4858 244.837 74.3109H247.051V50.3394H244.88V45.4921V45.4479Z" fill="#0C2D57"/>
<path d="M129.592 21.3284V16.6726C130.325 16.6284 131.058 16.5842 131.878 16.5252V11.8252H134.249V6.99262H136.621V2.23368H138.863V-0.182617H89.6909C89.6622 0.495126 89.6334 1.26127 89.619 2.02741C89.619 2.82303 89.619 3.6039 89.619 4.48792H91.9045C91.9476 5.313 91.9763 6.07914 92.0194 6.91895H94.2905V9.34999H96.5903V11.6779C97.4096 11.7368 98.1426 11.781 98.9619 11.84V16.5105C99.7812 16.5547 100.514 16.5842 101.334 16.6284V18.9563H103.705V21.3136H105.991C106.048 22.1387 106.091 22.9049 106.149 23.7447H108.377V28.5773H110.748V31.0083H113.048V33.3362C113.867 33.3951 114.6 33.4393 115.42 33.4835V35.782H117.791V38.1393H120.163V33.513H122.449V28.6804H124.82V23.8478H127.192V21.461C128.097 21.402 128.845 21.3726 129.564 21.3284H129.592Z" fill="#0C2D57"/>
<path d="M223.679 -0.182617V4.48792H225.921C225.965 5.313 225.993 6.07914 226.036 6.91895H228.308V11.7516H230.679V14.1826H232.965V18.9121C233.77 18.9563 234.517 19.0005 235.336 19.0447V21.3431H237.708V26.1757H240.08V28.5183H242.365C242.408 29.3434 242.451 30.1096 242.509 30.9494H244.751V35.7672H247.051V-0.182617H223.679Z" fill="#0C2D57"/>
<path d="M2.55499 11.7668H4.92664V9.42414H7.29831V4.59154H9.66996V2.24891H11.9554C11.9985 1.42383 12.0416 0.657682 12.0847 -0.18213H14.2695V-5H9.69871V-2.6721H0.355819V16.5404H2.54062V11.7668H2.55499Z" fill="#0C2D57"/>
<path d="M1168.8 21.4023H1166.59C1166.55 22.1537 1166.5 22.9051 1166.46 23.7449H1164.2V28.5775H1161.9V30.9054C1161.08 30.9643 1160.35 31.0233 1159.53 31.0822V35.7527C1158.71 35.7969 1157.98 35.8264 1157.16 35.8559V38.1838H1154.79V42.9427H1152.5C1152.46 43.7825 1152.42 44.5339 1152.36 45.3737H1150.1V50.2063H1147.73V52.6374H1145.43V57.3816C1144.61 57.4258 1143.88 57.4552 1143.06 57.4994V59.8274H1140.69V64.5863H1138.4C1138.36 65.4261 1138.32 66.1775 1138.26 67.0173H1136.02V71.8499H1133.65V74.281H1131.35V79.0252C1130.53 79.0694 1129.79 79.0988 1128.97 79.143V81.4709H1126.6V86.2299H1124.32C1124.27 87.0697 1124.22 87.8211 1124.17 88.6609H1121.93V93.4935H1119.56V95.9245H1117.26V100.669C1116.44 100.713 1115.71 100.742 1114.89 100.787V103.115H1112.52V107.873H1110.23C1110.17 108.713 1110.13 109.465 1110.09 110.304H1107.84V115.137H1105.54V119.94H1119.47V117.642H1126.56V115.211H1128.93V112.853H1131.1C1131.19 112.573 1131.3 112.367 1131.3 112.161C1131.32 110.805 1131.3 109.465 1131.3 108.021H1133.6V105.59H1135.97V103.159H1138.27V100.816C1139.09 100.772 1139.83 100.728 1140.65 100.683V95.9687H1143.02V93.6114H1145.3C1145.36 92.7716 1145.4 92.0202 1145.46 91.1803H1147.69V86.3477H1150.06V83.9167H1152.36V81.5741C1153.18 81.5299 1153.91 81.4857 1154.73 81.4415V76.7267H1157.1V74.3694H1159.39C1159.45 73.5295 1159.49 72.7781 1159.55 71.9383H1161.77V67.1057H1164.15V64.6747H1166.45V62.3763H1171.17V67.0321H1173.55V69.4631H1175.92V74.222H1178.22V76.6531H1180.59V79.0841H1182.89V83.8283C1183.71 83.8725 1184.44 83.9167 1185.26 83.9609V86.2741H1187.63V88.7051H1190V93.464H1192.29C1192.33 94.3039 1192.36 95.0553 1192.39 95.8951H1194.68V100.728H1196.98V103.07C1197.79 103.115 1198.53 103.159 1199.35 103.203V105.501H1201.72V110.334H1204.09V112.677H1206.39V117.509H1208.76V119.911H1215.76V117.76C1216.04 117.686 1216.24 117.568 1216.45 117.568C1220.91 117.568 1225.36 117.568 1229.88 117.568V98.3703H1227.63V93.5377H1225.26V91.1951H1222.96V86.3625H1220.59V81.5299H1218.29V79.1872C1217.47 79.1283 1216.74 79.0841 1215.92 79.0252V74.3399H1213.55V71.9089H1211.18V67.1499H1208.89C1208.85 66.3101 1208.81 65.5587 1208.76 64.7189H1206.51V59.8863H1204.21V57.5584C1203.39 57.4994 1202.65 57.4552 1201.83 57.3963V52.711H1199.46V47.8784H1197.09V45.5358H1194.79V40.7032H1192.42V38.2722H1190.12V33.528C1189.3 33.469 1188.57 33.4248 1187.75 33.3659V31.0822H1185.38V26.2496H1183V23.907H1180.7V19.0744H1178.33V16.6433H1176.03V11.8991C1175.21 11.8549 1174.48 11.8255 1173.66 11.7812V14.1386C1172.84 14.1681 1172.11 14.2123 1171.29 14.2418V16.5697H1168.83V21.4023H1168.8Z" fill="#0C2D57"/>
<path d="M1117.23 28.6371H1114.86V33.396H1112.49V38.155H1110.2C1110.14 38.9948 1110.09 39.7462 1110.03 40.586H1107.8V45.4186H1105.43V50.2512H1103.13V54.9954C1102.31 55.0396 1101.58 55.0838 1100.76 55.128V57.4412H1098.39V62.2001H1096.09C1096.04 61.5518 1095.99 60.8004 1095.93 59.9606H1093.7V55.128H1091.33V52.697H1089.03V47.9528C1088.21 47.9086 1087.48 47.8644 1086.66 47.8054V45.507H1084.29V40.7481H1082C1081.94 39.9083 1081.9 39.1568 1081.84 38.317H1079.61V33.4844H1077.24V28.6518H1074.94V26.3092C1074.12 26.265 1073.39 26.2208 1072.57 26.1619V21.4471H1070.2V19.0161H1067.83V14.2572H1065.53V11.8261H1063.16V6.99351H1060.86V4.65088C1060.04 4.60668 1059.3 4.56248 1058.48 4.51828V-0.122792H1034.98V2.08724H1037.18C1037.24 2.92705 1037.3 3.67846 1037.36 4.51828H1039.58V9.35088H1041.95V11.7819H1044.25V16.5261C1045.07 16.5703 1045.81 16.6145 1046.63 16.6587V21.3735H1049V23.8045H1051.37V28.5634H1053.65C1053.7 29.4032 1053.73 30.1546 1053.76 30.9945H1056.04V35.8271H1058.34V40.5713C1059.16 40.6155 1059.89 40.6597 1060.71 40.7039V43.017H1063.08V47.776H1065.37C1065.43 48.6158 1065.48 49.3672 1065.54 50.207H1067.77V55.0396H1070.14V57.4707H1072.44V62.2149C1073.26 62.2591 1073.99 62.3033 1074.81 62.3622V67.0769H1077.18V69.508H1079.56V74.2669H1081.86V76.6979H1084.23V81.5305H1086.53V83.8732C1087.35 83.9174 1088.08 83.9616 1088.9 84.0205V88.7352H1091.27V93.4942H1093.56C1093.61 94.334 1093.66 95.0854 1093.71 95.9252H1095.94V100.758H1098.31V103.189H1100.61V105.487H1102.99V100.831H1105.36V98.4741H1107.53C1107.61 98.1942 1107.73 97.9879 1107.73 97.7816C1107.74 96.4262 1107.73 95.0854 1107.73 93.6415H1110.03V91.2105H1112.4V86.3779H1114.7V84.0352C1115.52 83.991 1116.25 83.9468 1117.07 83.9026V79.1879H1119.44V76.8305H1121.61C1121.7 76.5506 1121.81 76.3443 1121.81 76.1381C1121.83 74.7826 1121.81 73.4418 1121.81 71.9979H1124.11V69.5669H1126.49V64.7343H1128.79V62.3917C1129.61 62.3475 1130.34 62.3033 1131.16 62.2591V57.5443H1133.53V55.1869H1135.7C1135.79 54.907 1135.9 54.7007 1135.9 54.4945C1135.92 53.139 1135.9 51.7982 1135.9 50.3543H1138.2V47.9233H1140.57V43.0907H1142.87V40.7481C1143.69 40.7039 1144.42 40.6597 1145.24 40.6155V35.9007H1147.62V33.5434H1149.79C1149.87 33.2634 1149.99 33.0572 1149.99 32.8509C1150 31.4954 1149.99 30.1546 1149.99 28.7108H1152.29V26.2797H1154.66V21.4471H1156.96V19.1045C1157.78 19.0603 1158.51 19.0161 1159.33 18.9719V14.2572H1161.7V11.8998H1163.87C1163.96 11.6198 1164.07 11.4136 1164.07 11.2073C1164.09 9.85182 1164.07 8.51107 1164.07 7.06718H1166.37V4.63614H1168.69V-0.166992H1131.24V2.11671C1130.42 2.16091 1129.69 2.20511 1128.87 2.24931V6.96405H1126.5V11.7966H1124.13V16.5556H1121.84C1121.8 17.3954 1121.77 18.1468 1121.74 18.9866H1119.46V23.8192H1117.16V28.6518L1117.23 28.6371Z" fill="#0C2D57"/>
<path d="M1027.88 19.0161H1025.5V23.775H1023.11V28.5339H1020.83C1020.77 29.3737 1020.73 30.1252 1020.67 30.965H1018.44V35.8123H1016.06V40.6596H1013.76V43.0023C1012.94 43.0465 1012.2 43.0907 1011.37 43.1349V47.8496H1008.98V52.6085H1006.7C1006.64 53.4484 1006.6 54.1998 1006.54 55.0396H1004.3V59.8869H1002V64.6311C1001.18 64.6901 1000.45 64.749 999.626 64.8079V69.4785C998.807 69.5227 998.074 69.5521 997.24 69.5963V71.9242H994.854V76.6832H992.583C992.353 78.3039 992.583 79.8803 992.439 81.5158H990.183V83.9468H987.883V88.691C987.063 88.7499 986.33 88.8089 985.511 88.8678V93.5383C984.692 93.5825 983.959 93.612 983.125 93.6562V95.9841H980.739V100.743H978.497V120H983.039V117.687H992.396V112.942C993.215 112.883 993.948 112.839 994.768 112.78V110.497H997.154V105.649H999.54V103.307H1001.84V98.4594H1004.23V96.0283H1006.53V93.6857C1007.34 93.6268 1008.08 93.5825 1008.9 93.5236V88.8236H1011.28V86.3926H1013.67V81.6336H1015.95C1016 80.7938 1016.03 80.0424 1016.07 79.2026H1018.34V74.3553H1020.64V72.0126C1021.46 71.9684 1022.19 71.9095 1023.01 71.8653V67.1653H1025.4V64.8079H1027.78V69.449H1030.07C1030.11 70.2888 1030.14 71.0402 1030.18 71.88H1032.46V76.7274H1034.76V79.07C1035.57 79.1142 1036.31 79.1584 1037.14 79.2173V83.9321H1039.53V86.2894H1041.81C1041.87 87.1292 1041.91 87.8807 1041.97 88.7205H1044.2V93.5678H1046.58V95.9989H1048.88V100.743C1049.7 100.787 1050.44 100.831 1051.27 100.876V103.189H1053.66V107.948H1055.94C1056 108.788 1056.04 109.539 1056.1 110.379H1058.34V112.81H1060.73V117.613H1095.93V112.913C1095.27 112.883 1094.52 112.839 1093.7 112.795V110.467H1091.32V105.708H1089.03C1088.99 104.868 1088.93 104.117 1088.89 103.277H1086.64V98.4299H1084.34V93.6857C1083.53 93.6268 1082.79 93.5678 1081.97 93.5089V91.2399C1081.15 91.1957 1080.42 91.1662 1079.59 91.122V86.3926H1077.2V84.0499H1074.9V79.2173H1072.51V76.7863H1070.22V72.0421C1069.4 71.9832 1068.66 71.939 1067.84 71.88V69.5963H1065.46V64.749H1063.07V59.9901H1060.79C1060.74 59.1502 1060.7 58.3988 1060.66 57.559H1058.4V52.7117H1056.1V50.3691C1055.28 50.3101 1054.55 50.2659 1053.73 50.207V45.507H1051.34V43.0759H1048.96V38.317H1046.67C1046.63 37.4772 1046.6 36.7258 1046.56 35.886H1044.29V31.0386H1041.99V26.2944C1041.17 26.2502 1040.43 26.1913 1039.61 26.1471V23.8487H1037.23V19.0013H1034.84V16.6587H1032.54V11.8408H1030.16V16.5703H1027.86V19.0013L1027.88 19.0161Z" fill="#0C2D57"/>
<path d="M987.925 26.2212H985.553V28.5638H983.181V33.3964H980.81V35.739H978.567V42.9732H980.752V81.4425H983.124V79.1293H985.424V74.3851C986.243 74.3262 986.976 74.282 987.795 74.2231V69.5378H990.167V64.7052H992.539V62.3626H994.838V57.5299H997.21V52.6973H999.582V50.2663H1001.88V45.5221C1002.7 45.4779 1003.43 45.4337 1004.25 45.3895V40.6748H1006.62V38.2437H1009V33.4995H1011.3V28.6669H1013.67V23.8343H1015.97V21.5064C1016.79 21.4475 1017.52 21.4033 1018.34 21.3444V16.6591C1019.16 16.6149 1019.89 16.5854 1020.71 16.556V11.8265H1023.08V9.46912H1025.35C1025.58 7.84843 1025.35 6.27194 1025.51 4.63652H1027.77V-0.196088H1030.07V-2.59766H1004.4V2.05814C1003.58 2.11708 1002.84 2.17601 1002.03 2.23495V4.50391C1001.21 4.54811 1000.47 4.57758 999.654 4.62178V9.35125H997.282V11.7086H995.025C994.795 13.3293 995.025 14.9058 994.867 16.5412H992.625V18.9723H990.253V23.8049H987.953V26.2359L987.925 26.2212Z" fill="#0C2D57"/>
<path d="M1168.95 81.5308H1166.58V79.2471H1161.85V81.5308H1159.46V86.2897H1157.16V88.7207H1154.78V91.1518H1152.48V95.896C1151.66 95.9402 1150.92 95.9844 1150.09 96.0286V98.3417H1147.7V103.101H1145.42C1145.36 103.941 1145.32 104.692 1145.26 105.532H1143.03V107.963H1140.65V112.795H1138.35V115.138C1137.53 115.182 1136.79 115.226 1135.96 115.271V117.584H1133.62V119.941H1189.95C1189.98 119.278 1190.01 118.512 1190.02 117.746C1190.02 116.95 1190.02 116.169 1190.02 115.285H1187.73C1187.69 114.446 1187.66 113.694 1187.62 112.854H1185.35V108.022H1183.05V105.679C1182.23 105.635 1181.5 105.591 1180.68 105.532V100.817H1178.29V98.3859H1175.9V93.627H1173.62C1173.58 92.7872 1173.55 92.0358 1173.52 91.196H1171.23V86.3634H1168.93V81.5308H1168.95Z" fill="#0C2D57"/>
<path d="M1044.34 110.394H1041.97V105.635H1039.6V100.802H1037.23V96.0433H1034.94C1034.9 95.2035 1034.86 94.4521 1034.81 93.6123H1032.56V88.7797H1030.26V84.0355C1029.44 83.9765 1028.7 83.9323 1027.88 83.8734V79.2471H1023.16V83.9176H1020.78V86.275H1018.51C1018.28 87.8957 1018.51 89.4722 1018.35 91.1076H1016.1V93.5386H1013.73V98.3712H1011.43V100.714C1010.61 100.758 1009.87 100.802 1009.06 100.846V105.561H1006.68V110.394H1004.31V112.736H1002.01V117.569H999.698V119.971H1046.53V115.226H1044.36V110.394H1044.34Z" fill="#0C2D57"/>
<path d="M1225.38 45.4479H1222.99V43.1053H1220.6V38.3463H1218.32C1218.26 37.5065 1218.22 36.7551 1218.16 35.9153H1215.93V31.068H1213.55V28.6369H1211.25V23.8927C1210.43 23.8485 1209.68 23.8043 1208.86 23.7601V21.447H1206.48V16.688H1204.19C1204.13 15.8482 1204.09 15.0968 1204.05 14.257H1201.8V9.40964H1199.42V6.97861H1197.12V2.23441C1196.3 2.19021 1195.55 2.16074 1194.73 2.11654V-0.137695H1180.63V4.48864H1182.86V9.32124H1185.25V11.7523H1187.54V16.4965C1188.36 16.5554 1189.1 16.6143 1189.92 16.6733V18.957H1192.3V23.8043H1194.69V26.147H1196.99V30.9943H1199.37V35.8416H1201.67V38.1843C1202.49 38.2432 1203.23 38.2874 1204.05 38.3463V43.0463H1206.43V45.4774H1208.82V50.2363H1211.1C1211.15 51.0761 1211.19 51.8275 1211.22 52.6673H1213.49V57.5147H1215.79V62.2589C1216.61 62.3031 1217.34 62.362 1218.16 62.4062V64.7047H1220.55V69.552H1222.93V71.8946H1225.22C1225.26 72.7344 1225.29 73.4858 1225.33 74.3109H1227.55V50.3394H1225.38V45.4921V45.4479Z" fill="#0C2D57"/>
<path d="M1110.09 21.3284V16.6726C1110.82 16.6284 1111.55 16.5842 1112.37 16.5252V11.8252H1114.75V6.99262H1117.12V2.23368H1119.36V-0.182617H1070.19C1070.16 0.495126 1070.13 1.26127 1070.12 2.02741C1070.12 2.82303 1070.12 3.6039 1070.12 4.48792H1072.4C1072.44 5.313 1072.47 6.07914 1072.52 6.91895H1074.79V9.34999H1077.09V11.6779C1077.91 11.7368 1078.64 11.781 1079.46 11.84V16.5105C1080.28 16.5547 1081.01 16.5842 1081.83 16.6284V18.9563H1084.2V21.3136H1086.49C1086.54 22.1387 1086.59 22.9049 1086.64 23.7447H1088.87V28.5773H1091.24V31.0083H1093.54V33.3362C1094.36 33.3951 1095.1 33.4393 1095.92 33.4835V35.782H1098.29V38.1393H1100.66V33.513H1102.94V28.6804H1105.32V23.8478H1107.69V21.461C1108.59 21.402 1109.34 21.3726 1110.06 21.3284H1110.09Z" fill="#0C2D57"/>
<path d="M1204.18 -0.182617V4.48792H1206.42C1206.46 5.313 1206.49 6.07914 1206.53 6.91895H1208.8V11.7516H1211.18V14.1826H1213.46V18.9121C1214.27 18.9563 1215.01 19.0005 1215.83 19.0447V21.3431H1218.2V26.1757H1220.58V28.5183H1222.86C1222.9 29.3434 1222.95 30.1096 1223 30.9494H1225.25V35.7672H1227.55V-0.182617H1204.18Z" fill="#0C2D57"/>
<path d="M983.051 11.7668H985.423V9.42414H987.794V4.59154H990.166V2.24891H992.451C992.495 1.42383 992.538 0.657682 992.581 -0.18213H994.766V-5H990.195V-2.6721H980.852V16.5404H983.037V11.7668H983.051Z" fill="#0C2D57"/>
</g>
<defs>
<clipPath id="clip0_1153_7064">
<rect width="1440" height="80" fill="white"/>
</clipPath>
</defs>
</svg>
