<svg width="32" height="32" viewBox="0 0 32 32" fill="none" xmlns="http://www.w3.org/2000/svg">
<path fill-rule="evenodd" clip-rule="evenodd" d="M23.3544 21.6178C25.4656 19.3444 26.7636 16.3312 26.7636 12.9815C26.7636 5.72595 20.6741 0.0495605 13.4209 0.0495605C6.16763 0.0495605 0.078125 5.72595 0.078125 12.9815C0.078125 20.237 6.16763 25.9134 13.4209 25.9134C16.2425 25.9134 18.8881 25.0544 21.0675 23.5775L29.3553 31.538C29.9528 32.1119 30.9215 32.1119 31.5189 31.538C32.1164 30.9641 32.1164 30.0337 31.5189 29.4598L23.3544 21.6178ZM23.7636 12.9815C23.7636 18.4668 19.133 22.9134 13.4209 22.9134C7.70873 22.9134 3.07812 18.4668 3.07812 12.9815C3.07812 7.49624 7.70873 3.04956 13.4209 3.04956C19.133 3.04956 23.7636 7.49624 23.7636 12.9815Z" fill="#111112"/>
</svg>
