<svg width="32" height="32" viewBox="0 0 32 32" fill="none" xmlns="http://www.w3.org/2000/svg">
<mask id="path-1-inside-1_203_333" fill="white">
<path fill-rule="evenodd" clip-rule="evenodd" d="M4.99837 29.3498C2.47577 27.9948 1.45868 24.8091 3.24105 22.5679C5.89835 19.2266 10.657 17 16.0852 17C21.4277 17 26.1216 19.1568 28.8019 22.4103C30.6298 24.6292 29.6666 27.8456 27.1503 29.2358C23.9952 30.9789 20.1366 32.0039 15.9697 32.0039C11.8945 32.0039 8.11413 31.0235 4.99837 29.3498Z"/>
</mask>
<path d="M5.58905 24.4353C7.59009 21.9191 11.4216 20 16.0852 20V14C9.89233 14 4.2066 16.5341 0.893051 20.7006L5.58905 24.4353ZM16.0852 20C20.6724 20 24.4599 21.8579 26.4864 24.3179L31.1174 20.5028C27.7832 16.4556 22.1831 14 16.0852 14V20ZM25.6996 26.6099C23.0076 28.0971 19.6513 29.0039 15.9697 29.0039V35.0039C20.6219 35.0039 24.9828 33.8607 28.601 31.8617L25.6996 26.6099ZM15.9697 29.0039C12.3695 29.0039 9.07968 28.1367 6.41801 26.707L3.57874 31.9927C7.14858 33.9103 11.4194 35.0039 15.9697 35.0039V29.0039ZM26.4864 24.3179C26.735 24.6196 26.8086 24.9682 26.702 25.3779C26.5857 25.8242 26.2493 26.3062 25.6996 26.6099L28.601 31.8617C32.3877 29.7697 34.3951 24.4816 31.1174 20.5028L26.4864 24.3179ZM0.893051 20.7006C-2.31174 24.7304 -0.204951 29.9602 3.57874 31.9927L6.41801 26.707C5.86384 26.4093 5.51913 25.931 5.39548 25.4867C5.28226 25.08 5.35014 24.7357 5.58905 24.4353L0.893051 20.7006Z" fill="#111112" mask="url(#path-1-inside-1_203_333)"/>
<path d="M5.58905 24.4353C7.59009 21.9191 11.4216 20 16.0852 20V14C9.89233 14 4.2066 16.5341 0.893051 20.7006L5.58905 24.4353ZM16.0852 20C20.6724 20 24.4599 21.8579 26.4864 24.3179L31.1174 20.5028C27.7832 16.4556 22.1831 14 16.0852 14V20ZM25.6996 26.6099C23.0076 28.0971 19.6513 29.0039 15.9697 29.0039V35.0039C20.6219 35.0039 24.9828 33.8607 28.601 31.8617L25.6996 26.6099ZM15.9697 29.0039C12.3695 29.0039 9.07968 28.1367 6.41801 26.707L3.57874 31.9927C7.14858 33.9103 11.4194 35.0039 15.9697 35.0039V29.0039ZM26.4864 24.3179C26.735 24.6196 26.8086 24.9682 26.702 25.3779C26.5857 25.8242 26.2493 26.3062 25.6996 26.6099L28.601 31.8617C32.3877 29.7697 34.3951 24.4816 31.1174 20.5028L26.4864 24.3179ZM0.893051 20.7006C-2.31174 24.7304 -0.204951 29.9602 3.57874 31.9927L6.41801 26.707C5.86384 26.4093 5.51913 25.931 5.39548 25.4867C5.28226 25.08 5.35014 24.7357 5.58905 24.4353L0.893051 20.7006Z" fill="#111112" mask="url(#path-1-inside-1_203_333)"/>
<circle cx="16" cy="8" r="6.5" stroke="#111112" stroke-width="3"/>
</svg>
